M48
;Layer_Color=9474304
;FILE_FORMAT=2:5
INCH,LZ
;TYPE=PLATED
T01F00S00C0.01968
T03F00S00C0.03346
T04F00S00C0.04331
T05F00S00C0.04724
;TYPE=NON_PLATED
T06F00S00C0.05906
%
T01
X0019658Y0049239
Y0088609
X00665Y0085
X007Y00975
X00985Y0098
X01045Y0075
X0088Y00645
X0069723Y0064674
X0111Y00425
X0117
X012Y0024
X0149343Y0055062
X01725Y0059
X0166441Y0083941
X0145Y00895
X0224385Y0088609
X0259869Y0088583
Y0049213
X0224385Y0049239
X0324Y0064
X033
X03265Y008
X03195Y0092
X03105Y0088
X0304197Y0094881
X035263Y008137
X03725Y0072
X03815Y00655
X0392295Y0058007
X0401575Y0051181
X04115Y005437
X04235
X0405041Y0086603
X0392637Y0081603
X0386567Y0086603
X0373Y01015
X0358268Y0031496
X04355Y005437
X0456849Y0050583
Y0089953
X0456719Y0167323
Y0206693
Y0246063
X0417349Y0131917
X0417479Y011948
X0387952
X0387822Y0131917
X0392637Y0109678
X0358424Y011948
X0358294Y0131917
X0328767
X0328897Y011948
X0299369
X0299239Y0131917
X0259869Y0127953
Y0167323
Y0206693
Y0246063
X0216509Y024609
Y0206719
Y0167349
X0177139Y0131917
Y0118137
X0147611
Y0131917
X0118084
Y0118137
X0088556
Y0131917
X0059029
Y0118137
X0019658Y0127979
Y0167349
Y0206719
Y024609
Y028546
Y032483
X0059029Y0374043
X0088556
X0118084
X0147611
X0177139
X0216509Y032483
Y028546
X0259869Y0285433
Y0324803
X0299239Y0374043
X0328767
X0358294
X0387822
X0417349
X0456719Y0324803
Y0285433
T03
X0049072Y0087391
Y0097233
X0286334Y0064507
X0296177
X04295Y0089657
Y00995
T04
X0427612Y0177756
Y0187756
X0292966Y0187921
Y0177921
X0187428Y0177756
Y0187756
X0052782
Y0197756
Y0327992
Y0337992
X0187428Y0337992
Y0327992
X0292966Y0327992
Y0337992
X0427612Y0327992
Y0317992
T05
X0180299Y0017743
X0170456Y0037428
X0160614
X0190141
X0199984
X0400683Y0037458
X0410525
X0420368Y0017773
X043021Y0037458
X0440053
T06
X0160614Y0017743
X0199984
X0400683Y0017773
X0440053
M30
