G04*
G04 #@! TF.GenerationSoftware,Altium Limited,Altium Designer,23.10.1 (27)*
G04*
G04 Layer_Color=8388736*
%FSLAX25Y25*%
%MOIN*%
G70*
G04*
G04 #@! TF.SameCoordinates,52E8BDB3-E784-467F-A169-E1E59ABD1491*
G04*
G04*
G04 #@! TF.FilePolarity,Negative*
G04*
G01*
G75*
%ADD39R,0.02762X0.06502*%
%ADD40R,0.03550X0.02368*%
%ADD41R,0.03943X0.04140*%
%ADD42R,0.03747X0.04140*%
%ADD43C,0.11811*%
%ADD44R,0.03943X0.04337*%
%ADD45R,0.05912X0.02762*%
%ADD46R,0.04337X0.02762*%
%ADD47R,0.05912X0.05518*%
%ADD48R,0.04337X0.03943*%
%ADD49R,0.02368X0.04337*%
%ADD50R,0.06109X0.02762*%
%ADD51R,0.07487X0.02762*%
%ADD52R,0.05518X0.05912*%
%ADD53R,0.02368X0.03550*%
%ADD54R,0.04140X0.03943*%
%ADD55R,0.04140X0.03747*%
%ADD56O,0.16935X0.06896*%
%ADD57O,0.15558X0.06896*%
%ADD58O,0.06896X0.15558*%
%ADD59C,0.00400*%
%ADD60C,0.08274*%
%ADD61R,0.07093X0.07093*%
%ADD62C,0.07093*%
%ADD63R,0.08274X0.08274*%
%ADD64R,0.07093X0.07093*%
G36*
X445866Y124016D02*
Y108268D01*
X430118D01*
Y124016D01*
Y139764D01*
X445866D01*
Y124016D01*
D02*
G37*
G36*
X204724D02*
Y108268D01*
X188976D01*
Y124016D01*
Y139764D01*
X204724D01*
Y124016D01*
D02*
G37*
G36*
X54063Y66650D02*
X54102Y66646D01*
X54140Y66634D01*
X54175Y66616D01*
X54205Y66591D01*
X54230Y66560D01*
X54249Y66526D01*
X54260Y66488D01*
X54264Y66449D01*
X54264Y59362D01*
X54260Y59323D01*
X54249Y59285D01*
X54230Y59250D01*
X54205Y59220D01*
X54175Y59195D01*
X54140Y59176D01*
X54102Y59165D01*
X54063Y59161D01*
X41465Y59161D01*
X41425Y59165D01*
X41388Y59177D01*
X41353Y59195D01*
X41328Y59216D01*
X41323Y59220D01*
Y59220D01*
X41323D01*
X41318Y59226D01*
X41298Y59251D01*
X41279Y59285D01*
X41268Y59323D01*
X41264Y59362D01*
X41263Y66449D01*
D01*
Y66449D01*
X41267Y66488D01*
X41279Y66526D01*
X41297Y66560D01*
X41318Y66585D01*
X41322Y66591D01*
X41322D01*
Y66591D01*
X41328Y66595D01*
X41353Y66616D01*
X41388Y66634D01*
X41425Y66646D01*
X41464Y66650D01*
D01*
X41464D01*
X54063Y66650D01*
D02*
G37*
G36*
X351958Y67961D02*
X351981Y67954D01*
X351996Y67950D01*
X351996Y67950D01*
X351996D01*
X352005Y67945D01*
X352030Y67931D01*
X352030Y67931D01*
X352030Y67931D01*
X352061Y67906D01*
X352061Y67906D01*
X352553Y67414D01*
X352553Y67414D01*
X352553Y67414D01*
X352567Y67398D01*
X352578Y67384D01*
X352578Y67384D01*
X352578Y67384D01*
X352586Y67370D01*
X352597Y67349D01*
X352597Y67349D01*
D01*
X352600Y67338D01*
X352608Y67311D01*
Y67311D01*
X352608Y67311D01*
X352610Y67288D01*
X352612Y67272D01*
Y67272D01*
Y67272D01*
X352612Y60776D01*
X352608Y60737D01*
X352597Y60699D01*
X352578Y60664D01*
X352553Y60634D01*
X352061Y60142D01*
X352030Y60117D01*
X352008Y60105D01*
X351996Y60098D01*
X351958Y60087D01*
X351919Y60083D01*
X351919Y60083D01*
X342372D01*
X342332Y60087D01*
X342295Y60098D01*
X342260Y60117D01*
X342230Y60142D01*
X339670Y62701D01*
X339645Y62731D01*
X339627Y62766D01*
X339615Y62804D01*
X339612Y62843D01*
Y65205D01*
X339615Y65244D01*
X339627Y65282D01*
X339645Y65317D01*
X339670Y65347D01*
X342230Y67906D01*
X342260Y67931D01*
X342295Y67950D01*
X342332Y67961D01*
X342372Y67965D01*
X351919D01*
X351958Y67961D01*
D02*
G37*
G36*
X88894Y46260D02*
X98441D01*
X98480Y46256D01*
X98518Y46245D01*
X98553Y46226D01*
X98583Y46201D01*
X101142Y43642D01*
X101167Y43612D01*
X101186Y43577D01*
X101197Y43539D01*
X101201Y43500D01*
Y41138D01*
X101197Y41099D01*
X101186Y41061D01*
X101167Y41026D01*
X101142Y40996D01*
X98583Y38437D01*
X98553Y38412D01*
X98518Y38393D01*
X98480Y38382D01*
X98441Y38378D01*
X88894D01*
X88854Y38382D01*
X88832Y38389D01*
X88817Y38393D01*
X88817Y38393D01*
X88817D01*
X88808Y38398D01*
X88782Y38412D01*
X88782Y38412D01*
X88782Y38412D01*
X88752Y38437D01*
X88752Y38437D01*
X88259Y38929D01*
X88259Y38929D01*
X88259Y38929D01*
X88246Y38945D01*
X88234Y38959D01*
X88234Y38959D01*
X88234Y38959D01*
X88227Y38973D01*
X88216Y38994D01*
X88216Y38994D01*
D01*
X88213Y39005D01*
X88204Y39031D01*
Y39031D01*
X88204Y39032D01*
X88202Y39055D01*
X88200Y39071D01*
Y39071D01*
Y39071D01*
X88200Y45567D01*
X88204Y45606D01*
X88216Y45644D01*
X88234Y45678D01*
X88259Y45709D01*
X88752Y46201D01*
X88782Y46226D01*
X88805Y46238D01*
X88817Y46245D01*
X88854Y46256D01*
X88894Y46260D01*
X88894Y46260D01*
D02*
G37*
D39*
X141842Y58787D02*
D03*
X136843D02*
D03*
X131843D02*
D03*
X126842D02*
D03*
X141842Y37528D02*
D03*
X136843D02*
D03*
X131843D02*
D03*
X126842D02*
D03*
X306137Y81474D02*
D03*
X311137D02*
D03*
X316137D02*
D03*
X321137D02*
D03*
X306137Y102733D02*
D03*
X311137D02*
D03*
X316137D02*
D03*
X321137D02*
D03*
D40*
X176755Y59000D02*
D03*
X183842D02*
D03*
D41*
X107799Y87400D02*
D03*
X120201D02*
D03*
X369968Y59604D02*
D03*
X357566D02*
D03*
X357929Y51370D02*
D03*
X370331D02*
D03*
X119701Y96000D02*
D03*
X107299D02*
D03*
D42*
X334882Y97000D02*
D03*
X340000D02*
D03*
X347382Y88500D02*
D03*
X352500D02*
D03*
X347382Y97000D02*
D03*
X352500D02*
D03*
X136902Y29158D02*
D03*
X131783D02*
D03*
X194059Y79000D02*
D03*
X188941D02*
D03*
X171559Y78500D02*
D03*
X166441D02*
D03*
X163000Y59000D02*
D03*
X168118D02*
D03*
X111441Y79500D02*
D03*
X116559D02*
D03*
X197559Y59000D02*
D03*
X192441D02*
D03*
D43*
X19712Y19685D02*
D03*
X259869D02*
D03*
Y358268D02*
D03*
X460656Y19685D02*
D03*
X19712Y358268D02*
D03*
X220499Y19685D02*
D03*
D44*
X82657Y49000D02*
D03*
X77342D02*
D03*
X386980Y65392D02*
D03*
X392295D02*
D03*
X298295Y89104D02*
D03*
X292980D02*
D03*
X340158Y88500D02*
D03*
X334842D02*
D03*
X298295Y96104D02*
D03*
X292980D02*
D03*
X316158Y73000D02*
D03*
X310842D02*
D03*
X134685Y88803D02*
D03*
X140000D02*
D03*
X325157Y49000D02*
D03*
X319843D02*
D03*
X428324Y157929D02*
D03*
X433639D02*
D03*
D45*
X102181Y36413D02*
D03*
Y48224D02*
D03*
X58000Y68811D02*
D03*
Y57000D02*
D03*
X338631Y69929D02*
D03*
Y58118D02*
D03*
D46*
X102969Y42319D02*
D03*
X337844Y64024D02*
D03*
D47*
X180299Y73150D02*
D03*
Y66850D02*
D03*
X418637Y77657D02*
D03*
Y71358D02*
D03*
X410767Y103157D02*
D03*
Y96858D02*
D03*
X378767Y58753D02*
D03*
Y52454D02*
D03*
D48*
X149343Y45500D02*
D03*
Y50815D02*
D03*
X327508Y95665D02*
D03*
Y90350D02*
D03*
X426137Y77507D02*
D03*
Y72192D02*
D03*
X66869Y74343D02*
D03*
Y79658D02*
D03*
X125343Y24500D02*
D03*
Y29815D02*
D03*
X165500Y72158D02*
D03*
Y66843D02*
D03*
X172500Y72158D02*
D03*
Y66843D02*
D03*
X93000Y98343D02*
D03*
Y103657D02*
D03*
X188000Y72158D02*
D03*
Y66843D02*
D03*
X195000Y72158D02*
D03*
Y66843D02*
D03*
D49*
X133760Y70185D02*
D03*
X137500D02*
D03*
X141240D02*
D03*
Y80815D02*
D03*
X133760D02*
D03*
D50*
X97597Y59674D02*
D03*
Y64674D02*
D03*
Y69674D02*
D03*
Y74674D02*
D03*
Y79674D02*
D03*
Y84674D02*
D03*
Y89674D02*
D03*
X76141Y59674D02*
D03*
Y64674D02*
D03*
Y69674D02*
D03*
Y74674D02*
D03*
Y79674D02*
D03*
Y84674D02*
D03*
Y89674D02*
D03*
X400495Y71604D02*
D03*
Y76604D02*
D03*
Y81603D02*
D03*
Y86603D02*
D03*
Y91603D02*
D03*
Y96604D02*
D03*
Y101603D02*
D03*
X379038Y71604D02*
D03*
Y76604D02*
D03*
Y81603D02*
D03*
Y86603D02*
D03*
Y91603D02*
D03*
Y96604D02*
D03*
Y101603D02*
D03*
D51*
X57213Y62906D02*
D03*
D52*
X329956Y58024D02*
D03*
X323657D02*
D03*
X329956Y70024D02*
D03*
X323657D02*
D03*
X341650Y81000D02*
D03*
X335350D02*
D03*
X110799Y48319D02*
D03*
X117098D02*
D03*
X110799Y36319D02*
D03*
X117098D02*
D03*
D53*
X442000Y65043D02*
D03*
Y57957D02*
D03*
X390368Y30503D02*
D03*
Y37589D02*
D03*
D54*
X149000Y72799D02*
D03*
Y85201D02*
D03*
D55*
X410767Y77162D02*
D03*
Y72044D02*
D03*
Y88162D02*
D03*
Y83044D02*
D03*
X423500Y63929D02*
D03*
Y58811D02*
D03*
X417500Y63929D02*
D03*
Y58811D02*
D03*
X367500Y95941D02*
D03*
Y101059D02*
D03*
X360500Y95941D02*
D03*
Y101059D02*
D03*
X435500Y63929D02*
D03*
Y58811D02*
D03*
X429500Y63929D02*
D03*
Y58811D02*
D03*
X358767Y72162D02*
D03*
Y67044D02*
D03*
X367500Y89059D02*
D03*
Y83941D02*
D03*
X411500Y63929D02*
D03*
Y58811D02*
D03*
X364767Y67044D02*
D03*
Y72163D02*
D03*
X405500Y63929D02*
D03*
Y58811D02*
D03*
X386767Y53044D02*
D03*
Y58163D02*
D03*
X143342Y29717D02*
D03*
Y24598D02*
D03*
X126500Y73941D02*
D03*
Y79059D02*
D03*
X81115Y103533D02*
D03*
Y98415D02*
D03*
X87000Y98441D02*
D03*
Y103559D02*
D03*
D56*
X54698Y21680D02*
D03*
X294909Y21654D02*
D03*
D57*
X54698Y46090D02*
D03*
X294909Y46063D02*
D03*
D58*
X73006Y34475D02*
D03*
X313216Y34449D02*
D03*
D59*
X400683Y17773D02*
D03*
X440053D02*
D03*
X199984Y17743D02*
D03*
X160614D02*
D03*
D60*
X440053Y37458D02*
D03*
X430210D02*
D03*
X400683D02*
D03*
X410525D02*
D03*
X420368Y17773D02*
D03*
X180299Y17743D02*
D03*
X170456Y37428D02*
D03*
X160614D02*
D03*
X190141D02*
D03*
X199984D02*
D03*
X52782Y197756D02*
D03*
X427612Y177756D02*
D03*
X292966Y177921D02*
D03*
Y327992D02*
D03*
X427612Y317992D02*
D03*
X52782Y337992D02*
D03*
X187428Y337992D02*
D03*
Y187756D02*
D03*
D61*
X49072Y87391D02*
D03*
X429500Y99500D02*
D03*
D62*
X49072Y97233D02*
D03*
X286334Y64507D02*
D03*
X429500Y89657D02*
D03*
D63*
X52782Y187756D02*
D03*
X427612Y187756D02*
D03*
X292966Y187921D02*
D03*
Y337992D02*
D03*
X427612Y327992D02*
D03*
X52782D02*
D03*
X187428Y327992D02*
D03*
Y177756D02*
D03*
D64*
X296177Y64507D02*
D03*
M02*
