G04*
G04 #@! TF.GenerationSoftware,Altium Limited,Altium Designer,23.10.1 (27)*
G04*
G04 Layer_Physical_Order=2*
G04 Layer_Color=16711680*
%FSLAX25Y25*%
%MOIN*%
G70*
G04*
G04 #@! TF.SameCoordinates,52E8BDB3-E784-467F-A169-E1E59ABD1491*
G04*
G04*
G04 #@! TF.FilePolarity,Positive*
G04*
G01*
G75*
%ADD65C,0.01200*%
%ADD66C,0.03937*%
%ADD68O,0.16535X0.06496*%
%ADD69O,0.15158X0.06496*%
%ADD70O,0.06496X0.15158*%
%ADD71C,0.07874*%
%ADD72R,0.06693X0.06693*%
%ADD73C,0.06693*%
%ADD74R,0.07874X0.07874*%
%ADD75R,0.06693X0.06693*%
G36*
X238189Y1020D02*
X141768Y1020D01*
Y4921D01*
X141690Y5311D01*
X141469Y5642D01*
X141138Y5863D01*
X140748Y5941D01*
X99410D01*
X99019Y5863D01*
X98689Y5642D01*
X98467Y5311D01*
X98390Y4921D01*
Y1020D01*
X1020D01*
X1020Y378902D01*
X238189D01*
Y1020D01*
D02*
G37*
G36*
X479295Y1020D02*
X381925Y1020D01*
Y4921D01*
X381847Y5311D01*
X381626Y5642D01*
X381296Y5863D01*
X380906Y5941D01*
X339567D01*
X339177Y5863D01*
X338846Y5642D01*
X338625Y5311D01*
X338547Y4921D01*
Y1020D01*
X242126D01*
Y378902D01*
X479295D01*
X479295Y1020D01*
D02*
G37*
%LPC*%
G36*
X183097Y370079D02*
X57113D01*
Y350492D01*
X57113Y350492D01*
X57113Y350492D01*
Y342101D01*
X56754Y341826D01*
X55913Y341561D01*
X55171Y342130D01*
X54019Y342607D01*
X52782Y342770D01*
X51546Y342607D01*
X50393Y342130D01*
X49404Y341371D01*
X48645Y340381D01*
X48167Y339229D01*
X48004Y337992D01*
X48167Y336755D01*
X48645Y335603D01*
X49404Y334614D01*
X50296Y333929D01*
X50297Y333795D01*
X49499Y332729D01*
X48045D01*
Y323255D01*
X57113D01*
Y317244D01*
X40105D01*
X40105Y317243D01*
Y207008D01*
X57113D01*
Y202092D01*
X55913Y201577D01*
X55272Y202068D01*
X54071Y202566D01*
X53282Y202670D01*
Y197756D01*
X52782D01*
Y197256D01*
X47869D01*
X47973Y196467D01*
X48470Y195266D01*
X49261Y194235D01*
X49707Y193893D01*
X49299Y192693D01*
X47845D01*
Y188256D01*
X52782D01*
Y187756D01*
X53282D01*
Y182819D01*
X57113D01*
Y165492D01*
Y139764D01*
X183097D01*
Y172819D01*
X186928D01*
Y177756D01*
X187428D01*
Y178256D01*
X192365D01*
Y182693D01*
X190911D01*
X190504Y183893D01*
X190949Y184235D01*
X191741Y185266D01*
X192238Y186467D01*
X192342Y187256D01*
X187428D01*
Y187756D01*
X186928D01*
Y192670D01*
X186139Y192566D01*
X184938Y192068D01*
X184297Y191577D01*
X183097Y192092D01*
Y199134D01*
X200105D01*
Y317244D01*
X183097D01*
Y323255D01*
X192165D01*
Y332729D01*
X190711D01*
X189913Y333795D01*
X189915Y333929D01*
X190806Y334614D01*
X191566Y335603D01*
X192043Y336755D01*
X192206Y337992D01*
X192043Y339229D01*
X191566Y340381D01*
X190806Y341371D01*
X189817Y342130D01*
X188665Y342607D01*
X187428Y342770D01*
X186191Y342607D01*
X185039Y342130D01*
X184297Y341561D01*
X183456Y341826D01*
X183097Y342101D01*
Y370079D01*
D02*
G37*
G36*
X52282Y202670D02*
X51494Y202566D01*
X50293Y202068D01*
X49261Y201277D01*
X48470Y200246D01*
X47973Y199045D01*
X47869Y198256D01*
X52282D01*
Y202670D01*
D02*
G37*
G36*
X187928Y192670D02*
Y188256D01*
X192342D01*
X192238Y189045D01*
X191741Y190246D01*
X190949Y191277D01*
X189918Y192068D01*
X188717Y192566D01*
X187928Y192670D01*
D02*
G37*
G36*
X52282Y187256D02*
X47845D01*
Y182819D01*
X52282D01*
Y187256D01*
D02*
G37*
G36*
X192365Y177256D02*
X187928D01*
Y172819D01*
X192365D01*
Y177256D01*
D02*
G37*
G36*
X49572Y101551D02*
Y97733D01*
X53390D01*
X53307Y98368D01*
X52869Y99425D01*
X52172Y100333D01*
X51264Y101030D01*
X50207Y101468D01*
X49572Y101551D01*
D02*
G37*
G36*
X48572Y101551D02*
X47938Y101468D01*
X46880Y101030D01*
X45972Y100333D01*
X45276Y99425D01*
X44838Y98368D01*
X44754Y97733D01*
X48572D01*
Y101551D01*
D02*
G37*
G36*
Y96733D02*
X44754D01*
X44838Y96099D01*
X45276Y95041D01*
X45972Y94133D01*
X46880Y93437D01*
X47938Y92999D01*
X48572Y92915D01*
Y96733D01*
D02*
G37*
G36*
X53390D02*
X49572D01*
Y92915D01*
X50207Y92999D01*
X51264Y93437D01*
X52172Y94133D01*
X52869Y95041D01*
X53307Y96099D01*
X53390Y96733D01*
D02*
G37*
G36*
X53219Y91537D02*
X44926D01*
Y83244D01*
X53219D01*
Y91537D01*
D02*
G37*
G36*
X70000Y100292D02*
X69277Y100197D01*
X68604Y99918D01*
X68025Y99475D01*
X67582Y98896D01*
X67303Y98223D01*
X67208Y97500D01*
X67303Y96777D01*
X67582Y96104D01*
X67735Y95904D01*
X67763Y95843D01*
X68103Y95367D01*
X68228Y95177D01*
X68436Y94818D01*
X68500Y94687D01*
X68546Y94574D01*
X68572Y94493D01*
X68573Y94490D01*
Y67794D01*
X68552Y67743D01*
X68501Y67641D01*
X68424Y67511D01*
X68329Y67368D01*
X67849Y66759D01*
X67759Y66657D01*
X67748Y66649D01*
X67724Y66618D01*
X67647Y66530D01*
X67616Y66477D01*
X67304Y66071D01*
X67026Y65397D01*
X66930Y64674D01*
X67026Y63952D01*
X67304Y63278D01*
X67748Y62700D01*
X68327Y62256D01*
X69000Y61977D01*
X69723Y61882D01*
X70446Y61977D01*
X71119Y62256D01*
X71697Y62700D01*
X72141Y63278D01*
X72420Y63952D01*
X72515Y64674D01*
X72420Y65397D01*
X72141Y66071D01*
X72098Y66127D01*
X72098Y66127D01*
X71820Y66598D01*
X71719Y66787D01*
X71549Y67150D01*
X71496Y67287D01*
X71456Y67410D01*
X71431Y67508D01*
X71427Y67530D01*
Y94490D01*
X71428Y94493D01*
X71450Y94562D01*
X71574Y94836D01*
X71650Y94975D01*
X72060Y95601D01*
X72232Y95835D01*
X72262Y95900D01*
X72418Y96104D01*
X72697Y96777D01*
X72792Y97500D01*
X72697Y98223D01*
X72418Y98896D01*
X71974Y99475D01*
X71396Y99918D01*
X70723Y100197D01*
X70000Y100292D01*
D02*
G37*
G36*
X59029Y50172D02*
X50368D01*
X49311Y50033D01*
X48326Y49625D01*
X47481Y48977D01*
X46832Y48131D01*
X46424Y47146D01*
X46285Y46090D01*
X46424Y45033D01*
X46832Y44048D01*
X47481Y43202D01*
X48326Y42553D01*
X49311Y42146D01*
X50368Y42006D01*
X59029D01*
X60086Y42146D01*
X61071Y42553D01*
X61916Y43202D01*
X62565Y44048D01*
X62973Y45033D01*
X63112Y46090D01*
X62973Y47146D01*
X62565Y48131D01*
X61916Y48977D01*
X61071Y49625D01*
X60086Y50033D01*
X59029Y50172D01*
D02*
G37*
G36*
X169956Y42342D02*
X169167Y42238D01*
X167966Y41741D01*
X166935Y40949D01*
X166144Y39918D01*
X166076Y39755D01*
X164777D01*
X164752Y39817D01*
X163992Y40806D01*
X163003Y41566D01*
X161850Y42043D01*
X160614Y42206D01*
X159377Y42043D01*
X158225Y41566D01*
X157235Y40806D01*
X156476Y39817D01*
X155999Y38665D01*
X155836Y37428D01*
X155999Y36191D01*
X156476Y35039D01*
X157235Y34050D01*
X158225Y33290D01*
X159377Y32813D01*
X160614Y32650D01*
X161850Y32813D01*
X163003Y33290D01*
X163992Y34050D01*
X164752Y35039D01*
X164777Y35101D01*
X166076D01*
X166144Y34938D01*
X166935Y33907D01*
X167966Y33116D01*
X169167Y32618D01*
X169956Y32514D01*
Y37428D01*
Y42342D01*
D02*
G37*
G36*
X199984Y42206D02*
X198747Y42043D01*
X197595Y41566D01*
X196605Y40806D01*
X195846Y39817D01*
X195712Y39493D01*
X194413D01*
X194279Y39817D01*
X193520Y40806D01*
X192530Y41566D01*
X191378Y42043D01*
X190141Y42206D01*
X188905Y42043D01*
X187752Y41566D01*
X186763Y40806D01*
X186003Y39817D01*
X185526Y38665D01*
X185363Y37428D01*
X185526Y36191D01*
X186003Y35039D01*
X186763Y34050D01*
X187752Y33290D01*
X188905Y32813D01*
X190141Y32650D01*
X191378Y32813D01*
X192530Y33290D01*
X193520Y34050D01*
X194279Y35039D01*
X194413Y35363D01*
X195712D01*
X195846Y35039D01*
X196605Y34050D01*
X197595Y33290D01*
X198747Y32813D01*
X199984Y32650D01*
X201220Y32813D01*
X202373Y33290D01*
X203362Y34050D01*
X204122Y35039D01*
X204599Y36191D01*
X204762Y37428D01*
X204599Y38665D01*
X204122Y39817D01*
X203362Y40806D01*
X202373Y41566D01*
X201220Y42043D01*
X199984Y42206D01*
D02*
G37*
G36*
X170956Y42342D02*
Y37928D01*
X175370D01*
X175266Y38717D01*
X174769Y39918D01*
X173977Y40949D01*
X172946Y41741D01*
X171745Y42238D01*
X170956Y42342D01*
D02*
G37*
G36*
X73506Y43025D02*
Y34975D01*
X77290D01*
Y38806D01*
X77144Y39915D01*
X76716Y40948D01*
X76035Y41836D01*
X75148Y42517D01*
X74115Y42945D01*
X73506Y43025D01*
D02*
G37*
G36*
X72506D02*
X71897Y42945D01*
X70863Y42517D01*
X69976Y41836D01*
X69295Y40948D01*
X68867Y39915D01*
X68721Y38806D01*
Y34975D01*
X72506D01*
Y43025D01*
D02*
G37*
G36*
X175370Y36928D02*
X170956D01*
Y32514D01*
X171745Y32618D01*
X172946Y33116D01*
X173977Y33907D01*
X174769Y34938D01*
X175266Y36139D01*
X175370Y36928D01*
D02*
G37*
G36*
X77290Y33975D02*
X73506D01*
Y25926D01*
X74115Y26006D01*
X75148Y26434D01*
X76035Y27115D01*
X76716Y28002D01*
X77144Y29036D01*
X77290Y30145D01*
Y33975D01*
D02*
G37*
G36*
X72506D02*
X68721D01*
Y30145D01*
X68867Y29036D01*
X69295Y28002D01*
X69976Y27115D01*
X70863Y26434D01*
X71897Y26006D01*
X72506Y25926D01*
Y33975D01*
D02*
G37*
G36*
X59718Y25965D02*
X55199D01*
Y22180D01*
X63937D01*
X63857Y22789D01*
X63429Y23822D01*
X62748Y24710D01*
X61861Y25391D01*
X60827Y25819D01*
X59718Y25965D01*
D02*
G37*
G36*
X54198D02*
X49679D01*
X48570Y25819D01*
X47537Y25391D01*
X46649Y24710D01*
X45968Y23822D01*
X45540Y22789D01*
X45460Y22180D01*
X54198D01*
Y25965D01*
D02*
G37*
G36*
X180799Y22657D02*
Y18243D01*
X185213D01*
X185109Y19032D01*
X184611Y20233D01*
X183820Y21264D01*
X182789Y22055D01*
X181588Y22553D01*
X180799Y22657D01*
D02*
G37*
G36*
X179799D02*
X179010Y22553D01*
X177809Y22055D01*
X176778Y21264D01*
X175986Y20233D01*
X175489Y19032D01*
X175385Y18243D01*
X179799D01*
Y22657D01*
D02*
G37*
G36*
X63937Y21180D02*
X55199D01*
Y17395D01*
X59718D01*
X60827Y17541D01*
X61861Y17969D01*
X62748Y18650D01*
X63429Y19538D01*
X63857Y20571D01*
X63937Y21180D01*
D02*
G37*
G36*
X54198D02*
X45460D01*
X45540Y20571D01*
X45968Y19538D01*
X46649Y18650D01*
X47537Y17969D01*
X48570Y17541D01*
X49679Y17395D01*
X54198D01*
Y21180D01*
D02*
G37*
G36*
X199984Y21528D02*
X199004Y21399D01*
X198091Y21021D01*
X197307Y20419D01*
X196706Y19636D01*
X196328Y18723D01*
X196199Y17743D01*
X196328Y16763D01*
X196706Y15850D01*
X197307Y15067D01*
X198091Y14465D01*
X199004Y14087D01*
X199984Y13958D01*
X200963Y14087D01*
X201876Y14465D01*
X202660Y15067D01*
X203262Y15850D01*
X203640Y16763D01*
X203769Y17743D01*
X203640Y18723D01*
X203262Y19636D01*
X202660Y20419D01*
X201876Y21021D01*
X200963Y21399D01*
X199984Y21528D01*
D02*
G37*
G36*
X160614D02*
X159634Y21399D01*
X158721Y21021D01*
X157937Y20419D01*
X157336Y19636D01*
X156958Y18723D01*
X156829Y17743D01*
X156958Y16763D01*
X157336Y15850D01*
X157937Y15067D01*
X158721Y14465D01*
X159634Y14087D01*
X160614Y13958D01*
X161593Y14087D01*
X162506Y14465D01*
X163290Y15067D01*
X163892Y15850D01*
X164270Y16763D01*
X164399Y17743D01*
X164270Y18723D01*
X163892Y19636D01*
X163290Y20419D01*
X162506Y21021D01*
X161593Y21399D01*
X160614Y21528D01*
D02*
G37*
G36*
X185213Y17243D02*
X180799D01*
Y12829D01*
X181588Y12933D01*
X182789Y13431D01*
X183820Y14222D01*
X184611Y15253D01*
X185109Y16454D01*
X185213Y17243D01*
D02*
G37*
G36*
X179799D02*
X175385D01*
X175489Y16454D01*
X175986Y15253D01*
X176778Y14222D01*
X177809Y13431D01*
X179010Y12933D01*
X179799Y12829D01*
Y17243D01*
D02*
G37*
%LPD*%
G36*
X71389Y96066D02*
X70951Y95395D01*
X70843Y95201D01*
X70688Y94855D01*
X70639Y94704D01*
X70610Y94567D01*
X70600Y94444D01*
X69400D01*
X69390Y94567D01*
X69361Y94704D01*
X69312Y94855D01*
X69244Y95021D01*
X69156Y95201D01*
X68923Y95604D01*
X68777Y95828D01*
X68426Y96318D01*
X71574D01*
X71389Y96066D01*
D02*
G37*
G36*
X70600Y67618D02*
X70608Y67486D01*
X70632Y67342D01*
X70671Y67184D01*
X70727Y67013D01*
X70799Y66829D01*
X70990Y66422D01*
X71109Y66199D01*
X71395Y65713D01*
X68259Y65991D01*
X68476Y66237D01*
X68989Y66889D01*
X69115Y67076D01*
X69217Y67250D01*
X69297Y67409D01*
X69354Y67553D01*
X69389Y67682D01*
X69400Y67797D01*
X70600Y67618D01*
D02*
G37*
%LPC*%
G36*
X292466Y342929D02*
X288029D01*
Y338492D01*
X292466D01*
Y342929D01*
D02*
G37*
G36*
X432549Y332929D02*
X428112D01*
Y328492D01*
X432549D01*
Y332929D01*
D02*
G37*
G36*
X292466Y327492D02*
X288053D01*
X288156Y326703D01*
X288654Y325502D01*
X289445Y324471D01*
X290477Y323680D01*
X291678Y323182D01*
X292466Y323078D01*
Y327492D01*
D02*
G37*
G36*
X423281Y370079D02*
X297297D01*
Y350256D01*
Y342929D01*
X293466D01*
Y337992D01*
X292966D01*
Y337492D01*
X288029D01*
Y333055D01*
X289483D01*
X289891Y331855D01*
X289445Y331513D01*
X288654Y330482D01*
X288156Y329281D01*
X288053Y328492D01*
X292966D01*
Y327992D01*
X293466D01*
Y323078D01*
X294255Y323182D01*
X295456Y323680D01*
X296097Y324171D01*
X297297Y323656D01*
Y316614D01*
X280289D01*
Y198504D01*
X297297D01*
Y192658D01*
X288229D01*
Y183184D01*
X289683D01*
X290481Y182118D01*
X290480Y181984D01*
X289588Y181300D01*
X288829Y180310D01*
X288351Y179158D01*
X288189Y177921D01*
X288351Y176685D01*
X288829Y175532D01*
X289588Y174543D01*
X290577Y173784D01*
X291730Y173306D01*
X292966Y173143D01*
X294203Y173306D01*
X295355Y173784D01*
X296097Y174353D01*
X296938Y174088D01*
X297297Y173812D01*
Y166339D01*
Y139764D01*
X423281D01*
Y165256D01*
Y173647D01*
X423640Y173922D01*
X424481Y174187D01*
X425223Y173618D01*
X426375Y173141D01*
X427612Y172978D01*
X428849Y173141D01*
X430001Y173618D01*
X430991Y174377D01*
X431750Y175367D01*
X432227Y176519D01*
X432390Y177756D01*
X432227Y178992D01*
X431750Y180145D01*
X430991Y181134D01*
X430098Y181819D01*
X430097Y181953D01*
X430895Y183019D01*
X432349D01*
Y192493D01*
X423281D01*
Y198504D01*
X440290D01*
X440289Y198505D01*
Y308740D01*
X423281D01*
Y313656D01*
X424481Y314171D01*
X425122Y313680D01*
X426323Y313182D01*
X427112Y313078D01*
Y317992D01*
X427612D01*
Y318492D01*
X432526D01*
X432422Y319281D01*
X431924Y320482D01*
X431133Y321513D01*
X430688Y321855D01*
X431095Y323055D01*
X432549D01*
Y327492D01*
X427612D01*
Y327992D01*
X427112D01*
Y332929D01*
X423281D01*
Y370079D01*
D02*
G37*
G36*
X432526Y317492D02*
X428112D01*
Y313078D01*
X428901Y313182D01*
X430102Y313680D01*
X431133Y314471D01*
X431924Y315502D01*
X432422Y316703D01*
X432526Y317492D01*
D02*
G37*
G36*
X433646Y103647D02*
X425353D01*
Y95354D01*
X433646D01*
Y103647D01*
D02*
G37*
G36*
X429500Y93840D02*
X428418Y93697D01*
X427409Y93279D01*
X426543Y92615D01*
X425878Y91749D01*
X425460Y90740D01*
X425318Y89657D01*
X425460Y88575D01*
X425878Y87566D01*
X426543Y86700D01*
X427409Y86036D01*
X428418Y85618D01*
X429500Y85475D01*
X430582Y85618D01*
X431591Y86036D01*
X432457Y86700D01*
X433122Y87566D01*
X433540Y88575D01*
X433682Y89657D01*
X433540Y90740D01*
X433122Y91749D01*
X432457Y92615D01*
X431591Y93279D01*
X430582Y93697D01*
X429500Y93840D01*
D02*
G37*
G36*
X392637Y112470D02*
X391915Y112375D01*
X391241Y112096D01*
X390663Y111652D01*
X390219Y111074D01*
X389940Y110400D01*
X389845Y109678D01*
X389940Y108955D01*
X390219Y108282D01*
X390373Y108081D01*
X390400Y108021D01*
X390741Y107545D01*
X390865Y107354D01*
X391073Y106995D01*
X391137Y106865D01*
X391183Y106752D01*
X391209Y106671D01*
X391210Y106668D01*
Y84614D01*
X391209Y84610D01*
X391187Y84542D01*
X391063Y84267D01*
X390987Y84129D01*
X390578Y83503D01*
X390406Y83268D01*
X390375Y83204D01*
X390219Y83000D01*
X389940Y82326D01*
X389845Y81603D01*
X389940Y80881D01*
X390219Y80207D01*
X390663Y79629D01*
X391241Y79185D01*
X391915Y78906D01*
X392637Y78811D01*
X393360Y78906D01*
X394034Y79185D01*
X394612Y79629D01*
X395056Y80207D01*
X395335Y80881D01*
X395430Y81603D01*
X395335Y82326D01*
X395056Y83000D01*
X394902Y83200D01*
X394875Y83260D01*
X394534Y83736D01*
X394409Y83927D01*
X394201Y84286D01*
X394138Y84417D01*
X394092Y84529D01*
X394065Y84610D01*
X394065Y84614D01*
Y106668D01*
X394065Y106671D01*
X394088Y106739D01*
X394211Y107014D01*
X394288Y107153D01*
X394697Y107779D01*
X394869Y108013D01*
X394899Y108078D01*
X395056Y108282D01*
X395335Y108955D01*
X395430Y109678D01*
X395335Y110400D01*
X395056Y111074D01*
X394612Y111652D01*
X394034Y112096D01*
X393360Y112375D01*
X392637Y112470D01*
D02*
G37*
G36*
X373000Y104292D02*
X372277Y104197D01*
X371604Y103918D01*
X371025Y103474D01*
X370582Y102896D01*
X370303Y102223D01*
X370208Y101500D01*
X370303Y100777D01*
X370511Y100276D01*
X370522Y100232D01*
X370573Y100126D01*
X370582Y100104D01*
X370585Y100099D01*
X370838Y99570D01*
X370904Y99409D01*
X371015Y99080D01*
X371047Y98959D01*
X371069Y98847D01*
X371073Y98817D01*
Y75010D01*
X371072Y75007D01*
X371050Y74938D01*
X370926Y74664D01*
X370850Y74525D01*
X370440Y73899D01*
X370268Y73665D01*
X370238Y73600D01*
X370082Y73396D01*
X369803Y72723D01*
X369708Y72000D01*
X369803Y71277D01*
X370082Y70604D01*
X370526Y70025D01*
X371104Y69582D01*
X371777Y69303D01*
X372500Y69208D01*
X373223Y69303D01*
X373896Y69582D01*
X374475Y70025D01*
X374918Y70604D01*
X375197Y71277D01*
X375292Y72000D01*
X375197Y72723D01*
X374918Y73396D01*
X374765Y73596D01*
X374737Y73657D01*
X374397Y74133D01*
X374272Y74323D01*
X374064Y74682D01*
X374000Y74813D01*
X373954Y74926D01*
X373928Y75007D01*
X373927Y75010D01*
Y98323D01*
X373938Y98347D01*
X373992Y98439D01*
X374075Y98560D01*
X374180Y98696D01*
X374712Y99279D01*
X374921Y99484D01*
X374974Y99525D01*
X375418Y100104D01*
X375697Y100777D01*
X375792Y101500D01*
X375697Y102223D01*
X375418Y102896D01*
X374974Y103474D01*
X374396Y103918D01*
X373723Y104197D01*
X373000Y104292D01*
D02*
G37*
G36*
X286834Y68826D02*
Y65007D01*
X290652D01*
X290568Y65642D01*
X290131Y66699D01*
X289434Y67607D01*
X288526Y68304D01*
X287469Y68742D01*
X286834Y68826D01*
D02*
G37*
G36*
X285834D02*
X285199Y68742D01*
X284142Y68304D01*
X283234Y67607D01*
X282537Y66699D01*
X282099Y65642D01*
X282016Y65007D01*
X285834D01*
Y68826D01*
D02*
G37*
G36*
X386567Y89396D02*
X385845Y89301D01*
X385171Y89022D01*
X384593Y88578D01*
X384149Y88000D01*
X383870Y87326D01*
X383837Y87076D01*
X383814Y87014D01*
X383718Y86436D01*
X383672Y86214D01*
X383565Y85813D01*
X383517Y85675D01*
X383471Y85563D01*
X383432Y85487D01*
X383430Y85484D01*
X380491Y82545D01*
X380181Y82082D01*
X380073Y81536D01*
X380073Y81536D01*
Y68510D01*
X380072Y68507D01*
X380050Y68438D01*
X379926Y68164D01*
X379850Y68025D01*
X379440Y67399D01*
X379268Y67165D01*
X379238Y67100D01*
X379082Y66896D01*
X378803Y66223D01*
X378708Y65500D01*
X378803Y64777D01*
X379082Y64104D01*
X379525Y63525D01*
X380104Y63082D01*
X380777Y62803D01*
X381500Y62708D01*
X382223Y62803D01*
X382896Y63082D01*
X383474Y63525D01*
X383918Y64104D01*
X384197Y64777D01*
X384292Y65500D01*
X384197Y66223D01*
X383918Y66896D01*
X383765Y67096D01*
X383737Y67157D01*
X383397Y67633D01*
X383272Y67823D01*
X383064Y68182D01*
X383000Y68313D01*
X382954Y68426D01*
X382928Y68507D01*
X382927Y68510D01*
Y80945D01*
X385449Y83466D01*
X385451Y83468D01*
X385515Y83500D01*
X385797Y83607D01*
X385949Y83651D01*
X386681Y83804D01*
X386968Y83848D01*
X387035Y83873D01*
X387290Y83906D01*
X387964Y84185D01*
X388542Y84629D01*
X388986Y85207D01*
X389265Y85881D01*
X389360Y86603D01*
X389265Y87326D01*
X388986Y88000D01*
X388542Y88578D01*
X387964Y89022D01*
X387290Y89301D01*
X386567Y89396D01*
D02*
G37*
G36*
X300323Y68654D02*
X292030D01*
Y60361D01*
X300323D01*
Y68654D01*
D02*
G37*
G36*
X290652Y64007D02*
X286834D01*
Y60189D01*
X287469Y60273D01*
X288526Y60711D01*
X289434Y61407D01*
X290131Y62315D01*
X290568Y63373D01*
X290652Y64007D01*
D02*
G37*
G36*
X285834D02*
X282016D01*
X282099Y63373D01*
X282537Y62315D01*
X283234Y61407D01*
X284142Y60711D01*
X285199Y60273D01*
X285834Y60189D01*
Y64007D01*
D02*
G37*
G36*
X435500Y57162D02*
X434777Y57067D01*
X434104Y56788D01*
X433904Y56635D01*
X433843Y56608D01*
X433367Y56267D01*
X433177Y56142D01*
X432818Y55934D01*
X432687Y55870D01*
X432575Y55824D01*
X432493Y55798D01*
X432490Y55797D01*
X426510D01*
X426507Y55798D01*
X426438Y55820D01*
X426164Y55944D01*
X426025Y56020D01*
X425399Y56430D01*
X425165Y56602D01*
X425100Y56632D01*
X424896Y56788D01*
X424223Y57067D01*
X423500Y57162D01*
X422777Y57067D01*
X422104Y56788D01*
X421904Y56635D01*
X421843Y56608D01*
X421367Y56267D01*
X421176Y56142D01*
X420818Y55934D01*
X420687Y55870D01*
X420575Y55824D01*
X420493Y55798D01*
X420490Y55797D01*
X414510D01*
X414507Y55798D01*
X414438Y55820D01*
X414164Y55944D01*
X414025Y56020D01*
X413399Y56430D01*
X413165Y56602D01*
X413100Y56632D01*
X412896Y56788D01*
X412223Y57067D01*
X411500Y57162D01*
X410777Y57067D01*
X410104Y56788D01*
X409525Y56345D01*
X409082Y55766D01*
X408803Y55093D01*
X408770Y54843D01*
X408746Y54781D01*
X408651Y54203D01*
X408604Y53980D01*
X408497Y53579D01*
X408450Y53442D01*
X408403Y53330D01*
X408364Y53254D01*
X408362Y53251D01*
X399737Y44625D01*
X399427Y44162D01*
X399385Y43949D01*
X396889Y40319D01*
X396866Y40265D01*
X396545Y39847D01*
X396068Y38695D01*
X395905Y37458D01*
X396068Y36222D01*
X396545Y35069D01*
X397304Y34080D01*
X398294Y33320D01*
X399446Y32843D01*
X400683Y32680D01*
X401920Y32843D01*
X403072Y33320D01*
X404061Y34080D01*
X404821Y35069D01*
X404955Y35393D01*
X406254D01*
X406388Y35069D01*
X407147Y34080D01*
X408137Y33320D01*
X409289Y32843D01*
X410525Y32680D01*
X411762Y32843D01*
X412914Y33320D01*
X413904Y34080D01*
X414663Y35069D01*
X415140Y36222D01*
X415303Y37458D01*
X415140Y38695D01*
X414663Y39847D01*
X413904Y40837D01*
X412914Y41596D01*
X411762Y42073D01*
X410525Y42236D01*
X409289Y42073D01*
X408137Y41596D01*
X407147Y40837D01*
X406388Y39847D01*
X406254Y39523D01*
X404955D01*
X404821Y39847D01*
X404540Y40213D01*
X404511Y40274D01*
X404040Y40918D01*
X402654Y42900D01*
X402422Y43273D01*
X410381Y51232D01*
X410384Y51234D01*
X410448Y51267D01*
X410729Y51374D01*
X410881Y51418D01*
X411614Y51571D01*
X411901Y51615D01*
X411968Y51639D01*
X412223Y51673D01*
X412896Y51952D01*
X413096Y52105D01*
X413157Y52133D01*
X413633Y52473D01*
X413824Y52598D01*
X414182Y52806D01*
X414313Y52870D01*
X414426Y52916D01*
X414507Y52942D01*
X414510Y52943D01*
X420490D01*
X420493Y52942D01*
X420562Y52920D01*
X420836Y52796D01*
X420975Y52720D01*
X421601Y52311D01*
X421835Y52138D01*
X421900Y52108D01*
X422104Y51952D01*
X422777Y51673D01*
X423500Y51578D01*
X424223Y51673D01*
X424896Y51952D01*
X425096Y52105D01*
X425157Y52133D01*
X425633Y52473D01*
X425823Y52598D01*
X426182Y52806D01*
X426313Y52870D01*
X426426Y52916D01*
X426507Y52942D01*
X426510Y52943D01*
X432490D01*
X432493Y52942D01*
X432562Y52920D01*
X432836Y52796D01*
X432975Y52720D01*
X433601Y52311D01*
X433835Y52138D01*
X433900Y52108D01*
X434104Y51952D01*
X434777Y51673D01*
X435500Y51578D01*
X436223Y51673D01*
X436896Y51952D01*
X437474Y52396D01*
X437918Y52974D01*
X438197Y53647D01*
X438292Y54370D01*
X438197Y55093D01*
X437918Y55766D01*
X437474Y56345D01*
X436896Y56788D01*
X436223Y57067D01*
X435500Y57162D01*
D02*
G37*
G36*
X299240Y50146D02*
X290578D01*
X289522Y50007D01*
X288537Y49599D01*
X287691Y48950D01*
X287042Y48105D01*
X286634Y47120D01*
X286495Y46063D01*
X286634Y45006D01*
X287042Y44021D01*
X287691Y43176D01*
X288537Y42527D01*
X289522Y42119D01*
X290578Y41980D01*
X299240D01*
X300296Y42119D01*
X301281Y42527D01*
X302127Y43176D01*
X302776Y44021D01*
X303184Y45006D01*
X303323Y46063D01*
X303184Y47120D01*
X302776Y48105D01*
X302127Y48950D01*
X301281Y49599D01*
X300296Y50007D01*
X299240Y50146D01*
D02*
G37*
G36*
X440053Y42236D02*
X438816Y42073D01*
X437664Y41596D01*
X436674Y40837D01*
X435915Y39847D01*
X435781Y39523D01*
X434482D01*
X434348Y39847D01*
X433589Y40837D01*
X432599Y41596D01*
X431447Y42073D01*
X430210Y42236D01*
X428974Y42073D01*
X427821Y41596D01*
X426832Y40837D01*
X426073Y39847D01*
X425595Y38695D01*
X425433Y37458D01*
X425595Y36222D01*
X426073Y35069D01*
X426832Y34080D01*
X427821Y33320D01*
X428974Y32843D01*
X430210Y32680D01*
X431447Y32843D01*
X432599Y33320D01*
X433589Y34080D01*
X434348Y35069D01*
X434482Y35393D01*
X435781D01*
X435915Y35069D01*
X436674Y34080D01*
X437664Y33320D01*
X438816Y32843D01*
X440053Y32680D01*
X441290Y32843D01*
X442442Y33320D01*
X443432Y34080D01*
X444191Y35069D01*
X444668Y36222D01*
X444831Y37458D01*
X444668Y38695D01*
X444191Y39847D01*
X443432Y40837D01*
X442442Y41596D01*
X441290Y42073D01*
X440053Y42236D01*
D02*
G37*
G36*
X313716Y42998D02*
Y34949D01*
X317501D01*
Y38780D01*
X317355Y39889D01*
X316927Y40922D01*
X316246Y41809D01*
X315358Y42490D01*
X314325Y42918D01*
X313716Y42998D01*
D02*
G37*
G36*
X312716D02*
X312107Y42918D01*
X311074Y42490D01*
X310186Y41809D01*
X309505Y40922D01*
X309077Y39889D01*
X308931Y38780D01*
Y34949D01*
X312716D01*
Y42998D01*
D02*
G37*
G36*
Y33949D02*
X308931D01*
Y30118D01*
X309077Y29009D01*
X309505Y27976D01*
X310186Y27088D01*
X311074Y26408D01*
X312107Y25979D01*
X312716Y25899D01*
Y33949D01*
D02*
G37*
G36*
X317501D02*
X313716D01*
Y25899D01*
X314325Y25979D01*
X315358Y26408D01*
X316246Y27088D01*
X316927Y27976D01*
X317355Y29009D01*
X317501Y30118D01*
Y33949D01*
D02*
G37*
G36*
X299929Y25938D02*
X295409D01*
Y22154D01*
X304148D01*
X304067Y22762D01*
X303639Y23796D01*
X302958Y24683D01*
X302071Y25364D01*
X301038Y25792D01*
X299929Y25938D01*
D02*
G37*
G36*
X294409D02*
X289889D01*
X288780Y25792D01*
X287747Y25364D01*
X286860Y24683D01*
X286179Y23796D01*
X285751Y22762D01*
X285670Y22154D01*
X294409D01*
Y25938D01*
D02*
G37*
G36*
X420868Y22687D02*
Y18273D01*
X425282D01*
X425178Y19062D01*
X424680Y20263D01*
X423889Y21294D01*
X422858Y22085D01*
X421657Y22583D01*
X420868Y22687D01*
D02*
G37*
G36*
X419868D02*
X419079Y22583D01*
X417878Y22085D01*
X416847Y21294D01*
X416055Y20263D01*
X415558Y19062D01*
X415454Y18273D01*
X419868D01*
Y22687D01*
D02*
G37*
G36*
X304148Y21154D02*
X295409D01*
Y17369D01*
X299929D01*
X301038Y17515D01*
X302071Y17943D01*
X302958Y18624D01*
X303639Y19511D01*
X304067Y20545D01*
X304148Y21154D01*
D02*
G37*
G36*
X294409D02*
X285670D01*
X285751Y20545D01*
X286179Y19511D01*
X286860Y18624D01*
X287747Y17943D01*
X288780Y17515D01*
X289889Y17369D01*
X294409D01*
Y21154D01*
D02*
G37*
G36*
X440053Y21558D02*
X439073Y21429D01*
X438160Y21051D01*
X437376Y20449D01*
X436775Y19666D01*
X436397Y18753D01*
X436268Y17773D01*
X436397Y16793D01*
X436775Y15880D01*
X437376Y15097D01*
X438160Y14495D01*
X439073Y14117D01*
X440053Y13988D01*
X441033Y14117D01*
X441946Y14495D01*
X442730Y15097D01*
X443331Y15880D01*
X443709Y16793D01*
X443838Y17773D01*
X443709Y18753D01*
X443331Y19666D01*
X442730Y20449D01*
X441946Y21051D01*
X441033Y21429D01*
X440053Y21558D01*
D02*
G37*
G36*
X400683D02*
X399703Y21429D01*
X398790Y21051D01*
X398006Y20449D01*
X397405Y19666D01*
X397027Y18753D01*
X396898Y17773D01*
X397027Y16793D01*
X397405Y15880D01*
X398006Y15097D01*
X398790Y14495D01*
X399703Y14117D01*
X400683Y13988D01*
X401663Y14117D01*
X402575Y14495D01*
X403359Y15097D01*
X403961Y15880D01*
X404339Y16793D01*
X404468Y17773D01*
X404339Y18753D01*
X403961Y19666D01*
X403359Y20449D01*
X402575Y21051D01*
X401663Y21429D01*
X400683Y21558D01*
D02*
G37*
G36*
X425282Y17273D02*
X420868D01*
Y12859D01*
X421657Y12963D01*
X422858Y13461D01*
X423889Y14252D01*
X424680Y15283D01*
X425178Y16484D01*
X425282Y17273D01*
D02*
G37*
G36*
X419868D02*
X415454D01*
X415558Y16484D01*
X416055Y15283D01*
X416847Y14252D01*
X417878Y13461D01*
X419079Y12963D01*
X419868Y12859D01*
Y17273D01*
D02*
G37*
%LPD*%
G36*
X394026Y108243D02*
X393588Y107573D01*
X393481Y107379D01*
X393325Y107033D01*
X393276Y106881D01*
X393247Y106744D01*
X393237Y106622D01*
X392037D01*
X392028Y106744D01*
X391998Y106881D01*
X391950Y107033D01*
X391881Y107199D01*
X391794Y107379D01*
X391560Y107782D01*
X391414Y108006D01*
X391063Y108496D01*
X394211D01*
X394026Y108243D01*
D02*
G37*
G36*
X393247Y84537D02*
X393276Y84400D01*
X393325Y84249D01*
X393393Y84083D01*
X393481Y83903D01*
X393715Y83499D01*
X393861Y83276D01*
X394211Y82786D01*
X391063D01*
X391248Y83038D01*
X391687Y83708D01*
X391794Y83903D01*
X391950Y84249D01*
X391998Y84400D01*
X392028Y84537D01*
X392037Y84659D01*
X393237D01*
X393247Y84537D01*
D02*
G37*
G36*
X374364Y100081D02*
X374124Y99845D01*
X373555Y99221D01*
X373416Y99041D01*
X373302Y98875D01*
X373214Y98724D01*
X373151Y98586D01*
X373113Y98462D01*
X373100Y98353D01*
X371900Y98686D01*
X371894Y98827D01*
X371874Y98978D01*
X371842Y99141D01*
X371797Y99314D01*
X371669Y99694D01*
X371585Y99900D01*
X371257Y100584D01*
X374364Y100081D01*
D02*
G37*
G36*
X373110Y74933D02*
X373139Y74796D01*
X373188Y74645D01*
X373256Y74479D01*
X373343Y74299D01*
X373577Y73896D01*
X373723Y73672D01*
X374074Y73182D01*
X370926D01*
X371111Y73434D01*
X371549Y74104D01*
X371656Y74299D01*
X371812Y74645D01*
X371861Y74796D01*
X371890Y74933D01*
X371900Y75056D01*
X373100D01*
X373110Y74933D01*
D02*
G37*
G36*
X386845Y84655D02*
X386536Y84607D01*
X385752Y84443D01*
X385538Y84381D01*
X385183Y84247D01*
X385042Y84174D01*
X384924Y84098D01*
X384831Y84018D01*
X383982Y84867D01*
X384062Y84960D01*
X384138Y85078D01*
X384211Y85219D01*
X384280Y85385D01*
X384345Y85574D01*
X384465Y86025D01*
X384520Y86286D01*
X384619Y86881D01*
X386845Y84655D01*
D02*
G37*
G36*
X382110Y68433D02*
X382139Y68296D01*
X382188Y68145D01*
X382256Y67979D01*
X382344Y67799D01*
X382577Y67396D01*
X382723Y67172D01*
X383074Y66682D01*
X379926D01*
X380111Y66934D01*
X380549Y67605D01*
X380657Y67799D01*
X380812Y68145D01*
X380861Y68296D01*
X380890Y68433D01*
X380900Y68556D01*
X382100D01*
X382110Y68433D01*
D02*
G37*
G36*
X434318Y52796D02*
X434066Y52981D01*
X433395Y53419D01*
X433201Y53527D01*
X432855Y53682D01*
X432704Y53731D01*
X432567Y53760D01*
X432444Y53770D01*
Y54970D01*
X432567Y54980D01*
X432704Y55009D01*
X432855Y55058D01*
X433021Y55126D01*
X433201Y55214D01*
X433604Y55447D01*
X433828Y55594D01*
X434318Y55944D01*
Y52796D01*
D02*
G37*
G36*
X424934Y55759D02*
X425604Y55321D01*
X425799Y55214D01*
X426145Y55058D01*
X426296Y55009D01*
X426433Y54980D01*
X426556Y54970D01*
Y53770D01*
X426433Y53760D01*
X426296Y53731D01*
X426145Y53682D01*
X425979Y53614D01*
X425799Y53527D01*
X425395Y53293D01*
X425172Y53147D01*
X424682Y52796D01*
Y55944D01*
X424934Y55759D01*
D02*
G37*
G36*
X422318Y52796D02*
X422066Y52981D01*
X421395Y53419D01*
X421201Y53527D01*
X420855Y53682D01*
X420704Y53731D01*
X420567Y53760D01*
X420444Y53770D01*
Y54970D01*
X420567Y54980D01*
X420704Y55009D01*
X420855Y55058D01*
X421021Y55126D01*
X421201Y55214D01*
X421604Y55447D01*
X421828Y55594D01*
X422318Y55944D01*
Y52796D01*
D02*
G37*
G36*
X412934Y55759D02*
X413604Y55321D01*
X413799Y55214D01*
X414145Y55058D01*
X414296Y55009D01*
X414433Y54980D01*
X414556Y54970D01*
Y53770D01*
X414433Y53760D01*
X414296Y53731D01*
X414145Y53682D01*
X413979Y53614D01*
X413799Y53527D01*
X413396Y53293D01*
X413172Y53147D01*
X412682Y52796D01*
Y55944D01*
X412934Y55759D01*
D02*
G37*
G36*
X411777Y52421D02*
X411468Y52374D01*
X410684Y52210D01*
X410471Y52148D01*
X410116Y52013D01*
X409974Y51941D01*
X409857Y51865D01*
X409763Y51785D01*
X408915Y52634D01*
X408995Y52727D01*
X409071Y52845D01*
X409143Y52986D01*
X409212Y53151D01*
X409278Y53341D01*
X409398Y53791D01*
X409453Y54053D01*
X409551Y54647D01*
X411777Y52421D01*
D02*
G37*
G36*
X401371Y43502D02*
X401446Y43329D01*
X401572Y43096D01*
X401973Y42451D01*
X403377Y40444D01*
X403853Y39793D01*
X397561Y39857D01*
X400146Y43616D01*
X401346D01*
X401371Y43502D01*
D02*
G37*
D65*
X70000Y64952D02*
Y97500D01*
X69723Y64674D02*
X70000Y64952D01*
X372500Y72000D02*
Y101000D01*
X373000Y101500D01*
X381500Y81536D02*
X386567Y86603D01*
X381500Y65500D02*
Y81536D01*
X400746Y43616D02*
X411500Y54370D01*
X400746Y37521D02*
Y43616D01*
X400683Y37458D02*
X400746Y37521D01*
X411500Y54370D02*
X423500D01*
X435500D01*
X392637Y81603D02*
Y109678D01*
D66*
X88000Y64500D02*
D03*
X166441Y83941D02*
D03*
X172500Y59000D02*
D03*
X104500Y75000D02*
D03*
X69723Y64674D02*
D03*
X372500Y72000D02*
D03*
X111000Y42500D02*
D03*
X330000Y64000D02*
D03*
X324000D02*
D03*
X120000Y24000D02*
D03*
X401575Y51181D02*
D03*
X358268Y31496D02*
D03*
X381500Y65500D02*
D03*
X373000Y101500D02*
D03*
X145000Y89500D02*
D03*
X117000Y42500D02*
D03*
X98500Y98000D02*
D03*
X70000Y97500D02*
D03*
X66500Y85000D02*
D03*
X319500Y92000D02*
D03*
X326500Y80000D02*
D03*
X310500Y88000D02*
D03*
X352630Y81370D02*
D03*
X149343Y55062D02*
D03*
X19658Y49239D02*
D03*
Y88609D02*
D03*
Y127979D02*
D03*
Y167349D02*
D03*
Y206719D02*
D03*
Y246090D02*
D03*
Y285460D02*
D03*
Y324830D02*
D03*
X59029Y131917D02*
D03*
Y118137D02*
D03*
X88556D02*
D03*
Y131917D02*
D03*
X118084D02*
D03*
Y118137D02*
D03*
X147611D02*
D03*
Y131917D02*
D03*
X177139D02*
D03*
Y118137D02*
D03*
X216509Y324830D02*
D03*
Y285460D02*
D03*
Y246090D02*
D03*
Y206719D02*
D03*
Y167349D02*
D03*
X224385Y88609D02*
D03*
Y49239D02*
D03*
X59029Y374043D02*
D03*
X88556D02*
D03*
X118084D02*
D03*
X147611D02*
D03*
X177139D02*
D03*
X417349D02*
D03*
X387822D02*
D03*
X358294D02*
D03*
X328767D02*
D03*
X299239D02*
D03*
X304197Y94881D02*
D03*
X456849Y50583D02*
D03*
Y89953D02*
D03*
X456719Y167323D02*
D03*
Y206693D02*
D03*
Y246063D02*
D03*
Y285433D02*
D03*
Y324803D02*
D03*
X417479Y119480D02*
D03*
X417349Y131917D02*
D03*
X387822D02*
D03*
X387952Y119480D02*
D03*
X358424D02*
D03*
X358294Y131917D02*
D03*
X328767D02*
D03*
X328897Y119480D02*
D03*
X299369D02*
D03*
X299239Y131917D02*
D03*
X259869Y324803D02*
D03*
Y285433D02*
D03*
Y246063D02*
D03*
Y206693D02*
D03*
Y167323D02*
D03*
Y127953D02*
D03*
Y88583D02*
D03*
Y49213D02*
D03*
X405041Y86603D02*
D03*
X392295Y58007D02*
D03*
X423500Y54370D02*
D03*
X435500D02*
D03*
X411500D02*
D03*
X392637Y109678D02*
D03*
Y81603D02*
D03*
X386567Y86603D02*
D03*
D68*
X54698Y21680D02*
D03*
X294909Y21654D02*
D03*
D69*
X54698Y46090D02*
D03*
X294909Y46063D02*
D03*
D70*
X73006Y34475D02*
D03*
X313216Y34449D02*
D03*
D71*
X440053Y37458D02*
D03*
X430210D02*
D03*
X400683D02*
D03*
X410525D02*
D03*
X420368Y17773D02*
D03*
X180299Y17743D02*
D03*
X170456Y37428D02*
D03*
X160614D02*
D03*
X190141D02*
D03*
X199984D02*
D03*
X52782Y197756D02*
D03*
X427612Y177756D02*
D03*
X292966Y177921D02*
D03*
Y327992D02*
D03*
X427612Y317992D02*
D03*
X52782Y337992D02*
D03*
X187428Y337992D02*
D03*
Y187756D02*
D03*
D72*
X49072Y87391D02*
D03*
X429500Y99500D02*
D03*
D73*
X49072Y97233D02*
D03*
X286334Y64507D02*
D03*
X429500Y89657D02*
D03*
D74*
X52782Y187756D02*
D03*
X427612Y187756D02*
D03*
X292966Y187921D02*
D03*
Y337992D02*
D03*
X427612Y327992D02*
D03*
X52782D02*
D03*
X187428Y327992D02*
D03*
Y177756D02*
D03*
D75*
X296177Y64507D02*
D03*
M02*
