G04*
G04 #@! TF.GenerationSoftware,Altium Limited,Altium Designer,23.10.1 (27)*
G04*
G04 Layer_Color=8421504*
%FSLAX25Y25*%
%MOIN*%
G70*
G04*
G04 #@! TF.SameCoordinates,52E8BDB3-E784-467F-A169-E1E59ABD1491*
G04*
G04*
G04 #@! TF.FilePolarity,Positive*
G04*
G01*
G75*
%ADD21R,0.05118X0.07087*%
%ADD22R,0.04724X0.04724*%
%ADD23R,0.02362X0.06102*%
%ADD24R,0.03150X0.01968*%
%ADD25R,0.03543X0.03740*%
%ADD26R,0.03347X0.03740*%
%ADD27R,0.03543X0.03937*%
%ADD28R,0.05512X0.02362*%
%ADD29R,0.03937X0.02362*%
%ADD30R,0.05512X0.05118*%
%ADD31R,0.03937X0.03543*%
%ADD32R,0.01968X0.03937*%
%ADD33R,0.05709X0.02362*%
%ADD34R,0.07087X0.02362*%
%ADD35R,0.05118X0.05512*%
%ADD36R,0.01968X0.03150*%
%ADD37R,0.03740X0.03543*%
%ADD38R,0.03740X0.03347*%
G36*
X101000Y43500D02*
Y41138D01*
X98441Y38579D01*
X88894D01*
X88402Y39071D01*
X88401Y45567D01*
X88894Y46059D01*
X98441D01*
X101000Y43500D01*
D02*
G37*
G36*
X352411Y67272D02*
X352411Y60776D01*
X351919Y60284D01*
X342372D01*
X339812Y62843D01*
Y65205D01*
X342372Y67764D01*
X351919D01*
X352411Y67272D01*
D02*
G37*
D21*
X44024Y62906D02*
D03*
D22*
X49732Y62906D02*
D03*
D23*
X141842Y58787D02*
D03*
X136843D02*
D03*
X131843D02*
D03*
X126842D02*
D03*
X141842Y37528D02*
D03*
X136843D02*
D03*
X131843D02*
D03*
X126842D02*
D03*
X306137Y81474D02*
D03*
X311137D02*
D03*
X316137D02*
D03*
X321137D02*
D03*
X306137Y102733D02*
D03*
X311137D02*
D03*
X316137D02*
D03*
X321137D02*
D03*
D24*
X176755Y59000D02*
D03*
X183842D02*
D03*
D25*
X107799Y87400D02*
D03*
X120201D02*
D03*
X369968Y59604D02*
D03*
X357566D02*
D03*
X357929Y51370D02*
D03*
X370331D02*
D03*
X119701Y96000D02*
D03*
X107299D02*
D03*
D26*
X334882Y97000D02*
D03*
X340000D02*
D03*
X347382Y88500D02*
D03*
X352500D02*
D03*
X347382Y97000D02*
D03*
X352500D02*
D03*
X136902Y29158D02*
D03*
X131783D02*
D03*
X194059Y79000D02*
D03*
X188941D02*
D03*
X171559Y78500D02*
D03*
X166441D02*
D03*
X163000Y59000D02*
D03*
X168118D02*
D03*
X111441Y79500D02*
D03*
X116559D02*
D03*
X197559Y59000D02*
D03*
X192441D02*
D03*
D27*
X82657Y49000D02*
D03*
X77342D02*
D03*
X386980Y65392D02*
D03*
X392295D02*
D03*
X298295Y89104D02*
D03*
X292980D02*
D03*
X340158Y88500D02*
D03*
X334842D02*
D03*
X298295Y96104D02*
D03*
X292980D02*
D03*
X316158Y73000D02*
D03*
X310842D02*
D03*
X134685Y88803D02*
D03*
X140000D02*
D03*
X325157Y49000D02*
D03*
X319843D02*
D03*
X428324Y157929D02*
D03*
X433639D02*
D03*
D28*
X102181Y36413D02*
D03*
Y48224D02*
D03*
X58000Y68811D02*
D03*
Y57000D02*
D03*
X338631Y69929D02*
D03*
Y58118D02*
D03*
D29*
X102969Y42319D02*
D03*
X337844Y64024D02*
D03*
D30*
X180299Y73150D02*
D03*
Y66850D02*
D03*
X418637Y77657D02*
D03*
Y71358D02*
D03*
X410767Y103157D02*
D03*
Y96858D02*
D03*
X378767Y58753D02*
D03*
Y52454D02*
D03*
D31*
X149343Y45500D02*
D03*
Y50815D02*
D03*
X327508Y95665D02*
D03*
Y90350D02*
D03*
X426137Y77507D02*
D03*
Y72192D02*
D03*
X66869Y74343D02*
D03*
Y79658D02*
D03*
X125343Y24500D02*
D03*
Y29815D02*
D03*
X165500Y72158D02*
D03*
Y66843D02*
D03*
X172500Y72158D02*
D03*
Y66843D02*
D03*
X93000Y98343D02*
D03*
Y103657D02*
D03*
X188000Y72158D02*
D03*
Y66843D02*
D03*
X195000Y72158D02*
D03*
Y66843D02*
D03*
D32*
X133760Y70185D02*
D03*
X137500D02*
D03*
X141240D02*
D03*
Y80815D02*
D03*
X133760D02*
D03*
D33*
X97597Y59674D02*
D03*
Y64674D02*
D03*
Y69674D02*
D03*
Y74674D02*
D03*
Y79674D02*
D03*
Y84674D02*
D03*
Y89674D02*
D03*
X76141Y59674D02*
D03*
Y64674D02*
D03*
Y69674D02*
D03*
Y74674D02*
D03*
Y79674D02*
D03*
Y84674D02*
D03*
Y89674D02*
D03*
X400495Y71604D02*
D03*
Y76604D02*
D03*
Y81603D02*
D03*
Y86603D02*
D03*
Y91603D02*
D03*
Y96604D02*
D03*
Y101603D02*
D03*
X379038Y71604D02*
D03*
Y76604D02*
D03*
Y81603D02*
D03*
Y86603D02*
D03*
Y91603D02*
D03*
Y96604D02*
D03*
Y101603D02*
D03*
D34*
X57213Y62906D02*
D03*
D35*
X329956Y58024D02*
D03*
X323657D02*
D03*
X329956Y70024D02*
D03*
X323657D02*
D03*
X341650Y81000D02*
D03*
X335350D02*
D03*
X110799Y48319D02*
D03*
X117098D02*
D03*
X110799Y36319D02*
D03*
X117098D02*
D03*
D36*
X442000Y65043D02*
D03*
Y57957D02*
D03*
X390368Y30503D02*
D03*
Y37589D02*
D03*
D37*
X149000Y72799D02*
D03*
Y85201D02*
D03*
D38*
X410767Y77162D02*
D03*
Y72044D02*
D03*
Y88162D02*
D03*
Y83044D02*
D03*
X423500Y63929D02*
D03*
Y58811D02*
D03*
X417500Y63929D02*
D03*
Y58811D02*
D03*
X367500Y95941D02*
D03*
Y101059D02*
D03*
X360500Y95941D02*
D03*
Y101059D02*
D03*
X435500Y63929D02*
D03*
Y58811D02*
D03*
X429500Y63929D02*
D03*
Y58811D02*
D03*
X358767Y72162D02*
D03*
Y67044D02*
D03*
X367500Y89059D02*
D03*
Y83941D02*
D03*
X411500Y63929D02*
D03*
Y58811D02*
D03*
X364767Y67044D02*
D03*
Y72163D02*
D03*
X405500Y63929D02*
D03*
Y58811D02*
D03*
X386767Y53044D02*
D03*
Y58163D02*
D03*
X143342Y29717D02*
D03*
Y24598D02*
D03*
X126500Y73941D02*
D03*
Y79059D02*
D03*
X81115Y103533D02*
D03*
Y98415D02*
D03*
X87000Y98441D02*
D03*
Y103559D02*
D03*
M02*
