G04*
G04 #@! TF.GenerationSoftware,Altium Limited,Altium Designer,23.10.1 (27)*
G04*
G04 Layer_Physical_Order=1*
G04 Layer_Color=255*
%FSLAX25Y25*%
%MOIN*%
G70*
G04*
G04 #@! TF.SameCoordinates,52E8BDB3-E784-467F-A169-E1E59ABD1491*
G04*
G04*
G04 #@! TF.FilePolarity,Positive*
G04*
G01*
G75*
%ADD14C,0.01000*%
%ADD23R,0.02362X0.06102*%
%ADD24R,0.03150X0.01968*%
%ADD25R,0.03543X0.03740*%
%ADD26R,0.03347X0.03740*%
%ADD27R,0.03543X0.03937*%
%ADD28R,0.05512X0.02362*%
%ADD29R,0.03937X0.02362*%
%ADD30R,0.05512X0.05118*%
%ADD31R,0.03937X0.03543*%
%ADD32R,0.01968X0.03937*%
%ADD33R,0.05709X0.02362*%
%ADD34R,0.07087X0.02362*%
%ADD35R,0.05118X0.05512*%
%ADD36R,0.01968X0.03150*%
%ADD37R,0.03740X0.03543*%
%ADD38R,0.03740X0.03347*%
%ADD65C,0.01200*%
%ADD66C,0.03937*%
%ADD67C,0.01000*%
%ADD68O,0.16535X0.06496*%
%ADD69O,0.15158X0.06496*%
%ADD70O,0.06496X0.15158*%
%ADD71C,0.07874*%
%ADD72R,0.06693X0.06693*%
%ADD73C,0.06693*%
%ADD74R,0.07874X0.07874*%
%ADD75R,0.06693X0.06693*%
G36*
X479295Y71400D02*
D01*
Y1020D01*
X381925Y1020D01*
Y4921D01*
X381847Y5311D01*
X381626Y5642D01*
X381296Y5863D01*
X380906Y5941D01*
X339567D01*
X339177Y5863D01*
X338846Y5642D01*
X338625Y5311D01*
X338547Y4921D01*
Y1020D01*
X242126D01*
Y62992D01*
Y66929D01*
X238189D01*
Y1020D01*
X141768Y1020D01*
Y4921D01*
X141690Y5311D01*
X141469Y5642D01*
X141138Y5863D01*
X140748Y5941D01*
X99410D01*
X99019Y5863D01*
X98689Y5642D01*
X98467Y5311D01*
X98390Y4921D01*
Y1020D01*
X1020D01*
X1020Y378902D01*
X238189D01*
Y94488D01*
Y72835D01*
X242126D01*
Y378902D01*
X479295D01*
X479295Y71400D01*
D02*
G37*
%LPC*%
G36*
X260451Y364173D02*
X259287D01*
X258146Y363946D01*
X257072Y363501D01*
X256104Y362855D01*
X255282Y362032D01*
X254636Y361065D01*
X254190Y359990D01*
X253963Y358849D01*
Y357686D01*
X254190Y356545D01*
X254636Y355470D01*
X255282Y354503D01*
X256104Y353681D01*
X257072Y353034D01*
X258146Y352589D01*
X259287Y352362D01*
X260451D01*
X261592Y352589D01*
X262666Y353034D01*
X263634Y353681D01*
X264456Y354503D01*
X265102Y355470D01*
X265548Y356545D01*
X265774Y357686D01*
Y358849D01*
X265548Y359990D01*
X265102Y361065D01*
X264456Y362032D01*
X263634Y362855D01*
X262666Y363501D01*
X261592Y363946D01*
X260451Y364173D01*
D02*
G37*
G36*
X20293D02*
X19130D01*
X17989Y363946D01*
X16914Y363501D01*
X15947Y362855D01*
X15124Y362032D01*
X14478Y361065D01*
X14033Y359990D01*
X13806Y358849D01*
Y357686D01*
X14033Y356545D01*
X14478Y355470D01*
X15124Y354503D01*
X15947Y353681D01*
X16914Y353034D01*
X17989Y352589D01*
X19130Y352362D01*
X20293D01*
X21434Y352589D01*
X22509Y353034D01*
X23476Y353681D01*
X24299Y354503D01*
X24945Y355470D01*
X25390Y356545D01*
X25617Y357686D01*
Y358849D01*
X25390Y359990D01*
X24945Y361065D01*
X24299Y362032D01*
X23476Y362855D01*
X22509Y363501D01*
X21434Y363946D01*
X20293Y364173D01*
D02*
G37*
G36*
X183097Y370079D02*
X57113D01*
Y350492D01*
X57113Y350492D01*
X57113Y350492D01*
Y342101D01*
X56754Y341826D01*
X55913Y341561D01*
X55171Y342130D01*
X54019Y342607D01*
X52782Y342770D01*
X51546Y342607D01*
X50393Y342130D01*
X49404Y341371D01*
X48645Y340381D01*
X48167Y339229D01*
X48004Y337992D01*
X48167Y336755D01*
X48645Y335603D01*
X48946Y335210D01*
X48976Y335146D01*
X49867Y333929D01*
X49258Y332729D01*
X48045D01*
Y325783D01*
X48042Y325764D01*
X48045Y325746D01*
Y325357D01*
X47972Y325252D01*
X47690Y324919D01*
X36419Y313647D01*
X36109Y313184D01*
X36001Y312638D01*
X36001Y312638D01*
Y134974D01*
X36001Y134974D01*
X36109Y134427D01*
X36419Y133964D01*
X68573Y101810D01*
Y100510D01*
X68572Y100507D01*
X68550Y100438D01*
X68426Y100164D01*
X68350Y100025D01*
X67940Y99399D01*
X67768Y99165D01*
X67738Y99100D01*
X67582Y98896D01*
X67303Y98223D01*
X67208Y97500D01*
X67303Y96777D01*
X67416Y96504D01*
X66919Y95514D01*
X66683Y95304D01*
X54128Y95304D01*
X53360Y96504D01*
X53390Y96733D01*
X49072D01*
X44754D01*
X44784Y96504D01*
X44016Y95304D01*
X35433Y95304D01*
X35121Y95242D01*
X34856Y95065D01*
X34679Y94800D01*
X34617Y94488D01*
X34617Y51227D01*
X34617Y51181D01*
X34617Y51181D01*
X34679Y50869D01*
X34856Y50604D01*
X35121Y50428D01*
X35433Y50365D01*
X35433Y50365D01*
X35479Y50365D01*
X47319Y50365D01*
X47727Y49165D01*
X47481Y48977D01*
X46832Y48131D01*
X46424Y47146D01*
X46285Y46090D01*
X46424Y45033D01*
X46832Y44048D01*
X47481Y43202D01*
X48326Y42553D01*
X49311Y42146D01*
X50368Y42006D01*
X59029D01*
X60086Y42146D01*
X61071Y42553D01*
X61916Y43202D01*
X62565Y44048D01*
X62781Y44569D01*
X62789Y44581D01*
X62792Y44595D01*
X62801Y44619D01*
X62865Y44633D01*
X63012Y44654D01*
X63113Y44662D01*
X72045D01*
Y43016D01*
X71897Y42945D01*
X70863Y42517D01*
X69976Y41836D01*
X69295Y40948D01*
X68867Y39915D01*
X68721Y38806D01*
Y34975D01*
X73006D01*
Y34475D01*
X73506D01*
Y25926D01*
X74115Y26006D01*
X74782Y26283D01*
X75982Y25701D01*
Y20852D01*
X75982Y20852D01*
X76045Y20540D01*
X76221Y20275D01*
X76221Y20275D01*
X76798Y19698D01*
Y18869D01*
X76845Y18869D01*
X114200Y18869D01*
X155766D01*
X156829Y17743D01*
X156958Y16763D01*
X157336Y15850D01*
X157937Y15067D01*
X158721Y14465D01*
X159634Y14087D01*
X160614Y13958D01*
X161593Y14087D01*
X162506Y14465D01*
X163290Y15067D01*
X163892Y15850D01*
X164270Y16763D01*
X164399Y17743D01*
X165461Y18869D01*
X174557D01*
X175107Y18243D01*
X180299D01*
X185491D01*
X186040Y18869D01*
X195137D01*
X196199Y17743D01*
X196328Y16763D01*
X196706Y15850D01*
X197307Y15067D01*
X198091Y14465D01*
X199004Y14087D01*
X199984Y13958D01*
X200963Y14087D01*
X201876Y14465D01*
X202660Y15067D01*
X203262Y15850D01*
X203640Y16763D01*
X203769Y17743D01*
X204831Y18869D01*
X212598D01*
X212911Y18932D01*
X213175Y19108D01*
X213323Y19329D01*
X213463Y19351D01*
X214589Y19127D01*
X214593Y19103D01*
X214597Y19087D01*
X214820Y17963D01*
X215265Y16888D01*
X215912Y15921D01*
X216734Y15098D01*
X217702Y14452D01*
X218776Y14006D01*
X219917Y13780D01*
X221081D01*
X222221Y14006D01*
X223296Y14452D01*
X224264Y15098D01*
X225086Y15921D01*
X225732Y16888D01*
X226178Y17963D01*
X226404Y19103D01*
Y20267D01*
X226178Y21408D01*
X225732Y22482D01*
X225086Y23450D01*
X224264Y24272D01*
X223296Y24918D01*
X222221Y25364D01*
X221081Y25591D01*
X219917D01*
X218776Y25364D01*
X217702Y24918D01*
X216734Y24272D01*
X215912Y23450D01*
X215265Y22482D01*
X214820Y21408D01*
X214693Y20765D01*
X214593Y20267D01*
X213491Y20313D01*
X213414Y20793D01*
X213414Y20317D01*
X213414D01*
X213414Y20865D01*
Y94488D01*
Y94488D01*
X213398D01*
X213388Y94537D01*
X213372Y94667D01*
X213358Y94692D01*
X213352Y94720D01*
X213279Y94830D01*
X213213Y94944D01*
X213191Y94961D01*
X213175Y94985D01*
X213066Y95058D01*
X212962Y95138D01*
X212934Y95146D01*
X212911Y95161D01*
X212781Y95187D01*
X212654Y95222D01*
X211488Y95302D01*
X211460Y95298D01*
X211432Y95304D01*
X155098D01*
X154786Y95242D01*
X154522Y95065D01*
X154503Y95037D01*
X153578Y94869D01*
X153107Y94912D01*
X145739Y102279D01*
X145276Y102589D01*
X144730Y102698D01*
X144730Y102698D01*
X106591D01*
X100009Y109279D01*
X99546Y109589D01*
X99000Y109697D01*
X99000Y109697D01*
X77270D01*
X76724Y109589D01*
X76261Y109279D01*
X76261Y109279D01*
X74991Y108009D01*
X74681Y107546D01*
X74573Y107000D01*
X74573Y107000D01*
Y98480D01*
X73844Y97905D01*
X73448Y98014D01*
X72655Y98325D01*
X72418Y98896D01*
X72265Y99096D01*
X72237Y99157D01*
X71897Y99633D01*
X71772Y99823D01*
X71564Y100182D01*
X71500Y100313D01*
X71454Y100426D01*
X71428Y100507D01*
X71427Y100510D01*
Y102401D01*
X71427Y102402D01*
X71319Y102948D01*
X71009Y103411D01*
X71009Y103411D01*
X38855Y135565D01*
Y310947D01*
X38905Y310980D01*
X40105Y310339D01*
Y207008D01*
X57113D01*
Y202092D01*
X55913Y201577D01*
X55272Y202068D01*
X54071Y202566D01*
X53282Y202670D01*
Y197756D01*
X52782D01*
Y197256D01*
X47869D01*
X47973Y196467D01*
X48470Y195266D01*
X49261Y194235D01*
X49707Y193893D01*
X49299Y192693D01*
X47845D01*
Y188256D01*
X52782D01*
Y187756D01*
X53282D01*
Y182819D01*
X57113D01*
Y165492D01*
Y139764D01*
X183097D01*
Y172819D01*
X186928D01*
Y177756D01*
X187428D01*
Y178256D01*
X192365D01*
Y182693D01*
X190911D01*
X190504Y183893D01*
X190949Y184235D01*
X191741Y185266D01*
X192238Y186467D01*
X192342Y187256D01*
X187428D01*
Y187756D01*
X186928D01*
Y192670D01*
X186139Y192566D01*
X184938Y192068D01*
X184297Y191577D01*
X183097Y192092D01*
Y199134D01*
X200105D01*
Y317244D01*
X183097D01*
Y323255D01*
X192165D01*
Y332729D01*
X190711D01*
X189913Y333795D01*
X189915Y333929D01*
X190806Y334614D01*
X191566Y335603D01*
X192043Y336755D01*
X192206Y337992D01*
X192043Y339229D01*
X191566Y340381D01*
X190806Y341371D01*
X189817Y342130D01*
X188665Y342607D01*
X187428Y342770D01*
X186191Y342607D01*
X185039Y342130D01*
X184297Y341561D01*
X183456Y341826D01*
X183097Y342101D01*
Y370079D01*
D02*
G37*
G36*
X292466Y342929D02*
X288029D01*
Y338492D01*
X292466D01*
Y342929D01*
D02*
G37*
G36*
X432549Y332929D02*
X428112D01*
Y328492D01*
X432549D01*
Y332929D01*
D02*
G37*
G36*
X292466Y327492D02*
X288053D01*
X288156Y326703D01*
X288654Y325502D01*
X289445Y324471D01*
X290477Y323680D01*
X291678Y323182D01*
X292466Y323078D01*
Y327492D01*
D02*
G37*
G36*
X423281Y370079D02*
X297297D01*
Y350256D01*
Y342929D01*
X293466D01*
Y337992D01*
X292966D01*
Y337492D01*
X288029D01*
Y333055D01*
X289483D01*
X289891Y331855D01*
X289445Y331513D01*
X288654Y330482D01*
X288156Y329281D01*
X288053Y328492D01*
X292966D01*
Y327992D01*
X293466D01*
Y323078D01*
X294255Y323182D01*
X295456Y323680D01*
X296097Y324171D01*
X297297Y323656D01*
Y316614D01*
X280289D01*
Y198504D01*
X297297D01*
Y192658D01*
X288229D01*
Y183184D01*
X289539D01*
X290109Y182129D01*
X289634Y181403D01*
X289164Y180773D01*
X289133Y180706D01*
X288829Y180310D01*
X288351Y179158D01*
X288189Y177921D01*
X288351Y176685D01*
X288829Y175532D01*
X289133Y175135D01*
X289163Y175071D01*
X290455Y173310D01*
X291275Y172091D01*
X291431Y171828D01*
X291531Y171636D01*
X291546Y171600D01*
Y98999D01*
X291539Y98926D01*
X291530Y98872D01*
X290408D01*
Y93335D01*
X291537D01*
X291546Y93281D01*
X291552Y93208D01*
Y91999D01*
X291546Y91926D01*
X291537Y91872D01*
X290408D01*
Y86335D01*
X294523D01*
X295551Y86335D01*
X296751Y86335D01*
X298339D01*
X298357Y86331D01*
X298376Y86335D01*
X298764D01*
X298870Y86262D01*
X299203Y85980D01*
X302267Y82915D01*
X302267Y82915D01*
X302730Y82606D01*
X303277Y82497D01*
X304156Y81752D01*
Y77622D01*
X307956D01*
X308118Y77622D01*
X308408D01*
X309039Y76968D01*
X308530Y75769D01*
X308271D01*
Y70231D01*
X313386D01*
Y70031D01*
X315657D01*
Y73000D01*
X316657D01*
Y70031D01*
X318929D01*
Y70031D01*
X320098Y69956D01*
Y66268D01*
X322921D01*
X322989Y66469D01*
X323020Y66597D01*
X323003Y66698D01*
X322961Y66856D01*
X322907Y66989D01*
X322841Y67098D01*
X322763Y67183D01*
X322673Y67244D01*
X322571Y67280D01*
X322457Y67292D01*
X323157D01*
Y70024D01*
X324157D01*
Y67292D01*
X324857D01*
X324743Y67280D01*
X324641Y67244D01*
X324551Y67183D01*
X324473Y67098D01*
X324407Y66989D01*
X324353Y66856D01*
X324340Y66806D01*
X324363Y66749D01*
X324446Y66593D01*
X324552Y66421D01*
X324658Y66268D01*
X327216D01*
Y66468D01*
X333315D01*
Y67297D01*
X333726Y67469D01*
X334890Y66655D01*
X334875Y66205D01*
X334875D01*
Y64605D01*
X334915Y64606D01*
X335120Y64624D01*
X335299Y64653D01*
X335455Y64695D01*
X335588Y64748D01*
X335696Y64814D01*
X335780Y64891D01*
X335840Y64980D01*
X335876Y65080D01*
X335888Y65193D01*
Y62855D01*
X335876Y62959D01*
X335840Y63051D01*
X335780Y63133D01*
X335696Y63204D01*
X335588Y63264D01*
X335455Y63313D01*
X335299Y63351D01*
X335120Y63378D01*
X334915Y63395D01*
X334875Y63396D01*
Y62992D01*
X332015D01*
X331895Y62923D01*
X331672Y62777D01*
X331182Y62426D01*
X330757Y62992D01*
X329243D01*
X328818Y62426D01*
X328328Y62777D01*
X328104Y62923D01*
X327985Y62992D01*
X326015D01*
X325896Y62923D01*
X325672Y62777D01*
X325313Y62520D01*
X325211Y62409D01*
X324681Y61765D01*
X324552Y61579D01*
X324446Y61407D01*
X324363Y61251D01*
X324347Y61213D01*
X324353Y61192D01*
X324407Y61059D01*
X324473Y60950D01*
X324551Y60865D01*
X324641Y60804D01*
X324743Y60768D01*
X324857Y60756D01*
X322457D01*
X322571Y60768D01*
X322673Y60804D01*
X322763Y60865D01*
X322841Y60950D01*
X322907Y61059D01*
X322961Y61192D01*
X323003Y61350D01*
X323015Y61422D01*
X322989Y61531D01*
X322937Y61702D01*
X322869Y61887D01*
X322689Y62293D01*
X322449Y62750D01*
X322309Y62992D01*
X300323D01*
Y68654D01*
X292030D01*
Y64417D01*
X291902Y64372D01*
X291760Y64389D01*
X290627Y65199D01*
X290568Y65642D01*
X290131Y66699D01*
X289434Y67607D01*
X288526Y68304D01*
X287469Y68742D01*
X286834Y68826D01*
Y64507D01*
Y60189D01*
X287469Y60273D01*
X288526Y60711D01*
X289434Y61407D01*
X290131Y62315D01*
X290139Y62335D01*
X291339Y62096D01*
X291339Y50146D01*
X290578D01*
X289522Y50007D01*
X288537Y49599D01*
X287691Y48950D01*
X287042Y48105D01*
X286634Y47120D01*
X286495Y46063D01*
X286634Y45006D01*
X287042Y44021D01*
X287691Y43176D01*
X288537Y42527D01*
X289522Y42119D01*
X290578Y41980D01*
X299240D01*
X300296Y42119D01*
X301281Y42527D01*
X302127Y43176D01*
X302227Y43307D01*
X310167D01*
X310575Y42107D01*
X310186Y41809D01*
X309505Y40922D01*
X309077Y39889D01*
X308931Y38780D01*
Y34949D01*
X313216D01*
X317501D01*
Y38780D01*
X317355Y39889D01*
X316927Y40922D01*
X316246Y41809D01*
X315858Y42107D01*
X316265Y43307D01*
X329835D01*
Y35433D01*
X330735Y34533D01*
X396613D01*
X397166Y34163D01*
X397792Y33686D01*
X397863Y33651D01*
X398294Y33320D01*
X399446Y32843D01*
X400683Y32680D01*
X401920Y32843D01*
X403072Y33320D01*
X404061Y34080D01*
X404821Y35069D01*
X404955Y35393D01*
X406254D01*
X406388Y35069D01*
X407147Y34080D01*
X408137Y33320D01*
X409289Y32843D01*
X410525Y32680D01*
X411762Y32843D01*
X412914Y33320D01*
X413904Y34080D01*
X414663Y35069D01*
X415140Y36222D01*
X415303Y37458D01*
X415140Y38695D01*
X414663Y39847D01*
X413904Y40837D01*
X412914Y41596D01*
X411762Y42073D01*
X410525Y42236D01*
X409289Y42073D01*
X408137Y41596D01*
X407147Y40837D01*
X406388Y39847D01*
X406254Y39523D01*
X404955D01*
X404821Y39847D01*
X404061Y40837D01*
X403072Y41596D01*
X401920Y42073D01*
X400683Y42236D01*
X399446Y42073D01*
X398864Y41832D01*
X397706Y42509D01*
X397664Y42575D01*
Y67441D01*
X399773D01*
X402422Y64792D01*
X402617Y64582D01*
X402750Y64415D01*
X402830Y64300D01*
Y63912D01*
X402826Y63893D01*
X402830Y63875D01*
X402830Y61456D01*
X402830Y60256D01*
Y56338D01*
X405327D01*
X405336Y56283D01*
X405343Y56209D01*
Y53730D01*
X405343Y53730D01*
X405451Y53184D01*
X405761Y52721D01*
X409491Y48991D01*
X409491Y48991D01*
X409954Y48681D01*
X410500Y48573D01*
X427114D01*
X428073Y48011D01*
X428181Y47465D01*
X428491Y47002D01*
X432596Y42896D01*
X431917Y41879D01*
X431447Y42073D01*
X430210Y42236D01*
X428974Y42073D01*
X427821Y41596D01*
X426832Y40837D01*
X426073Y39847D01*
X425595Y38695D01*
X425433Y37458D01*
X425595Y36222D01*
X426073Y35069D01*
X426832Y34080D01*
X427821Y33320D01*
X428974Y32843D01*
X430210Y32680D01*
X431447Y32843D01*
X432599Y33320D01*
X433589Y34080D01*
X434348Y35069D01*
X434482Y35393D01*
X435781D01*
X435915Y35069D01*
X436674Y34080D01*
X437664Y33320D01*
X438816Y32843D01*
X440053Y32680D01*
X441290Y32843D01*
X442442Y33320D01*
X443432Y34080D01*
X444191Y35069D01*
X444668Y36222D01*
X444831Y37458D01*
X444668Y38695D01*
X444566Y38941D01*
X444564Y38953D01*
X444139Y40254D01*
X443577Y42117D01*
X443446Y42653D01*
X443427Y42756D01*
Y54383D01*
X443784Y55582D01*
X443788Y56394D01*
X443784Y56412D01*
X443784Y56782D01*
Y60331D01*
X440216D01*
Y56782D01*
X440216Y56412D01*
X440212Y56394D01*
X440216Y55582D01*
X440573Y54385D01*
Y43840D01*
X438818Y42458D01*
X438575Y42496D01*
X437133Y42780D01*
X436836Y42856D01*
X436630Y42921D01*
X436594Y42936D01*
X430927Y48602D01*
Y50000D01*
Y55144D01*
X431412Y55648D01*
X432527Y55657D01*
X432824Y55386D01*
X432823Y55141D01*
X432803Y55093D01*
X432708Y54370D01*
X432803Y53647D01*
X433082Y52974D01*
X433526Y52396D01*
X434104Y51952D01*
X434777Y51673D01*
X435500Y51578D01*
X436223Y51673D01*
X436896Y51952D01*
X437474Y52396D01*
X437918Y52974D01*
X438197Y53647D01*
X438292Y54370D01*
X438197Y55093D01*
X438177Y55141D01*
X438170Y56338D01*
X438170Y56338D01*
Y60256D01*
X438170Y61284D01*
X438170Y62484D01*
Y62992D01*
Y66402D01*
X435674D01*
X435664Y66461D01*
X435657Y66533D01*
Y84927D01*
X435657Y84928D01*
X435549Y85474D01*
X435239Y85937D01*
X435239Y85937D01*
X434293Y86883D01*
X433713Y89619D01*
X433620Y90247D01*
X433596Y90316D01*
X433540Y90740D01*
X433122Y91749D01*
X432457Y92615D01*
X431591Y93279D01*
X430582Y93697D01*
X430166Y93752D01*
X430104Y93775D01*
X427878Y94143D01*
X427829Y94153D01*
X427963Y95354D01*
X433646D01*
Y103647D01*
X427951D01*
X427943Y103651D01*
X427862Y103708D01*
X427500Y104019D01*
X427009Y104509D01*
X426546Y104819D01*
X426000Y104927D01*
X426000Y104927D01*
X414450D01*
X414376Y104934D01*
X414323Y104943D01*
Y106516D01*
X407211D01*
Y103046D01*
X407156Y103037D01*
X407083Y103031D01*
X405344D01*
X404149Y103585D01*
X403337Y103588D01*
X403319Y103585D01*
X402949Y103585D01*
X396841D01*
Y99622D01*
X396841D01*
Y98585D01*
X396841D01*
Y97171D01*
X395732Y96712D01*
X389831Y102613D01*
X389368Y102922D01*
X388822Y103031D01*
X388822Y103031D01*
X383887D01*
X382693Y103585D01*
X381881Y103588D01*
X381862Y103585D01*
X381493Y103585D01*
X375384D01*
X375384Y103585D01*
X374333Y103944D01*
X373723Y104197D01*
X373000Y104292D01*
X372277Y104197D01*
X371604Y103918D01*
X371295Y103681D01*
X370170Y103532D01*
X370170Y103532D01*
X364830D01*
Y102502D01*
X364776Y102493D01*
X364703Y102487D01*
X363298D01*
X363224Y102493D01*
X363170Y102502D01*
Y103532D01*
X357830D01*
Y99614D01*
X357830Y98516D01*
X356636Y97368D01*
X355101D01*
X355028Y97375D01*
X354973Y97384D01*
Y99670D01*
X351055D01*
X350027Y99670D01*
X348827Y99670D01*
X344909D01*
Y98444D01*
X344850Y98434D01*
X344778Y98427D01*
X342601D01*
X342527Y98434D01*
X342473Y98443D01*
Y99670D01*
X338555D01*
X337527Y99670D01*
X336327Y99670D01*
X332409D01*
Y98280D01*
X332350Y98270D01*
X332278Y98264D01*
X328680D01*
X328679Y98264D01*
X328542Y98237D01*
X324739D01*
Y97108D01*
X324686Y97099D01*
X324612Y97092D01*
X312132D01*
X311643Y97708D01*
X312165Y98882D01*
X313118D01*
Y98882D01*
X314156D01*
Y98882D01*
X317956D01*
X318118Y98882D01*
X319156D01*
X319318Y98882D01*
X323118D01*
Y106585D01*
X319318D01*
X319156Y106585D01*
X318118D01*
X317956Y106585D01*
X316684D01*
X316665Y106588D01*
X316647Y106585D01*
X316258D01*
X316153Y106658D01*
X315820Y106939D01*
X314566Y108194D01*
X314103Y108503D01*
X313556Y108612D01*
X313556Y108612D01*
X304376D01*
X303830Y108503D01*
X303367Y108194D01*
X303367Y108194D01*
X297285Y102112D01*
X296976Y101649D01*
X296867Y101103D01*
X296867Y101103D01*
Y100066D01*
X296444Y99624D01*
X294826Y99623D01*
X294401Y100066D01*
Y171533D01*
X296097Y174129D01*
X297292Y173773D01*
X297297Y173769D01*
Y166339D01*
Y139764D01*
X423281D01*
Y165256D01*
Y173647D01*
X423448Y173775D01*
X424481Y174081D01*
X425372Y172998D01*
X426260Y171821D01*
X426427Y171569D01*
X426534Y171387D01*
X426541Y171373D01*
Y160825D01*
X426534Y160751D01*
X426525Y160698D01*
X425752D01*
Y155161D01*
X426881D01*
X426890Y155107D01*
X426896Y155033D01*
Y136915D01*
X401087Y111105D01*
X395647D01*
X395644Y111106D01*
X395576Y111128D01*
X395301Y111251D01*
X395162Y111328D01*
X394536Y111737D01*
X394302Y111909D01*
X394237Y111940D01*
X394034Y112096D01*
X393360Y112375D01*
X392637Y112470D01*
X391915Y112375D01*
X391241Y112096D01*
X390663Y111652D01*
X390219Y111074D01*
X389940Y110400D01*
X389845Y109678D01*
X389940Y108955D01*
X390219Y108282D01*
X390663Y107703D01*
X391241Y107259D01*
X391915Y106981D01*
X392637Y106885D01*
X393360Y106981D01*
X394034Y107259D01*
X394234Y107413D01*
X394294Y107440D01*
X394770Y107781D01*
X394961Y107906D01*
X395320Y108114D01*
X395451Y108177D01*
X395563Y108223D01*
X395644Y108250D01*
X395647Y108250D01*
X401678D01*
X401678Y108250D01*
X402224Y108359D01*
X402687Y108668D01*
X429333Y135315D01*
X429333Y135315D01*
X429643Y135778D01*
X429751Y136324D01*
Y154757D01*
X430867Y154961D01*
X430867Y154961D01*
X430867Y154961D01*
X433139D01*
Y157929D01*
Y160898D01*
X430867D01*
Y160698D01*
X429411D01*
X429402Y160751D01*
X429395Y160825D01*
Y171468D01*
X431141Y174476D01*
X431569Y175124D01*
X431576Y175141D01*
X431750Y175367D01*
X432227Y176519D01*
X432390Y177756D01*
X432227Y178992D01*
X431750Y180145D01*
X431448Y180538D01*
X431418Y180602D01*
X430527Y181819D01*
X431136Y183019D01*
X432349D01*
Y192493D01*
X423281D01*
Y198504D01*
X440290D01*
X440289Y198505D01*
Y308740D01*
X423281D01*
Y313656D01*
X424481Y314171D01*
X425122Y313680D01*
X426323Y313182D01*
X427112Y313078D01*
Y317992D01*
X427612D01*
Y318492D01*
X432526D01*
X432422Y319281D01*
X431924Y320482D01*
X431133Y321513D01*
X430688Y321855D01*
X431095Y323055D01*
X432549D01*
Y327492D01*
X427612D01*
Y327992D01*
X427112D01*
Y332929D01*
X423281D01*
Y370079D01*
D02*
G37*
G36*
X432526Y317492D02*
X428112D01*
Y313078D01*
X428901Y313182D01*
X430102Y313680D01*
X431133Y314471D01*
X431924Y315502D01*
X432422Y316703D01*
X432526Y317492D01*
D02*
G37*
G36*
X52282Y202670D02*
X51494Y202566D01*
X50293Y202068D01*
X49261Y201277D01*
X48470Y200246D01*
X47973Y199045D01*
X47869Y198256D01*
X52282D01*
Y202670D01*
D02*
G37*
G36*
X187928Y192670D02*
Y188256D01*
X192342D01*
X192238Y189045D01*
X191741Y190246D01*
X190949Y191277D01*
X189918Y192068D01*
X188717Y192566D01*
X187928Y192670D01*
D02*
G37*
G36*
X52282Y187256D02*
X47845D01*
Y182819D01*
X52282D01*
Y187256D01*
D02*
G37*
G36*
X192365Y177256D02*
X187928D01*
Y172819D01*
X192365D01*
Y177256D01*
D02*
G37*
G36*
X436411Y160898D02*
X434139D01*
Y158429D01*
X435387D01*
Y159129D01*
X435399Y159015D01*
X435435Y158913D01*
X435496Y158823D01*
X435580Y158745D01*
X435689Y158679D01*
X435823Y158625D01*
X435980Y158583D01*
X436162Y158553D01*
X436368Y158535D01*
X436411Y158534D01*
Y160898D01*
D02*
G37*
G36*
X435387Y157429D02*
X434139D01*
Y154961D01*
X436411D01*
Y157324D01*
X436368Y157323D01*
X436162Y157305D01*
X435980Y157275D01*
X435823Y157233D01*
X435689Y157179D01*
X435580Y157113D01*
X435496Y157035D01*
X435435Y156945D01*
X435399Y156843D01*
X435387Y156729D01*
Y157429D01*
D02*
G37*
G36*
X49572Y101551D02*
Y97733D01*
X53390D01*
X53307Y98368D01*
X52869Y99425D01*
X52172Y100333D01*
X51264Y101030D01*
X50207Y101468D01*
X49572Y101551D01*
D02*
G37*
G36*
X48572Y101551D02*
X47938Y101468D01*
X46880Y101030D01*
X45972Y100333D01*
X45276Y99425D01*
X44838Y98368D01*
X44754Y97733D01*
X48572D01*
Y101551D01*
D02*
G37*
G36*
X443984Y67618D02*
X442500D01*
Y65543D01*
X443984D01*
Y67618D01*
D02*
G37*
G36*
X441500D02*
X440016D01*
Y65543D01*
X441500D01*
Y67618D01*
D02*
G37*
G36*
X285834Y68826D02*
X285199Y68742D01*
X284142Y68304D01*
X283234Y67607D01*
X282537Y66699D01*
X282099Y65642D01*
X282016Y65007D01*
X285834D01*
Y68826D01*
D02*
G37*
G36*
X325182Y62992D02*
X322349D01*
X325182Y62681D01*
Y62992D01*
D02*
G37*
G36*
X443984Y64543D02*
X442500D01*
Y62468D01*
X443984D01*
Y62992D01*
Y64543D01*
D02*
G37*
G36*
X441500D02*
X440016D01*
Y62468D01*
X441500D01*
Y64543D01*
D02*
G37*
G36*
X285834Y64007D02*
X283050D01*
X282016D01*
X282099Y63373D01*
X282537Y62315D01*
X283234Y61407D01*
X284142Y60711D01*
X285199Y60273D01*
X285834Y60189D01*
Y64007D01*
D02*
G37*
G36*
X392352Y33077D02*
X390868D01*
Y31003D01*
X392352D01*
Y33077D01*
D02*
G37*
G36*
X389868D02*
X388384D01*
Y31003D01*
X389868D01*
Y33077D01*
D02*
G37*
G36*
X392352Y30002D02*
X390868D01*
Y27928D01*
X392352D01*
Y30002D01*
D02*
G37*
G36*
X389868D02*
X388384D01*
Y27928D01*
X389868D01*
Y30002D01*
D02*
G37*
G36*
X72506Y33975D02*
X68721D01*
Y30145D01*
X68867Y29036D01*
X69295Y28002D01*
X69976Y27115D01*
X70863Y26434D01*
X71897Y26006D01*
X72506Y25926D01*
Y33975D01*
D02*
G37*
G36*
X312716Y33949D02*
X308931D01*
Y30118D01*
X309077Y29009D01*
X309505Y27976D01*
X310186Y27088D01*
X311074Y26408D01*
X312107Y25979D01*
X312716Y25899D01*
Y33949D01*
D02*
G37*
G36*
X317501D02*
X313716D01*
Y25899D01*
X314325Y25979D01*
X315358Y26408D01*
X316246Y27088D01*
X316927Y27976D01*
X317355Y29009D01*
X317501Y30118D01*
Y33949D01*
D02*
G37*
G36*
X59718Y25965D02*
X55199D01*
Y22180D01*
X63937D01*
X63857Y22789D01*
X63429Y23822D01*
X62748Y24710D01*
X61861Y25391D01*
X60827Y25819D01*
X59718Y25965D01*
D02*
G37*
G36*
X54198D02*
X49679D01*
X48570Y25819D01*
X47537Y25391D01*
X46649Y24710D01*
X45968Y23822D01*
X45540Y22789D01*
X45460Y22180D01*
X54198D01*
Y25965D01*
D02*
G37*
G36*
X299929Y25938D02*
X295409D01*
Y22154D01*
X304148D01*
X304067Y22762D01*
X303639Y23796D01*
X302958Y24683D01*
X302071Y25364D01*
X301038Y25792D01*
X299929Y25938D01*
D02*
G37*
G36*
X294409D02*
X289889D01*
X288780Y25792D01*
X287747Y25364D01*
X286860Y24683D01*
X286179Y23796D01*
X285751Y22762D01*
X285670Y22154D01*
X294409D01*
Y25938D01*
D02*
G37*
G36*
X420868Y22687D02*
Y18273D01*
X425282D01*
X425178Y19062D01*
X424680Y20263D01*
X423889Y21294D01*
X422858Y22085D01*
X421657Y22583D01*
X420868Y22687D01*
D02*
G37*
G36*
X419868D02*
X419079Y22583D01*
X417878Y22085D01*
X416847Y21294D01*
X416055Y20263D01*
X415558Y19062D01*
X415454Y18273D01*
X419868D01*
Y22687D01*
D02*
G37*
G36*
X63937Y21180D02*
X55199D01*
Y17395D01*
X59718D01*
X60827Y17541D01*
X61861Y17969D01*
X62748Y18650D01*
X63429Y19538D01*
X63857Y20571D01*
X63937Y21180D01*
D02*
G37*
G36*
X54198D02*
X45460D01*
X45540Y20571D01*
X45968Y19538D01*
X46649Y18650D01*
X47537Y17969D01*
X48570Y17541D01*
X49679Y17395D01*
X54198D01*
Y21180D01*
D02*
G37*
G36*
X304148Y21154D02*
X295409D01*
Y17369D01*
X299929D01*
X301038Y17515D01*
X302071Y17943D01*
X302958Y18624D01*
X303639Y19511D01*
X304067Y20545D01*
X304148Y21154D01*
D02*
G37*
G36*
X294409D02*
X285670D01*
X285751Y20545D01*
X286179Y19511D01*
X286860Y18624D01*
X287747Y17943D01*
X288780Y17515D01*
X289889Y17369D01*
X294409D01*
Y21154D01*
D02*
G37*
G36*
X440053Y21558D02*
X439073Y21429D01*
X438160Y21051D01*
X437376Y20449D01*
X436775Y19666D01*
X436397Y18753D01*
X436268Y17773D01*
X436397Y16793D01*
X436775Y15880D01*
X437376Y15097D01*
X438160Y14495D01*
X439073Y14117D01*
X440053Y13988D01*
X441033Y14117D01*
X441946Y14495D01*
X442730Y15097D01*
X443331Y15880D01*
X443709Y16793D01*
X443838Y17773D01*
X443709Y18753D01*
X443331Y19666D01*
X442730Y20449D01*
X441946Y21051D01*
X441033Y21429D01*
X440053Y21558D01*
D02*
G37*
G36*
X400683D02*
X399703Y21429D01*
X398790Y21051D01*
X398006Y20449D01*
X397405Y19666D01*
X397027Y18753D01*
X396898Y17773D01*
X397027Y16793D01*
X397405Y15880D01*
X398006Y15097D01*
X398790Y14495D01*
X399703Y14117D01*
X400683Y13988D01*
X401663Y14117D01*
X402575Y14495D01*
X403359Y15097D01*
X403961Y15880D01*
X404339Y16793D01*
X404468Y17773D01*
X404339Y18753D01*
X403961Y19666D01*
X403359Y20449D01*
X402575Y21051D01*
X401663Y21429D01*
X400683Y21558D01*
D02*
G37*
G36*
X461238Y25591D02*
X460075D01*
X458934Y25364D01*
X457859Y24918D01*
X456892Y24272D01*
X456069Y23450D01*
X455423Y22482D01*
X454978Y21408D01*
X454751Y20267D01*
Y19103D01*
X454978Y17963D01*
X455423Y16888D01*
X456069Y15921D01*
X456892Y15098D01*
X457859Y14452D01*
X458934Y14006D01*
X460075Y13780D01*
X461238D01*
X462379Y14006D01*
X463454Y14452D01*
X464421Y15098D01*
X465243Y15921D01*
X465890Y16888D01*
X466335Y17963D01*
X466562Y19103D01*
Y20267D01*
X466335Y21408D01*
X465890Y22482D01*
X465243Y23450D01*
X464421Y24272D01*
X463454Y24918D01*
X462379Y25364D01*
X461238Y25591D01*
D02*
G37*
G36*
X260451D02*
X259287D01*
X258146Y25364D01*
X257072Y24918D01*
X256104Y24272D01*
X255282Y23450D01*
X254636Y22482D01*
X254190Y21408D01*
X253963Y20267D01*
Y19103D01*
X254190Y17963D01*
X254636Y16888D01*
X255282Y15921D01*
X256104Y15098D01*
X257072Y14452D01*
X258146Y14006D01*
X259287Y13780D01*
X260451D01*
X261592Y14006D01*
X262666Y14452D01*
X263634Y15098D01*
X264456Y15921D01*
X265102Y16888D01*
X265548Y17963D01*
X265774Y19103D01*
Y20267D01*
X265548Y21408D01*
X265102Y22482D01*
X264456Y23450D01*
X263634Y24272D01*
X262666Y24918D01*
X261592Y25364D01*
X260451Y25591D01*
D02*
G37*
G36*
X20293D02*
X19130D01*
X17989Y25364D01*
X16914Y24918D01*
X15947Y24272D01*
X15124Y23450D01*
X14478Y22482D01*
X14033Y21408D01*
X13806Y20267D01*
Y19103D01*
X14033Y17963D01*
X14478Y16888D01*
X15124Y15921D01*
X15947Y15098D01*
X16914Y14452D01*
X17989Y14006D01*
X19130Y13780D01*
X20293D01*
X21434Y14006D01*
X22509Y14452D01*
X23476Y15098D01*
X24299Y15921D01*
X24945Y16888D01*
X25390Y17963D01*
X25617Y19103D01*
Y20267D01*
X25390Y21408D01*
X24945Y22482D01*
X24299Y23450D01*
X23476Y24272D01*
X22509Y24918D01*
X21434Y25364D01*
X20293Y25591D01*
D02*
G37*
G36*
X425282Y17273D02*
X420868D01*
Y12859D01*
X421657Y12963D01*
X422858Y13461D01*
X423889Y14252D01*
X424680Y15283D01*
X425178Y16484D01*
X425282Y17273D01*
D02*
G37*
G36*
X419868D02*
X415454D01*
X415558Y16484D01*
X416055Y15283D01*
X416847Y14252D01*
X417878Y13461D01*
X419079Y12963D01*
X419868Y12859D01*
Y17273D01*
D02*
G37*
G36*
X185213Y17243D02*
X180799D01*
Y12829D01*
X181588Y12933D01*
X182789Y13431D01*
X183820Y14222D01*
X184611Y15253D01*
X185109Y16454D01*
X185213Y17243D01*
D02*
G37*
G36*
X179799D02*
X175385D01*
X175489Y16454D01*
X175986Y15253D01*
X176778Y14222D01*
X177809Y13431D01*
X179010Y12933D01*
X179799Y12829D01*
Y17243D01*
D02*
G37*
%LPD*%
G36*
X55446Y334978D02*
X53580Y332130D01*
X53598Y332099D01*
X53676Y332014D01*
X53766Y331954D01*
X53868Y331917D01*
X53982Y331905D01*
X53433D01*
X53408Y331867D01*
X53382Y331739D01*
X52182D01*
X52157Y331867D01*
X52141Y331905D01*
X51582D01*
X51696Y331917D01*
X51798Y331954D01*
X51888Y332014D01*
X51966Y332099D01*
X52015Y332179D01*
X51953Y332297D01*
X51775Y332599D01*
X50934Y333853D01*
X49634Y335628D01*
X55931D01*
X55446Y334978D01*
D02*
G37*
G36*
X50555Y324067D02*
X50461Y324135D01*
X50351Y324169D01*
X50223D01*
X50079Y324135D01*
X49918Y324067D01*
X49740Y323965D01*
X49545Y323830D01*
X49333Y323660D01*
X48857Y323219D01*
X48009Y324067D01*
X48246Y324313D01*
X48620Y324754D01*
X48756Y324950D01*
X48857Y325128D01*
X48925Y325289D01*
X48959Y325433D01*
Y325560D01*
X48925Y325671D01*
X48857Y325764D01*
X50555Y324067D01*
D02*
G37*
G36*
X91056Y101974D02*
X91045Y102069D01*
X91015Y102154D01*
X90964Y102229D01*
X90894Y102294D01*
X90803Y102349D01*
X90691Y102394D01*
X90560Y102429D01*
X90408Y102454D01*
X90236Y102469D01*
X90043Y102474D01*
Y103474D01*
X90236Y103479D01*
X90408Y103494D01*
X90560Y103519D01*
X90691Y103554D01*
X90803Y103599D01*
X90894Y103654D01*
X90964Y103719D01*
X91015Y103794D01*
X91045Y103879D01*
X91056Y103974D01*
Y101974D01*
D02*
G37*
G36*
X88856Y103879D02*
X88887Y103794D01*
X88937Y103719D01*
X89008Y103654D01*
X89099Y103599D01*
X89210Y103554D01*
X89342Y103519D01*
X89494Y103494D01*
X89666Y103479D01*
X89858Y103474D01*
Y102474D01*
X89666Y102469D01*
X89494Y102454D01*
X89342Y102429D01*
X89210Y102394D01*
X89099Y102349D01*
X89008Y102294D01*
X88937Y102229D01*
X88887Y102154D01*
X88856Y102069D01*
X88846Y101974D01*
Y103974D01*
X88856Y103879D01*
D02*
G37*
G36*
X85154Y101974D02*
X85144Y102069D01*
X85113Y102154D01*
X85063Y102229D01*
X84992Y102294D01*
X84901Y102349D01*
X84790Y102394D01*
X84658Y102429D01*
X84506Y102454D01*
X84334Y102469D01*
X84142Y102474D01*
Y103474D01*
X84334Y103479D01*
X84506Y103494D01*
X84658Y103519D01*
X84790Y103554D01*
X84901Y103599D01*
X84992Y103654D01*
X85063Y103719D01*
X85113Y103794D01*
X85144Y103879D01*
X85154Y103974D01*
Y101974D01*
D02*
G37*
G36*
X82972Y103879D02*
X83002Y103794D01*
X83052Y103719D01*
X83123Y103654D01*
X83214Y103599D01*
X83326Y103554D01*
X83457Y103519D01*
X83609Y103494D01*
X83781Y103479D01*
X83973Y103474D01*
Y102474D01*
X83781Y102469D01*
X83609Y102454D01*
X83457Y102429D01*
X83326Y102394D01*
X83214Y102349D01*
X83123Y102294D01*
X83052Y102229D01*
X83002Y102154D01*
X82972Y102069D01*
X82961Y101974D01*
Y103974D01*
X82972Y103879D01*
D02*
G37*
G36*
X94955Y103291D02*
X94986Y103206D01*
X95037Y103131D01*
X95108Y103066D01*
X95200Y103011D01*
X95311Y102966D01*
X95442Y102931D01*
X95594Y102906D01*
X95765Y102891D01*
X95956Y102886D01*
Y101886D01*
X94956Y101898D01*
X94945Y103386D01*
X94955Y103291D01*
D02*
G37*
G36*
X104430Y97093D02*
X104585Y96926D01*
X104693Y96793D01*
X104728Y96743D01*
Y94157D01*
X94352D01*
X94209Y94371D01*
X94850Y95571D01*
X95969D01*
Y97392D01*
X95956Y97399D01*
X95795Y97474D01*
X95648Y97528D01*
X95630Y97532D01*
X95538Y97517D01*
X95381Y97475D01*
X95248Y97421D01*
X95138Y97355D01*
X95054Y97277D01*
X94993Y97187D01*
X94957Y97085D01*
X94945Y96971D01*
Y97843D01*
X93000D01*
Y98843D01*
X94945D01*
Y99371D01*
X94957Y99257D01*
X94993Y99155D01*
X95054Y99065D01*
X95138Y98987D01*
X95248Y98921D01*
X95381Y98867D01*
X95474Y98843D01*
X95909D01*
X95933Y98849D01*
X95969Y98862D01*
Y101060D01*
X100463D01*
X104430Y97093D01*
D02*
G37*
G36*
X70610Y100433D02*
X70639Y100296D01*
X70688Y100145D01*
X70756Y99979D01*
X70843Y99799D01*
X71077Y99396D01*
X71223Y99172D01*
X71574Y98682D01*
X68426D01*
X68611Y98934D01*
X69049Y99604D01*
X69156Y99799D01*
X69312Y100145D01*
X69361Y100296D01*
X69390Y100433D01*
X69400Y100556D01*
X70600D01*
X70610Y100433D01*
D02*
G37*
G36*
X80954Y96766D02*
X80862Y96833D01*
X80752Y96865D01*
X80626Y96864D01*
X80482Y96829D01*
X80321Y96760D01*
X80143Y96657D01*
X79947Y96520D01*
X79734Y96349D01*
X79257Y95905D01*
X78409Y96754D01*
X78648Y97001D01*
X79023Y97444D01*
X79160Y97639D01*
X79263Y97817D01*
X79332Y97979D01*
X79367Y98123D01*
X79369Y98249D01*
X79336Y98359D01*
X79269Y98451D01*
X80954Y96766D01*
D02*
G37*
G36*
X105746Y98366D02*
X106115Y98053D01*
X106278Y97938D01*
X106426Y97852D01*
X106561Y97794D01*
X106681Y97765D01*
X106786Y97764D01*
X106877Y97791D01*
X106954Y97846D01*
X105552Y96444D01*
X105607Y96521D01*
X105634Y96612D01*
X105633Y96717D01*
X105603Y96837D01*
X105546Y96971D01*
X105459Y97120D01*
X105345Y97283D01*
X105202Y97460D01*
X104832Y97858D01*
X105540Y98565D01*
X105746Y98366D01*
D02*
G37*
G36*
X88804Y98248D02*
X88780Y98153D01*
X88788Y98041D01*
X88826Y97912D01*
X88896Y97765D01*
X88996Y97602D01*
X89127Y97422D01*
X89289Y97225D01*
X89707Y96780D01*
X88858Y95931D01*
X88627Y96155D01*
X88216Y96511D01*
X88036Y96642D01*
X87872Y96742D01*
X87726Y96811D01*
X87597Y96850D01*
X87485Y96858D01*
X87390Y96834D01*
X87311Y96780D01*
X88858Y98326D01*
X88804Y98248D01*
D02*
G37*
G36*
X86816Y96768D02*
X86714Y96732D01*
X86624Y96672D01*
X86546Y96588D01*
X86480Y96480D01*
X86426Y96348D01*
X86384Y96192D01*
X86354Y96012D01*
X86336Y95808D01*
X86330Y95580D01*
X85130D01*
X85142Y96780D01*
X86930D01*
X86816Y96768D01*
D02*
G37*
G36*
X119638Y94154D02*
X119546Y94221D01*
X119437Y94253D01*
X119310Y94252D01*
X119166Y94217D01*
X119005Y94148D01*
X118826Y94045D01*
X118631Y93908D01*
X118418Y93737D01*
X117941Y93293D01*
X117093Y94142D01*
X117331Y94389D01*
X117707Y94832D01*
X117844Y95027D01*
X117947Y95206D01*
X118016Y95367D01*
X118051Y95511D01*
X118052Y95637D01*
X118020Y95747D01*
X117953Y95839D01*
X119638Y94154D01*
D02*
G37*
G36*
X69574Y94469D02*
X70364Y93566D01*
X70459Y93288D01*
Y85333D01*
X69259Y85254D01*
X69197Y85723D01*
X68918Y86396D01*
X68475Y86975D01*
X67896Y87418D01*
X67223Y87697D01*
X66500Y87792D01*
X65777Y87697D01*
X65104Y87418D01*
X64526Y86975D01*
X64082Y86396D01*
X63803Y85723D01*
X63708Y85000D01*
X63803Y84277D01*
X64082Y83604D01*
X64216Y83429D01*
X64100Y82229D01*
X64100Y82229D01*
Y77114D01*
X63901D01*
Y74843D01*
X68814D01*
Y75709D01*
X68826Y75594D01*
X68862Y75492D01*
X68923Y75402D01*
X69007Y75324D01*
X69116Y75258D01*
X69250Y75204D01*
X69407Y75163D01*
X69589Y75132D01*
X69795Y75114D01*
X69837Y75113D01*
Y77114D01*
X69638D01*
Y78799D01*
X70837Y79163D01*
X70877Y79104D01*
X71316Y78665D01*
X71316Y78665D01*
X71608Y78470D01*
X71808Y78293D01*
X72331Y77161D01*
X72332Y77047D01*
X72286Y76855D01*
X72286D01*
X72286Y76576D01*
Y75113D01*
X72328Y75114D01*
X72534Y75132D01*
X72715Y75163D01*
X72873Y75204D01*
X73006Y75258D01*
X73115Y75324D01*
X73200Y75402D01*
X73261Y75492D01*
X73298Y75594D01*
X73310Y75709D01*
X73298Y73505D01*
X73286Y73582D01*
X73250Y73650D01*
X73190Y73711D01*
X73106Y73763D01*
X72998Y73808D01*
X72866Y73844D01*
X72710Y73872D01*
X72530Y73892D01*
X72286Y73901D01*
Y72773D01*
X72286Y72493D01*
X72286Y72493D01*
X72486Y71655D01*
X72486Y71655D01*
Y67701D01*
X72458Y67673D01*
X71390Y66904D01*
X71390Y66904D01*
X71387Y66906D01*
X71323Y66936D01*
X71119Y67093D01*
X70446Y67372D01*
X70196Y67405D01*
X70133Y67428D01*
X69556Y67524D01*
X69333Y67570D01*
X68932Y67677D01*
X68795Y67725D01*
X68682Y67771D01*
X68606Y67810D01*
X68604Y67812D01*
X66509Y69907D01*
X66046Y70216D01*
X65500Y70325D01*
X65500Y70325D01*
X62752D01*
X61556Y70792D01*
X60748Y70796D01*
X60729Y70792D01*
X60356Y70792D01*
X54444D01*
Y70000D01*
X39000D01*
Y56000D01*
X54444D01*
Y55019D01*
X61556D01*
Y55644D01*
X61611Y55653D01*
X61684Y55659D01*
X64961D01*
X64961Y55659D01*
X65507Y55768D01*
X65970Y56077D01*
X68140Y58247D01*
X71292D01*
X72486Y57693D01*
X73298Y57690D01*
X73317Y57693D01*
X73686Y57693D01*
X79795D01*
Y61000D01*
X93943Y61000D01*
Y57693D01*
X101252D01*
Y61000D01*
X113000D01*
Y52075D01*
X111299D01*
Y48319D01*
X110799D01*
Y47819D01*
X108252D01*
Y47024D01*
X108240Y47138D01*
X108204Y47240D01*
X108144Y47330D01*
X108060Y47408D01*
X107952Y47474D01*
X107820Y47528D01*
X107664Y47570D01*
X107484Y47600D01*
X107280Y47618D01*
X107240Y47620D01*
Y44563D01*
X106931Y44314D01*
X105737Y44300D01*
X104929Y44304D01*
X104910Y44300D01*
X104537Y44300D01*
X101652D01*
X101227Y44843D01*
X101681Y45781D01*
Y47724D01*
X98425D01*
Y46875D01*
X88894D01*
X88894Y46875D01*
X88582Y46813D01*
X88317Y46636D01*
X88317Y46636D01*
X87825Y46143D01*
X87648Y45879D01*
X87586Y45567D01*
X87586Y45567D01*
X87586Y40219D01*
X86737Y39370D01*
X77014D01*
X76949Y39863D01*
X76542Y40848D01*
X75893Y41693D01*
X75047Y42342D01*
X74062Y42750D01*
X73006Y42889D01*
X72861Y43016D01*
Y44662D01*
X74629D01*
X74629Y44662D01*
X75175Y44771D01*
X75638Y45080D01*
X76386Y45828D01*
X76594Y46021D01*
X76763Y46157D01*
X76869Y46231D01*
X79886D01*
Y46031D01*
X82157D01*
Y49000D01*
Y51968D01*
X79886D01*
Y51768D01*
X74771D01*
Y48438D01*
X74061Y47714D01*
X72861Y47943D01*
Y51181D01*
X35433Y51181D01*
X35433Y94488D01*
X45952Y94488D01*
X46115Y94276D01*
X46981Y93611D01*
X47990Y93194D01*
X49072Y93051D01*
X50155Y93194D01*
X51163Y93611D01*
X52030Y94276D01*
X52192Y94488D01*
X69533Y94488D01*
X69574Y94469D01*
D02*
G37*
G36*
X212598Y94408D02*
X212598D01*
Y20865D01*
Y19713D01*
X212589Y19699D01*
X212518Y19685D01*
X203224D01*
X202660Y20419D01*
X201876Y21021D01*
X200963Y21399D01*
X199984Y21528D01*
X199004Y21399D01*
X198091Y21021D01*
X197307Y20419D01*
X196744Y19685D01*
X184622D01*
X184437Y20132D01*
X183677Y21122D01*
X182688Y21881D01*
X181535Y22358D01*
X180299Y22521D01*
X179062Y22358D01*
X177910Y21881D01*
X176920Y21122D01*
X176161Y20132D01*
X175976Y19685D01*
X163854D01*
X163290Y20419D01*
X162506Y21021D01*
X161593Y21399D01*
X160614Y21528D01*
X159634Y21399D01*
X158721Y21021D01*
X157937Y20419D01*
X157374Y19685D01*
X114200D01*
X77965Y19685D01*
X76798Y20852D01*
Y28723D01*
X76949Y29088D01*
X77088Y30145D01*
Y38554D01*
X86737D01*
X87050Y38616D01*
X87670Y38518D01*
X88240Y38079D01*
X88317Y38002D01*
X88317Y38002D01*
X88317Y38002D01*
X88317Y38002D01*
X88428Y37928D01*
X88582Y37825D01*
X88582Y37825D01*
X88582Y37825D01*
X88753Y37791D01*
X88894Y37763D01*
X88894D01*
X88894Y37763D01*
X88894Y37763D01*
X98425D01*
Y36913D01*
X102181D01*
X105937D01*
Y37415D01*
X107137Y38190D01*
X107240Y38144D01*
Y36819D01*
X110799D01*
Y36319D01*
X111299D01*
Y32563D01*
X114358D01*
Y32763D01*
X120457D01*
Y39875D01*
X120019D01*
X119973Y39909D01*
X119564Y40420D01*
X119396Y41075D01*
X119418Y41104D01*
X119697Y41777D01*
X119792Y42500D01*
X119697Y43223D01*
X119556Y43563D01*
X119984Y44475D01*
X120266Y44763D01*
X120457D01*
Y51875D01*
X113980D01*
X113816Y52075D01*
Y61000D01*
X113754Y61312D01*
X113577Y61577D01*
X113312Y61754D01*
X113000Y61816D01*
X102030D01*
X101252Y62693D01*
Y66655D01*
X101252D01*
X101452Y67493D01*
X101452Y67493D01*
X101452Y67773D01*
Y69070D01*
X101412Y69069D01*
X101208Y69052D01*
X101028Y69023D01*
X100872Y68983D01*
X100740Y68932D01*
X100632Y68870D01*
X100548Y68796D01*
X100488Y68710D01*
X100452Y68613D01*
X100440Y68505D01*
Y69174D01*
X97597D01*
Y70174D01*
X100440D01*
Y70843D01*
X100452Y70735D01*
X100488Y70639D01*
X100548Y70553D01*
X100632Y70479D01*
X100740Y70417D01*
X100872Y70365D01*
X101028Y70326D01*
X101208Y70297D01*
X101412Y70280D01*
X101452Y70279D01*
Y71855D01*
X101452D01*
X101252Y72693D01*
X102452Y73038D01*
X102601Y72940D01*
X102835Y72768D01*
X102900Y72738D01*
X103104Y72582D01*
X103777Y72303D01*
X104500Y72208D01*
X105223Y72303D01*
X105896Y72582D01*
X106474Y73026D01*
X106918Y73604D01*
X107197Y74277D01*
X107292Y75000D01*
X107197Y75723D01*
X106918Y76396D01*
X106474Y76974D01*
X105896Y77418D01*
X105223Y77697D01*
X104500Y77792D01*
X103777Y77697D01*
X103104Y77418D01*
X102904Y77265D01*
X102843Y77237D01*
X102420Y76935D01*
X102079Y77143D01*
X101581Y77567D01*
X101452Y77739D01*
Y79174D01*
X97597D01*
Y80174D01*
X101452D01*
Y80830D01*
X108214D01*
X108964Y79944D01*
X108968Y79925D01*
Y76830D01*
X113914D01*
Y76830D01*
X114086D01*
Y76830D01*
X119032D01*
Y82170D01*
X118886D01*
X118660Y82397D01*
X118298Y83198D01*
X118288Y83370D01*
X119240Y84322D01*
X119449Y84516D01*
X119617Y84650D01*
X119731Y84730D01*
X120120D01*
X120138Y84726D01*
X120157Y84730D01*
X122772D01*
Y90070D01*
X117629D01*
Y87257D01*
X117625Y87239D01*
X117629Y87220D01*
Y86832D01*
X117556Y86727D01*
X117274Y86394D01*
X116438Y85557D01*
X110371D01*
Y87227D01*
X110426Y87236D01*
X110499Y87243D01*
X112469D01*
X112469Y87243D01*
X113015Y87351D01*
X113479Y87661D01*
X118744Y92927D01*
X118952Y93120D01*
X119121Y93255D01*
X119228Y93330D01*
X122272D01*
Y94488D01*
X144493D01*
X145551Y93430D01*
X145000Y92292D01*
X144277Y92197D01*
X143624Y91927D01*
X142572Y91572D01*
X142572Y91572D01*
X137457D01*
Y91772D01*
X135185D01*
Y88803D01*
Y86859D01*
X135344D01*
X135230Y86847D01*
X135185Y86831D01*
Y85835D01*
X135451D01*
X135935Y84904D01*
X135421Y83784D01*
X134873Y83784D01*
X134742D01*
X134732Y82771D01*
X134260D01*
Y80815D01*
Y77846D01*
X135110D01*
X135963Y77534D01*
X136491Y76991D01*
X136515Y76966D01*
X138866Y74616D01*
X138882Y74318D01*
X138760Y73784D01*
X138465Y73320D01*
X137731Y73243D01*
X137233Y73663D01*
X135946Y74950D01*
X135483Y75260D01*
X134937Y75368D01*
X134936Y75368D01*
X129811D01*
X129370Y76386D01*
X129370Y76386D01*
X129370D01*
X129370Y76386D01*
Y78559D01*
X123630D01*
Y76386D01*
X123830D01*
Y71468D01*
X129170D01*
Y72498D01*
X129224Y72507D01*
X129297Y72514D01*
X131976D01*
Y68616D01*
X131976Y68289D01*
X131974Y68282D01*
X131976Y67417D01*
X132727Y67417D01*
X132734Y67415D01*
X132813Y67409D01*
X132853Y67402D01*
X132910Y67384D01*
X132983Y67354D01*
X133072Y67307D01*
X133175Y67244D01*
X133281Y67168D01*
X133486Y66995D01*
X134674Y65807D01*
X134383Y65002D01*
X134118Y64666D01*
X125082D01*
X125082Y64666D01*
X124535Y64557D01*
X124072Y64248D01*
X124072Y64248D01*
X123252Y63428D01*
X122943Y62965D01*
X122834Y62419D01*
X122834Y62418D01*
Y54699D01*
X122834Y54699D01*
X122943Y54152D01*
X123252Y53689D01*
X130415Y46526D01*
Y42573D01*
X129265Y41379D01*
X128824D01*
X128661Y41379D01*
X124861D01*
Y33676D01*
X128661D01*
X128824Y33676D01*
X129232D01*
X129678Y33412D01*
X129918Y33030D01*
X129355Y31917D01*
X129265Y31828D01*
X128111Y31830D01*
Y32387D01*
X122574D01*
Y28272D01*
X122574Y27072D01*
X122252Y26751D01*
X121746Y26492D01*
X121396Y26418D01*
X120723Y26697D01*
X120000Y26792D01*
X119277Y26697D01*
X118604Y26418D01*
X118026Y25975D01*
X117582Y25396D01*
X117303Y24723D01*
X117208Y24000D01*
X117303Y23277D01*
X117582Y22604D01*
X118026Y22026D01*
X118604Y21582D01*
X119277Y21303D01*
X120000Y21208D01*
X120723Y21303D01*
X121396Y21582D01*
X121488Y21652D01*
X122574Y21928D01*
X122574Y21928D01*
Y21928D01*
X122574Y21928D01*
X128111D01*
X128111Y26485D01*
X129310Y26487D01*
X129311Y26487D01*
X133228D01*
X134257Y26487D01*
X135457Y26487D01*
X136847D01*
X136866Y26484D01*
X136884Y26487D01*
X137273D01*
X137378Y26414D01*
X137711Y26133D01*
X139181Y24662D01*
X139181Y24662D01*
X139644Y24353D01*
X140191Y24244D01*
X140544D01*
X140617Y24238D01*
X140672Y24229D01*
Y22125D01*
X146013D01*
Y27043D01*
X146213D01*
Y29217D01*
X143343D01*
Y30217D01*
X146213D01*
Y32390D01*
X144297D01*
X144024Y33476D01*
X144024Y33590D01*
Y37028D01*
X141842D01*
Y37528D01*
X141342D01*
Y41579D01*
X139941D01*
X139661Y41579D01*
X138544Y41379D01*
X135024D01*
X134861Y41379D01*
X134420D01*
X133270Y42573D01*
Y47117D01*
X133161Y47664D01*
X132852Y48127D01*
X132852Y48127D01*
X127351Y53628D01*
X127787Y54679D01*
X127176Y54475D01*
X126932Y54717D01*
X125807Y55697D01*
X125730Y55735D01*
X125673Y55748D01*
X128012D01*
X127942Y55740D01*
X127898Y55714D01*
X127878Y55672D01*
X127884Y55612D01*
X127915Y55536D01*
X127972Y55443D01*
X128053Y55332D01*
X128160Y55205D01*
X128449Y54900D01*
X127958Y54736D01*
X128744D01*
X129024Y54736D01*
X129024Y54736D01*
X129861Y54936D01*
X129861Y54936D01*
X131296D01*
X131315Y54932D01*
X131333Y54936D01*
X131722D01*
X131827Y54863D01*
X132160Y54581D01*
X134250Y52491D01*
X134714Y52181D01*
X135260Y52073D01*
X135260Y52073D01*
X139324D01*
X139870Y52181D01*
X140333Y52491D01*
X140642Y52954D01*
X140751Y53500D01*
X140704Y53736D01*
X140933Y54201D01*
X141700Y54439D01*
X142272Y54469D01*
X145764Y50977D01*
X145764Y50977D01*
X146227Y50668D01*
X146574Y50599D01*
Y48272D01*
X146374D01*
Y46105D01*
X146416Y46106D01*
X146622Y46124D01*
X146804Y46154D01*
X146962Y46196D01*
X147095Y46250D01*
X147204Y46316D01*
X147289Y46394D01*
X147350Y46484D01*
X147386Y46586D01*
X147398Y46700D01*
Y46000D01*
X152311D01*
Y48272D01*
X152111D01*
Y53387D01*
X152111D01*
X152072Y54587D01*
X152135Y55062D01*
X152040Y55785D01*
X151761Y56458D01*
X151317Y57037D01*
X150739Y57481D01*
X150065Y57760D01*
X149343Y57855D01*
X148620Y57760D01*
X147946Y57481D01*
X147368Y57037D01*
X146924Y56458D01*
X146645Y55785D01*
X145384Y55395D01*
X144231Y56547D01*
X144037Y56756D01*
X143903Y56924D01*
X143824Y57038D01*
Y57427D01*
X143827Y57445D01*
X143824Y57464D01*
Y62639D01*
X141868D01*
X141690Y62724D01*
X141491Y63384D01*
X142386Y64573D01*
X147409D01*
X158991Y52991D01*
X158991Y52991D01*
X159454Y52681D01*
X160000Y52573D01*
X185409D01*
X188714Y49268D01*
Y43817D01*
X186809Y40910D01*
X186339Y40280D01*
X186308Y40213D01*
X186003Y39817D01*
X185526Y38665D01*
X185363Y37428D01*
X185526Y36191D01*
X186003Y35039D01*
X186763Y34050D01*
X187752Y33290D01*
X188905Y32813D01*
X190141Y32650D01*
X191378Y32813D01*
X192530Y33290D01*
X193520Y34050D01*
X194279Y35039D01*
X194413Y35363D01*
X195712D01*
X195846Y35039D01*
X196605Y34050D01*
X197595Y33290D01*
X198747Y32813D01*
X199984Y32650D01*
X201220Y32813D01*
X202373Y33290D01*
X203362Y34050D01*
X204122Y35039D01*
X204599Y36191D01*
X204762Y37428D01*
X204599Y38665D01*
X204122Y39817D01*
X203820Y40210D01*
X203790Y40274D01*
X202500Y42036D01*
X201682Y43256D01*
X201526Y43519D01*
X201426Y43712D01*
X201411Y43747D01*
Y56378D01*
X201411Y56378D01*
X201303Y56925D01*
X200993Y57388D01*
X200993Y57388D01*
X200401Y57980D01*
X200267Y58122D01*
X200137Y58280D01*
X200039Y58413D01*
X200032Y58425D01*
Y58650D01*
X200036Y58669D01*
X200032Y58688D01*
Y61670D01*
X196114D01*
X195016Y61670D01*
X193868Y62864D01*
Y63889D01*
X194000Y64020D01*
X194246Y64234D01*
X194295Y64271D01*
X197768D01*
Y69414D01*
X197768D01*
Y69586D01*
X197768D01*
Y74729D01*
X192232D01*
Y73600D01*
X192178Y73591D01*
X192104Y73585D01*
X190896D01*
X190822Y73591D01*
X190769Y73600D01*
Y74729D01*
X189444D01*
X189434Y74788D01*
X189427Y74860D01*
Y76202D01*
X189434Y76275D01*
X189443Y76330D01*
X191386D01*
Y76130D01*
X193559D01*
Y79000D01*
Y81870D01*
X191386D01*
Y81670D01*
X186468D01*
Y77530D01*
X186468Y77217D01*
X186467Y77216D01*
X186467Y77154D01*
X186464Y77137D01*
X186468Y76330D01*
X186503Y75929D01*
X185532Y74729D01*
X185231D01*
Y73600D01*
X185178Y73591D01*
X185104Y73585D01*
X183982D01*
X183908Y73591D01*
X183855Y73600D01*
Y76509D01*
X176743D01*
Y74100D01*
X176689Y74091D01*
X176616Y74085D01*
X175396D01*
X175322Y74091D01*
X175268Y74100D01*
Y74729D01*
X174272D01*
X174032Y75830D01*
X174036Y76637D01*
X174033Y76654D01*
X174033Y76716D01*
X174032Y76717D01*
Y81170D01*
X169364Y81170D01*
X168937Y81602D01*
X168801Y81822D01*
X168725Y82370D01*
X168859Y82545D01*
X169138Y83218D01*
X169233Y83941D01*
X169138Y84664D01*
X168859Y85337D01*
X168415Y85915D01*
X167837Y86359D01*
X167164Y86638D01*
X166441Y86733D01*
X165718Y86638D01*
X165045Y86359D01*
X164466Y85915D01*
X164023Y85337D01*
X163744Y84664D01*
X163649Y83941D01*
X163744Y83218D01*
X164023Y82545D01*
X164157Y82370D01*
X164078Y81789D01*
X163968Y81170D01*
X163968Y81170D01*
Y77209D01*
X162768Y76712D01*
X155427Y84052D01*
Y92000D01*
X155319Y92546D01*
X155009Y93009D01*
X155009Y93009D01*
X154639Y93379D01*
X155098Y94488D01*
X211432D01*
X212598Y94408D01*
D02*
G37*
G36*
X78983Y90843D02*
X77195Y90832D01*
X77309Y90844D01*
X77411Y90881D01*
X77501Y90942D01*
X77579Y91027D01*
X77645Y91136D01*
X77699Y91270D01*
X77741Y91427D01*
X77771Y91608D01*
X77789Y91814D01*
X77795Y92044D01*
X78995D01*
X78983Y90843D01*
D02*
G37*
G36*
X143818Y87926D02*
X143566Y88111D01*
X142895Y88549D01*
X142701Y88657D01*
X142355Y88812D01*
X142292Y88833D01*
X142184Y88804D01*
X142051Y88750D01*
X141942Y88684D01*
X141857Y88606D01*
X141796Y88516D01*
X141760Y88414D01*
X141748Y88300D01*
Y90700D01*
X141760Y90586D01*
X141796Y90484D01*
X141857Y90394D01*
X141942Y90316D01*
X142051Y90250D01*
X142184Y90196D01*
X142292Y90167D01*
X142355Y90188D01*
X142521Y90256D01*
X142701Y90343D01*
X143105Y90577D01*
X143328Y90723D01*
X143818Y91074D01*
Y87926D01*
D02*
G37*
G36*
X100389Y89938D02*
X100368Y89847D01*
X100378Y89738D01*
X100417Y89613D01*
X100487Y89471D01*
X100587Y89312D01*
X100717Y89136D01*
X100877Y88942D01*
X101288Y88505D01*
X100440Y87657D01*
X100213Y87877D01*
X99809Y88228D01*
X99633Y88358D01*
X99474Y88458D01*
X99332Y88528D01*
X99207Y88567D01*
X99098Y88577D01*
X99007Y88556D01*
X98933Y88505D01*
X100440Y90012D01*
X100389Y89938D01*
D02*
G37*
G36*
X110759Y88070D02*
X110529Y88064D01*
X110324Y88046D01*
X110142Y88016D01*
X109985Y87974D01*
X109852Y87920D01*
X109743Y87854D01*
X109658Y87776D01*
X109597Y87686D01*
X109560Y87584D01*
X109547Y87470D01*
X109559Y89258D01*
X109571Y89260D01*
X109607Y89262D01*
X110759Y89270D01*
Y88070D01*
D02*
G37*
G36*
X77227Y88505D02*
X77125Y88469D01*
X77035Y88408D01*
X76957Y88323D01*
X76891Y88214D01*
X76837Y88081D01*
X76795Y87923D01*
X76765Y87742D01*
X76747Y87536D01*
X76741Y87305D01*
X75541D01*
X75535Y87536D01*
X75517Y87742D01*
X75487Y87923D01*
X75445Y88081D01*
X75391Y88214D01*
X75325Y88323D01*
X75247Y88408D01*
X75157Y88469D01*
X75055Y88505D01*
X74941Y88517D01*
X77341D01*
X77227Y88505D01*
D02*
G37*
G36*
X149508Y87930D02*
X149526Y87724D01*
X149556Y87542D01*
X149598Y87385D01*
X149652Y87251D01*
X149718Y87142D01*
X149796Y87058D01*
X149886Y86997D01*
X149988Y86961D01*
X150102Y86948D01*
X147702D01*
X147816Y86961D01*
X147918Y86997D01*
X148008Y87058D01*
X148086Y87142D01*
X148152Y87251D01*
X148206Y87385D01*
X148248Y87542D01*
X148278Y87724D01*
X148296Y87930D01*
X148302Y88160D01*
X149502D01*
X149508Y87930D01*
D02*
G37*
G36*
X140502Y86859D02*
X140381Y86896D01*
X140239Y86896D01*
X140077Y86860D01*
X139895Y86787D01*
X139693Y86677D01*
X139471Y86530D01*
X139228Y86346D01*
X138684Y85868D01*
X138381Y85574D01*
X137392Y86282D01*
X137656Y86554D01*
X138065Y87030D01*
X138211Y87234D01*
X138317Y87415D01*
X138383Y87574D01*
X138409Y87709D01*
X138397Y87822D01*
X138344Y87912D01*
X138252Y87979D01*
X140502Y86859D01*
D02*
G37*
G36*
X106040Y86552D02*
X106028Y86666D01*
X105992Y86768D01*
X105932Y86858D01*
X105848Y86936D01*
X105740Y87002D01*
X105608Y87056D01*
X105452Y87098D01*
X105272Y87128D01*
X105068Y87146D01*
X104840Y87152D01*
Y88352D01*
X105068Y88358D01*
X105272Y88376D01*
X105452Y88406D01*
X105608Y88448D01*
X105740Y88502D01*
X105848Y88568D01*
X105932Y88646D01*
X105992Y88736D01*
X106028Y88838D01*
X106040Y88952D01*
Y86552D01*
D02*
G37*
G36*
X76747Y86813D02*
X76765Y86607D01*
X76795Y86425D01*
X76837Y86268D01*
X76891Y86134D01*
X76957Y86025D01*
X77035Y85940D01*
X77125Y85880D01*
X77227Y85844D01*
X77341Y85831D01*
X74941D01*
X75055Y85844D01*
X75157Y85880D01*
X75247Y85940D01*
X75325Y86025D01*
X75391Y86134D01*
X75445Y86268D01*
X75487Y86425D01*
X75517Y86607D01*
X75535Y86813D01*
X75541Y87043D01*
X76741D01*
X76747Y86813D01*
D02*
G37*
G36*
X120138Y85542D02*
X120045Y85610D01*
X119934Y85644D01*
X119807D01*
X119663Y85610D01*
X119502Y85542D01*
X119324Y85440D01*
X119128Y85304D01*
X118916Y85135D01*
X118441Y84693D01*
X117593Y85542D01*
X117830Y85788D01*
X118203Y86229D01*
X118339Y86424D01*
X118441Y86602D01*
X118509Y86764D01*
X118543Y86908D01*
Y87035D01*
X118509Y87146D01*
X118441Y87239D01*
X120138Y85542D01*
D02*
G37*
G36*
X100452Y85216D02*
X100488Y85114D01*
X100548Y85024D01*
X100632Y84946D01*
X100740Y84880D01*
X100872Y84826D01*
X101028Y84784D01*
X101208Y84754D01*
X101412Y84736D01*
X101640Y84730D01*
Y83530D01*
X100440Y83505D01*
Y85330D01*
X100452Y85216D01*
D02*
G37*
G36*
X67889Y83566D02*
X67451Y82895D01*
X67343Y82701D01*
X67188Y82355D01*
X67139Y82204D01*
X67128Y82154D01*
X67154Y81999D01*
X67196Y81841D01*
X67250Y81708D01*
X67316Y81599D01*
X67394Y81514D01*
X67484Y81454D01*
X67586Y81417D01*
X67700Y81405D01*
X65300D01*
X65414Y81417D01*
X65516Y81454D01*
X65606Y81514D01*
X65684Y81599D01*
X65750Y81708D01*
X65804Y81841D01*
X65846Y81999D01*
X65872Y82154D01*
X65861Y82204D01*
X65812Y82355D01*
X65744Y82521D01*
X65657Y82701D01*
X65423Y83104D01*
X65277Y83328D01*
X64926Y83818D01*
X68074D01*
X67889Y83566D01*
D02*
G37*
G36*
X117165Y82328D02*
X117183Y82122D01*
X117213Y81940D01*
X117255Y81782D01*
X117309Y81649D01*
X117375Y81540D01*
X117453Y81455D01*
X117543Y81395D01*
X117645Y81358D01*
X117759Y81346D01*
X115359D01*
X115473Y81358D01*
X115575Y81395D01*
X115665Y81455D01*
X115743Y81540D01*
X115809Y81649D01*
X115863Y81782D01*
X115905Y81940D01*
X115935Y82122D01*
X115953Y82328D01*
X115959Y82558D01*
X117159D01*
X117165Y82328D01*
D02*
G37*
G36*
X167830Y82507D02*
X167392Y81836D01*
X167285Y81642D01*
X167129Y81296D01*
X167080Y81144D01*
X167069Y81095D01*
X167095Y80940D01*
X167137Y80782D01*
X167191Y80649D01*
X167257Y80540D01*
X167335Y80455D01*
X167425Y80395D01*
X167527Y80358D01*
X167641Y80346D01*
X165241D01*
X165355Y80358D01*
X165457Y80395D01*
X165547Y80455D01*
X165625Y80540D01*
X165691Y80649D01*
X165745Y80782D01*
X165787Y80940D01*
X165813Y81095D01*
X165802Y81144D01*
X165753Y81296D01*
X165685Y81462D01*
X165597Y81642D01*
X165364Y82045D01*
X165217Y82269D01*
X164867Y82759D01*
X168015D01*
X167830Y82507D01*
D02*
G37*
G36*
X109985Y81867D02*
X110353Y81556D01*
X110515Y81443D01*
X110664Y81358D01*
X110798Y81301D01*
X110918Y81273D01*
X111024D01*
X111116Y81301D01*
X111194Y81358D01*
X109780Y79944D01*
X109836Y80022D01*
X109865Y80114D01*
Y80220D01*
X109836Y80340D01*
X109780Y80474D01*
X109695Y80623D01*
X109582Y80785D01*
X109440Y80962D01*
X109073Y81358D01*
X109780Y82065D01*
X109985Y81867D01*
D02*
G37*
G36*
X142212Y81901D02*
X142249Y81799D01*
X142309Y81709D01*
X142394Y81631D01*
X142503Y81565D01*
X142637Y81511D01*
X142794Y81469D01*
X142976Y81439D01*
X143182Y81421D01*
X143412Y81415D01*
Y80215D01*
X143182Y80209D01*
X142976Y80191D01*
X142794Y80161D01*
X142637Y80119D01*
X142503Y80065D01*
X142394Y79999D01*
X142309Y79921D01*
X142249Y79831D01*
X142212Y79729D01*
X142200Y79615D01*
Y82015D01*
X142212Y81901D01*
D02*
G37*
G36*
X73310Y78702D02*
X73300Y78772D01*
X73271Y78836D01*
X73222Y78892D01*
X73153Y78940D01*
X73064Y78981D01*
X72956Y79015D01*
X72828Y79041D01*
X72680Y79059D01*
X72513Y79071D01*
X72326Y79074D01*
Y80274D01*
X72513Y80278D01*
X72828Y80308D01*
X72956Y80334D01*
X73064Y80367D01*
X73153Y80409D01*
X73222Y80457D01*
X73271Y80513D01*
X73300Y80576D01*
X73310Y80647D01*
Y78702D01*
D02*
G37*
G36*
X189086Y77141D02*
X188984Y77104D01*
X188894Y77043D01*
X188816Y76958D01*
X188750Y76849D01*
X188696Y76716D01*
X188654Y76559D01*
X188624Y76377D01*
X188606Y76171D01*
X188600Y75942D01*
X187400D01*
X187399Y76170D01*
X187341Y77034D01*
X187323Y77094D01*
X187303Y77130D01*
X187280Y77142D01*
X189200Y77154D01*
X189086Y77141D01*
D02*
G37*
G36*
X103318Y73426D02*
X103066Y73611D01*
X102395Y74049D01*
X102201Y74156D01*
X101855Y74312D01*
X101704Y74361D01*
X101567Y74390D01*
X101493Y74396D01*
X101412Y74394D01*
X101208Y74376D01*
X101028Y74346D01*
X100872Y74304D01*
X100740Y74250D01*
X100632Y74184D01*
X100548Y74106D01*
X100488Y74016D01*
X100452Y73914D01*
X100440Y73800D01*
Y75844D01*
X100452Y75797D01*
X100488Y75756D01*
X100548Y75719D01*
X100632Y75688D01*
X100740Y75661D01*
X100872Y75639D01*
X101028Y75622D01*
X101412Y75602D01*
X101467Y75602D01*
X101567Y75610D01*
X101704Y75639D01*
X101855Y75688D01*
X102021Y75756D01*
X102201Y75844D01*
X102604Y76077D01*
X102828Y76223D01*
X103318Y76574D01*
Y73426D01*
D02*
G37*
G36*
X173220Y76642D02*
X173197Y76630D01*
X173177Y76594D01*
X173159Y76534D01*
X173143Y76450D01*
X173130Y76342D01*
X173111Y76054D01*
X173100Y75442D01*
X171900D01*
X171894Y75671D01*
X171876Y75877D01*
X171846Y76059D01*
X171804Y76216D01*
X171750Y76349D01*
X171684Y76458D01*
X171606Y76543D01*
X171516Y76604D01*
X171414Y76641D01*
X171300Y76654D01*
X173220Y76642D01*
D02*
G37*
G36*
X149606Y75529D02*
X149624Y75323D01*
X149654Y75141D01*
X149696Y74983D01*
X149750Y74850D01*
X149816Y74741D01*
X149894Y74656D01*
X149984Y74595D01*
X150086Y74559D01*
X150200Y74547D01*
X147800D01*
X147914Y74559D01*
X148016Y74595D01*
X148106Y74656D01*
X148184Y74741D01*
X148250Y74850D01*
X148304Y74983D01*
X148346Y75141D01*
X148376Y75323D01*
X148394Y75529D01*
X148400Y75759D01*
X149600D01*
X149606Y75529D01*
D02*
G37*
G36*
X188606Y74889D02*
X188624Y74685D01*
X188654Y74505D01*
X188696Y74349D01*
X188750Y74217D01*
X188816Y74109D01*
X188894Y74025D01*
X188984Y73965D01*
X189086Y73929D01*
X189200Y73917D01*
X186800D01*
X186914Y73929D01*
X187016Y73965D01*
X187106Y74025D01*
X187184Y74109D01*
X187250Y74217D01*
X187304Y74349D01*
X187346Y74505D01*
X187376Y74685D01*
X187394Y74889D01*
X187400Y75117D01*
X188600D01*
X188606Y74889D01*
D02*
G37*
G36*
X173106D02*
X173124Y74685D01*
X173154Y74505D01*
X173196Y74349D01*
X173250Y74217D01*
X173316Y74109D01*
X173394Y74025D01*
X173484Y73965D01*
X173586Y73929D01*
X173700Y73917D01*
X171300D01*
X171414Y73929D01*
X171516Y73965D01*
X171606Y74025D01*
X171684Y74109D01*
X171750Y74217D01*
X171804Y74349D01*
X171846Y74505D01*
X171876Y74685D01*
X171894Y74889D01*
X171900Y75117D01*
X173100D01*
X173106Y74889D01*
D02*
G37*
G36*
X128358Y75027D02*
X128395Y74925D01*
X128455Y74835D01*
X128540Y74757D01*
X128649Y74691D01*
X128782Y74637D01*
X128940Y74595D01*
X129122Y74565D01*
X129328Y74547D01*
X129558Y74541D01*
Y73341D01*
X129328Y73335D01*
X129122Y73317D01*
X128940Y73287D01*
X128782Y73245D01*
X128649Y73191D01*
X128540Y73125D01*
X128455Y73047D01*
X128395Y72957D01*
X128358Y72855D01*
X128346Y72741D01*
Y75141D01*
X128358Y75027D01*
D02*
G37*
G36*
X163790Y74528D02*
X164231Y74155D01*
X164426Y74019D01*
X164604Y73917D01*
X164765Y73849D01*
X164910Y73815D01*
X165037D01*
X165147Y73849D01*
X165241Y73917D01*
X163543Y72220D01*
X163611Y72313D01*
X163645Y72424D01*
Y72551D01*
X163611Y72695D01*
X163543Y72856D01*
X163442Y73035D01*
X163306Y73230D01*
X163136Y73442D01*
X162695Y73917D01*
X163543Y74766D01*
X163790Y74528D01*
D02*
G37*
G36*
X141844Y73114D02*
X141874Y72729D01*
X141900Y72574D01*
X141933Y72442D01*
X141974Y72334D01*
X142023Y72250D01*
X142078Y72189D01*
X142142Y72154D01*
X142212Y72141D01*
X140268D01*
X140339Y72154D01*
X140402Y72189D01*
X140458Y72250D01*
X140506Y72334D01*
X140547Y72442D01*
X140581Y72574D01*
X140607Y72729D01*
X140625Y72909D01*
X140640Y73342D01*
X141840D01*
X141844Y73114D01*
D02*
G37*
G36*
X177567Y71457D02*
X177555Y71571D01*
X177518Y71674D01*
X177458Y71763D01*
X177373Y71842D01*
X177264Y71908D01*
X177130Y71961D01*
X176973Y72004D01*
X176791Y72034D01*
X176585Y72052D01*
X176355Y72057D01*
Y73257D01*
X176585Y73264D01*
X176791Y73282D01*
X176973Y73312D01*
X177130Y73353D01*
X177264Y73408D01*
X177373Y73474D01*
X177458Y73551D01*
X177518Y73642D01*
X177555Y73743D01*
X177567Y73857D01*
Y71457D01*
D02*
G37*
G36*
X174457Y73743D02*
X174493Y73642D01*
X174554Y73551D01*
X174638Y73474D01*
X174748Y73408D01*
X174881Y73353D01*
X175038Y73312D01*
X175220Y73282D01*
X175426Y73264D01*
X175656Y73257D01*
Y72057D01*
X175426Y72052D01*
X175220Y72034D01*
X175038Y72004D01*
X174881Y71961D01*
X174748Y71908D01*
X174638Y71842D01*
X174554Y71763D01*
X174493Y71674D01*
X174457Y71571D01*
X174444Y71457D01*
Y73857D01*
X174457Y73743D01*
D02*
G37*
G36*
X193055Y70957D02*
X193043Y71071D01*
X193007Y71174D01*
X192946Y71263D01*
X192862Y71342D01*
X192753Y71408D01*
X192619Y71461D01*
X192462Y71504D01*
X192280Y71534D01*
X192074Y71552D01*
X191843Y71557D01*
Y72758D01*
X192074Y72764D01*
X192280Y72781D01*
X192462Y72812D01*
X192619Y72853D01*
X192753Y72908D01*
X192862Y72974D01*
X192946Y73052D01*
X193007Y73141D01*
X193043Y73243D01*
X193055Y73357D01*
Y70957D01*
D02*
G37*
G36*
X189957Y73243D02*
X189993Y73141D01*
X190054Y73052D01*
X190138Y72974D01*
X190247Y72908D01*
X190381Y72853D01*
X190538Y72812D01*
X190720Y72781D01*
X190926Y72764D01*
X191156Y72758D01*
Y71557D01*
X190926Y71552D01*
X190720Y71534D01*
X190538Y71504D01*
X190381Y71461D01*
X190247Y71408D01*
X190138Y71342D01*
X190054Y71263D01*
X189993Y71174D01*
X189957Y71071D01*
X189945Y70957D01*
Y73357D01*
X189957Y73243D01*
D02*
G37*
G36*
X186056Y70957D02*
X186043Y71071D01*
X186007Y71174D01*
X185946Y71263D01*
X185862Y71342D01*
X185752Y71408D01*
X185619Y71461D01*
X185462Y71504D01*
X185280Y71534D01*
X185074Y71552D01*
X184844Y71557D01*
Y72758D01*
X185074Y72764D01*
X185280Y72781D01*
X185462Y72812D01*
X185619Y72853D01*
X185752Y72908D01*
X185862Y72974D01*
X185946Y73052D01*
X186007Y73141D01*
X186043Y73243D01*
X186056Y73357D01*
Y70957D01*
D02*
G37*
G36*
X183043Y73243D02*
X183079Y73141D01*
X183140Y73052D01*
X183225Y72974D01*
X183334Y72908D01*
X183467Y72853D01*
X183624Y72812D01*
X183806Y72781D01*
X184012Y72764D01*
X184243Y72758D01*
Y71557D01*
X184012Y71552D01*
X183806Y71534D01*
X183624Y71504D01*
X183467Y71461D01*
X183334Y71408D01*
X183225Y71342D01*
X183140Y71263D01*
X183079Y71174D01*
X183043Y71071D01*
X183031Y70957D01*
Y73357D01*
X183043Y73243D01*
D02*
G37*
G36*
X170555Y70957D02*
X170543Y71071D01*
X170507Y71174D01*
X170446Y71263D01*
X170362Y71342D01*
X170253Y71408D01*
X170119Y71461D01*
X169962Y71504D01*
X169780Y71534D01*
X169574Y71552D01*
X169343Y71557D01*
Y72758D01*
X169574Y72764D01*
X169780Y72781D01*
X169962Y72812D01*
X170119Y72853D01*
X170253Y72908D01*
X170362Y72974D01*
X170446Y73052D01*
X170507Y73141D01*
X170543Y73243D01*
X170555Y73357D01*
Y70957D01*
D02*
G37*
G36*
X167457Y73243D02*
X167493Y73141D01*
X167554Y73052D01*
X167638Y72974D01*
X167747Y72908D01*
X167881Y72853D01*
X168038Y72812D01*
X168220Y72781D01*
X168426Y72764D01*
X168657Y72758D01*
Y71557D01*
X168426Y71552D01*
X168220Y71534D01*
X168038Y71504D01*
X167881Y71461D01*
X167747Y71408D01*
X167638Y71342D01*
X167554Y71263D01*
X167493Y71174D01*
X167457Y71071D01*
X167445Y70957D01*
Y73357D01*
X167457Y73243D01*
D02*
G37*
G36*
X79831Y70843D02*
X79594Y70597D01*
X79221Y70156D01*
X79085Y69961D01*
X78983Y69783D01*
X78915Y69622D01*
X78881Y69477D01*
Y69350D01*
X78915Y69240D01*
X78983Y69146D01*
X77286Y70843D01*
X77379Y70776D01*
X77490Y70742D01*
X77617D01*
X77761Y70776D01*
X77922Y70843D01*
X78101Y70945D01*
X78296Y71081D01*
X78508Y71251D01*
X78983Y71692D01*
X79831Y70843D01*
D02*
G37*
G36*
X136629Y73106D02*
X137441Y72421D01*
X137665Y72274D01*
X137865Y72167D01*
X138042Y72100D01*
X138196Y72073D01*
X138326Y72087D01*
X138433Y72141D01*
X136528Y70653D01*
X136605Y70737D01*
X136646Y70840D01*
X136651Y70962D01*
X136621Y71103D01*
X136554Y71263D01*
X136451Y71442D01*
X136312Y71641D01*
X136137Y71858D01*
X135679Y72350D01*
X136312Y73414D01*
X136629Y73106D01*
D02*
G37*
G36*
X60756Y69889D02*
X60792Y69806D01*
X60852Y69734D01*
X60936Y69671D01*
X61044Y69618D01*
X61176Y69575D01*
X61332Y69541D01*
X61512Y69517D01*
X61716Y69503D01*
X61944Y69498D01*
Y68298D01*
X61714Y68292D01*
X61509Y68274D01*
X61327Y68244D01*
X61170Y68202D01*
X61036Y68148D01*
X60927Y68082D01*
X60842Y68004D01*
X60781Y67914D01*
X60745Y67812D01*
X60732Y67698D01*
X60744Y69980D01*
X60756Y69889D01*
D02*
G37*
G36*
X134637Y69389D02*
X134591Y69293D01*
X134583Y69175D01*
X134613Y69037D01*
X134680Y68878D01*
X134785Y68697D01*
X134927Y68496D01*
X135108Y68274D01*
X135581Y67768D01*
X134272Y67380D01*
X134104Y67541D01*
X133782Y67813D01*
X133627Y67923D01*
X133476Y68016D01*
X133330Y68093D01*
X133188Y68152D01*
X133050Y68195D01*
X132917Y68220D01*
X132788Y68229D01*
X134720Y69465D01*
X134637Y69389D01*
D02*
G37*
G36*
X138384Y69634D02*
X138344Y69532D01*
X138340Y69411D01*
X138372Y69270D01*
X138440Y69110D01*
X138544Y68930D01*
X138684Y68732D01*
X138861Y68514D01*
X139321Y68020D01*
X138688Y66956D01*
X138370Y67266D01*
X137556Y67954D01*
X137332Y68103D01*
X137132Y68211D01*
X136955Y68279D01*
X136802Y68306D01*
X136673Y68294D01*
X136567Y68240D01*
X138460Y69717D01*
X138384Y69634D01*
D02*
G37*
G36*
X189957Y68178D02*
X189993Y68076D01*
X190054Y67987D01*
X190138Y67909D01*
X190247Y67843D01*
X190381Y67788D01*
X190538Y67747D01*
X190720Y67716D01*
X190926Y67699D01*
X191156Y67693D01*
Y66492D01*
X190926Y66487D01*
X190720Y66469D01*
X190538Y66439D01*
X190381Y66396D01*
X190247Y66343D01*
X190138Y66277D01*
X190054Y66198D01*
X189993Y66109D01*
X189957Y66006D01*
X189945Y65892D01*
Y68292D01*
X189957Y68178D01*
D02*
G37*
G36*
X186056Y65642D02*
X186043Y65756D01*
X186007Y65859D01*
X185946Y65948D01*
X185862Y66027D01*
X185752Y66092D01*
X185619Y66146D01*
X185462Y66189D01*
X185280Y66219D01*
X185074Y66237D01*
X184844Y66242D01*
Y67443D01*
X185074Y67449D01*
X185280Y67466D01*
X185462Y67497D01*
X185619Y67538D01*
X185752Y67593D01*
X185862Y67659D01*
X185946Y67737D01*
X186007Y67826D01*
X186043Y67928D01*
X186056Y68042D01*
Y65642D01*
D02*
G37*
G36*
X183043Y67928D02*
X183079Y67826D01*
X183140Y67737D01*
X183225Y67659D01*
X183334Y67593D01*
X183467Y67538D01*
X183624Y67497D01*
X183806Y67466D01*
X184012Y67449D01*
X184243Y67443D01*
Y66242D01*
X184012Y66237D01*
X183806Y66219D01*
X183624Y66189D01*
X183467Y66146D01*
X183334Y66092D01*
X183225Y66027D01*
X183140Y65948D01*
X183079Y65859D01*
X183043Y65756D01*
X183031Y65642D01*
Y68042D01*
X183043Y67928D01*
D02*
G37*
G36*
X177567Y65642D02*
X177555Y65756D01*
X177518Y65859D01*
X177458Y65948D01*
X177373Y66027D01*
X177264Y66092D01*
X177130Y66146D01*
X176973Y66189D01*
X176791Y66219D01*
X176585Y66237D01*
X176355Y66242D01*
Y67443D01*
X176585Y67449D01*
X176791Y67466D01*
X176973Y67497D01*
X177130Y67538D01*
X177264Y67593D01*
X177373Y67659D01*
X177458Y67737D01*
X177518Y67826D01*
X177555Y67928D01*
X177567Y68042D01*
Y65642D01*
D02*
G37*
G36*
X174457Y67928D02*
X174493Y67826D01*
X174554Y67737D01*
X174638Y67659D01*
X174748Y67593D01*
X174881Y67538D01*
X175038Y67497D01*
X175220Y67466D01*
X175426Y67449D01*
X175656Y67443D01*
Y66242D01*
X175426Y66237D01*
X175220Y66219D01*
X175038Y66189D01*
X174881Y66146D01*
X174748Y66092D01*
X174638Y66027D01*
X174554Y65948D01*
X174493Y65859D01*
X174457Y65756D01*
X174444Y65642D01*
Y68042D01*
X174457Y67928D01*
D02*
G37*
G36*
X170555Y65642D02*
X170543Y65756D01*
X170507Y65859D01*
X170446Y65948D01*
X170362Y66027D01*
X170253Y66092D01*
X170119Y66146D01*
X169962Y66189D01*
X169780Y66219D01*
X169574Y66237D01*
X169343Y66242D01*
Y67443D01*
X169574Y67449D01*
X169780Y67466D01*
X169962Y67497D01*
X170119Y67538D01*
X170253Y67593D01*
X170362Y67659D01*
X170446Y67737D01*
X170507Y67826D01*
X170543Y67928D01*
X170555Y68042D01*
Y65642D01*
D02*
G37*
G36*
X167457Y67928D02*
X167493Y67826D01*
X167554Y67737D01*
X167638Y67659D01*
X167747Y67593D01*
X167881Y67538D01*
X168038Y67497D01*
X168220Y67466D01*
X168426Y67449D01*
X168657Y67443D01*
Y66242D01*
X168426Y66237D01*
X168220Y66219D01*
X168038Y66189D01*
X167881Y66146D01*
X167747Y66092D01*
X167638Y66027D01*
X167554Y65948D01*
X167493Y65859D01*
X167457Y65756D01*
X167445Y65642D01*
Y68042D01*
X167457Y67928D01*
D02*
G37*
G36*
X193055Y66122D02*
X193076Y66185D01*
X193078Y66245D01*
X193055Y66288D01*
X194249Y65095D01*
X194206Y65117D01*
X194145Y65116D01*
X194068Y65090D01*
X193973Y65040D01*
X193861Y64966D01*
X193732Y64868D01*
X193422Y64599D01*
X193043Y64234D01*
X192195Y65083D01*
X192390Y65281D01*
X192927Y65901D01*
X193000Y66013D01*
X193025Y66059D01*
X193007Y66109D01*
X192946Y66198D01*
X192862Y66277D01*
X192753Y66343D01*
X192619Y66396D01*
X192462Y66439D01*
X192280Y66469D01*
X192074Y66487D01*
X191843Y66492D01*
Y67693D01*
X192074Y67699D01*
X192280Y67716D01*
X192462Y67747D01*
X192619Y67788D01*
X192753Y67843D01*
X192862Y67909D01*
X192946Y67987D01*
X193007Y68076D01*
X193043Y68178D01*
X193055Y68292D01*
Y66122D01*
D02*
G37*
G36*
X164630Y65095D02*
X164599Y65107D01*
X164551Y65097D01*
X164485Y65065D01*
X164402Y65012D01*
X164302Y64936D01*
X164050Y64721D01*
X163543Y64234D01*
X162695Y65083D01*
X162879Y65269D01*
X163472Y65942D01*
X163526Y66025D01*
X163557Y66090D01*
X163567Y66139D01*
X163556Y66170D01*
X164630Y65095D01*
D02*
G37*
G36*
X68080Y67180D02*
X68197Y67103D01*
X68339Y67031D01*
X68504Y66962D01*
X68694Y66896D01*
X69144Y66776D01*
X69406Y66722D01*
X70000Y66623D01*
X67774Y64397D01*
X67726Y64706D01*
X67563Y65490D01*
X67501Y65704D01*
X67366Y66058D01*
X67294Y66200D01*
X67217Y66317D01*
X67138Y66411D01*
X67986Y67260D01*
X68080Y67180D01*
D02*
G37*
G36*
X71157Y66063D02*
X71827Y65625D01*
X72022Y65518D01*
X72368Y65362D01*
X72519Y65313D01*
X72568Y65303D01*
X72710Y65326D01*
X72866Y65365D01*
X72998Y65417D01*
X73106Y65479D01*
X73190Y65553D01*
X73250Y65639D01*
X73286Y65735D01*
X73298Y65843D01*
Y63505D01*
X73286Y63613D01*
X73250Y63710D01*
X73190Y63796D01*
X73106Y63870D01*
X72998Y63932D01*
X72866Y63983D01*
X72710Y64023D01*
X72568Y64046D01*
X72519Y64035D01*
X72368Y63987D01*
X72202Y63919D01*
X72022Y63831D01*
X71618Y63597D01*
X71395Y63451D01*
X70905Y63100D01*
Y66248D01*
X71157Y66063D01*
D02*
G37*
G36*
X98683Y63505D02*
X98581Y63469D01*
X98491Y63408D01*
X98413Y63323D01*
X98347Y63214D01*
X98293Y63081D01*
X98251Y62923D01*
X98221Y62742D01*
X98203Y62536D01*
X98197Y62305D01*
X96997D01*
X96991Y62536D01*
X96973Y62742D01*
X96943Y62923D01*
X96901Y63081D01*
X96847Y63214D01*
X96781Y63323D01*
X96703Y63408D01*
X96613Y63469D01*
X96511Y63505D01*
X96397Y63517D01*
X98797D01*
X98683Y63505D01*
D02*
G37*
G36*
X93708Y78124D02*
X93905Y77762D01*
X93743Y76856D01*
X93743Y76855D01*
X93743Y76855D01*
Y75174D01*
X97597D01*
Y74174D01*
X93743D01*
Y72773D01*
X93743Y72493D01*
X93743Y72493D01*
X93943Y71655D01*
X93943Y71655D01*
Y67856D01*
X93943Y67693D01*
X93943D01*
Y66655D01*
X93943D01*
Y63016D01*
X93165Y61816D01*
X80573Y61816D01*
X79795Y62693D01*
Y65920D01*
X80041Y65969D01*
X80471Y66256D01*
X87806Y73592D01*
X88094Y74022D01*
X88130Y74207D01*
X92324Y78400D01*
X93708Y78124D01*
D02*
G37*
G36*
X193047Y61828D02*
X193065Y61622D01*
X193095Y61440D01*
X193137Y61282D01*
X193191Y61149D01*
X193257Y61040D01*
X193335Y60955D01*
X193425Y60895D01*
X193527Y60858D01*
X193641Y60846D01*
X191241D01*
X191355Y60858D01*
X191457Y60895D01*
X191547Y60955D01*
X191625Y61040D01*
X191691Y61149D01*
X191745Y61282D01*
X191787Y61440D01*
X191817Y61622D01*
X191835Y61828D01*
X191841Y62058D01*
X193041D01*
X193047Y61828D01*
D02*
G37*
G36*
X163606D02*
X163624Y61622D01*
X163654Y61440D01*
X163696Y61282D01*
X163750Y61149D01*
X163816Y61040D01*
X163894Y60955D01*
X163984Y60895D01*
X164086Y60858D01*
X164200Y60846D01*
X161800D01*
X161914Y60858D01*
X162016Y60895D01*
X162106Y60955D01*
X162184Y61040D01*
X162250Y61149D01*
X162304Y61282D01*
X162346Y61440D01*
X162376Y61622D01*
X162394Y61828D01*
X162400Y62058D01*
X163600D01*
X163606Y61828D01*
D02*
G37*
G36*
X98203Y61813D02*
X98221Y61607D01*
X98251Y61425D01*
X98293Y61268D01*
X98347Y61134D01*
X98413Y61025D01*
X98491Y60940D01*
X98581Y60880D01*
X98683Y60844D01*
X98797Y60831D01*
X96397D01*
X96511Y60844D01*
X96613Y60880D01*
X96703Y60940D01*
X96781Y61025D01*
X96847Y61134D01*
X96901Y61268D01*
X96943Y61425D01*
X96973Y61607D01*
X96991Y61813D01*
X96997Y62043D01*
X98197D01*
X98203Y61813D01*
D02*
G37*
G36*
X135921Y62436D02*
X136363Y62061D01*
X136559Y61924D01*
X136737Y61821D01*
X136898Y61752D01*
X137042Y61716D01*
X137169Y61715D01*
X137278Y61748D01*
X137371Y61815D01*
X135685Y60129D01*
X135752Y60222D01*
X135785Y60331D01*
X135784Y60458D01*
X135749Y60602D01*
X135679Y60763D01*
X135576Y60941D01*
X135439Y61137D01*
X135268Y61349D01*
X134825Y61827D01*
X135673Y62675D01*
X135921Y62436D01*
D02*
G37*
G36*
X171318Y57426D02*
X171066Y57611D01*
X170396Y58049D01*
X170201Y58157D01*
X170037Y58230D01*
X169961Y58184D01*
X169876Y58106D01*
X169816Y58016D01*
X169780Y57914D01*
X169767Y57800D01*
Y58341D01*
X169704Y58361D01*
X169567Y58390D01*
X169444Y58400D01*
Y59600D01*
X169567Y59610D01*
X169704Y59639D01*
X169767Y59659D01*
Y60200D01*
X169780Y60086D01*
X169816Y59984D01*
X169876Y59894D01*
X169961Y59816D01*
X170043Y59767D01*
X170201Y59843D01*
X170605Y60077D01*
X170828Y60223D01*
X171318Y60574D01*
Y57426D01*
D02*
G37*
G36*
X54063Y66449D02*
X54063Y59362D01*
X41465Y59362D01*
X41464Y66449D01*
X54063Y66449D01*
D02*
G37*
G36*
X73298Y58505D02*
X73286Y58613D01*
X73250Y58710D01*
X73190Y58795D01*
X73106Y58869D01*
X72998Y58932D01*
X72866Y58983D01*
X72710Y59023D01*
X72530Y59052D01*
X72326Y59069D01*
X72098Y59074D01*
Y60274D01*
X72326Y60280D01*
X72530Y60297D01*
X72710Y60326D01*
X72866Y60365D01*
X72998Y60417D01*
X73106Y60479D01*
X73190Y60553D01*
X73250Y60639D01*
X73286Y60735D01*
X73298Y60843D01*
Y58505D01*
D02*
G37*
G36*
X185417Y59901D02*
X185453Y59838D01*
X185513Y59782D01*
X185597Y59734D01*
X185705Y59693D01*
X185837Y59660D01*
X185993Y59633D01*
X186173Y59615D01*
X186605Y59600D01*
Y58400D01*
X186377Y58396D01*
X185993Y58367D01*
X185837Y58340D01*
X185705Y58307D01*
X185597Y58266D01*
X185513Y58218D01*
X185453Y58162D01*
X185417Y58099D01*
X185405Y58028D01*
Y59972D01*
X185417Y59901D01*
D02*
G37*
G36*
X173934Y60389D02*
X174604Y59951D01*
X174799Y59843D01*
X175019Y59745D01*
X175085Y59782D01*
X175145Y59838D01*
X175181Y59901D01*
X175193Y59972D01*
Y59672D01*
X175296Y59639D01*
X175433Y59610D01*
X175556Y59600D01*
Y58400D01*
X175433Y58390D01*
X175296Y58361D01*
X175193Y58328D01*
Y58028D01*
X175181Y58099D01*
X175145Y58162D01*
X175085Y58218D01*
X175014Y58258D01*
X174979Y58244D01*
X174799Y58157D01*
X174396Y57923D01*
X174172Y57777D01*
X173682Y57426D01*
Y60574D01*
X173934Y60389D01*
D02*
G37*
G36*
X190792Y57800D02*
X190780Y57914D01*
X190743Y58016D01*
X190683Y58106D01*
X190598Y58184D01*
X190489Y58250D01*
X190355Y58304D01*
X190198Y58346D01*
X190016Y58376D01*
X189810Y58394D01*
X189580Y58400D01*
Y59600D01*
X189810Y59606D01*
X190016Y59624D01*
X190198Y59654D01*
X190355Y59696D01*
X190489Y59750D01*
X190598Y59816D01*
X190683Y59894D01*
X190743Y59984D01*
X190780Y60086D01*
X190792Y60200D01*
Y57800D01*
D02*
G37*
G36*
X199168Y58593D02*
X199146Y58499D01*
X199154Y58389D01*
X199193Y58262D01*
X199263Y58118D01*
X199363Y57956D01*
X199494Y57778D01*
X199655Y57583D01*
X200069Y57142D01*
X199220Y56293D01*
X198991Y56516D01*
X198584Y56869D01*
X198406Y56999D01*
X198245Y57099D01*
X198100Y57169D01*
X197973Y57208D01*
X197863Y57217D01*
X197770Y57195D01*
X197693Y57142D01*
X199220Y58669D01*
X199168Y58593D01*
D02*
G37*
G36*
X60756Y58077D02*
X60792Y57995D01*
X60852Y57923D01*
X60936Y57860D01*
X61044Y57807D01*
X61176Y57764D01*
X61332Y57730D01*
X61512Y57706D01*
X61716Y57691D01*
X61944Y57687D01*
Y56487D01*
X61714Y56481D01*
X61509Y56463D01*
X61327Y56433D01*
X61170Y56391D01*
X61036Y56337D01*
X60927Y56271D01*
X60842Y56193D01*
X60781Y56103D01*
X60745Y56001D01*
X60732Y55887D01*
X60744Y58169D01*
X60756Y58077D01*
D02*
G37*
G36*
X142944Y57352D02*
X142910Y57242D01*
Y57114D01*
X142944Y56970D01*
X143012Y56809D01*
X143113Y56631D01*
X143249Y56436D01*
X143419Y56223D01*
X143860Y55748D01*
X143012Y54900D01*
X142766Y55137D01*
X142324Y55511D01*
X142129Y55646D01*
X141951Y55748D01*
X141790Y55816D01*
X141646Y55850D01*
X141518D01*
X141408Y55816D01*
X141315Y55748D01*
X143012Y57445D01*
X142944Y57352D01*
D02*
G37*
G36*
X132944D02*
X132910Y57242D01*
Y57114D01*
X132944Y56970D01*
X133012Y56809D01*
X133113Y56631D01*
X133249Y56436D01*
X133419Y56223D01*
X133860Y55748D01*
X133012Y54900D01*
X132766Y55137D01*
X132324Y55511D01*
X132129Y55646D01*
X131951Y55748D01*
X131790Y55816D01*
X131646Y55850D01*
X131518D01*
X131408Y55816D01*
X131315Y55748D01*
X133012Y57445D01*
X132944Y57352D01*
D02*
G37*
G36*
X150732Y53628D02*
X150293Y52958D01*
X150186Y52763D01*
X150175Y52739D01*
X150236Y52672D01*
X150327Y52611D01*
X150428Y52575D01*
X150542Y52563D01*
X150096D01*
X150030Y52417D01*
X149981Y52266D01*
X149952Y52129D01*
X149943Y52006D01*
X148742D01*
X148733Y52129D01*
X148704Y52266D01*
X148655Y52417D01*
X148595Y52563D01*
X148143D01*
X148257Y52575D01*
X148359Y52611D01*
X148449Y52672D01*
X148511Y52739D01*
X148499Y52763D01*
X148265Y53167D01*
X148119Y53390D01*
X147768Y53880D01*
X150917D01*
X150732Y53628D01*
D02*
G37*
G36*
X147386Y52575D02*
X147398Y51374D01*
X147392Y51376D01*
X147373Y51378D01*
X147342Y51380D01*
X146773Y51387D01*
Y52587D01*
X147386Y52575D01*
D02*
G37*
G36*
X77280Y47056D02*
X77188Y47122D01*
X77078Y47155D01*
X76951Y47154D01*
X76808Y47119D01*
X76647Y47049D01*
X76468Y46946D01*
X76273Y46810D01*
X76060Y46639D01*
X75583Y46195D01*
X74734Y47043D01*
X74973Y47291D01*
X75349Y47733D01*
X75486Y47929D01*
X75589Y48107D01*
X75658Y48268D01*
X75693Y48412D01*
X75694Y48539D01*
X75661Y48648D01*
X75595Y48741D01*
X77280Y47056D01*
D02*
G37*
G36*
X62049Y47173D02*
X62091Y47071D01*
X62160Y46982D01*
X62257Y46904D01*
X62382Y46839D01*
X62534Y46785D01*
X62715Y46743D01*
X62923Y46713D01*
X63158Y46696D01*
X63422Y46690D01*
Y45489D01*
X63158Y45483D01*
X62923Y45466D01*
X62715Y45436D01*
X62534Y45394D01*
X62382Y45340D01*
X62257Y45275D01*
X62160Y45197D01*
X62091Y45108D01*
X62049Y45006D01*
X62035Y44893D01*
Y47286D01*
X62049Y47173D01*
D02*
G37*
G36*
X118086Y45575D02*
X117984Y45538D01*
X117894Y45478D01*
X117816Y45393D01*
X117750Y45284D01*
X117696Y45151D01*
X117692Y45135D01*
X117756Y44979D01*
X117843Y44799D01*
X118077Y44396D01*
X118223Y44172D01*
X118574Y43682D01*
X115783D01*
X115851Y41318D01*
X118574D01*
X118389Y41066D01*
X117951Y40396D01*
X117843Y40201D01*
X117688Y39855D01*
X117642Y39715D01*
X117654Y39645D01*
X117696Y39487D01*
X117750Y39354D01*
X117816Y39245D01*
X117894Y39160D01*
X117984Y39099D01*
X118086Y39063D01*
X118200Y39051D01*
X115800D01*
X115914Y39063D01*
X116016Y39099D01*
X116106Y39160D01*
X116184Y39245D01*
X116250Y39354D01*
X116304Y39487D01*
X116346Y39645D01*
X116358Y39715D01*
X116312Y39855D01*
X116244Y40021D01*
X116156Y40201D01*
X115923Y40604D01*
X115777Y40828D01*
X115601Y41073D01*
X114939Y41479D01*
X114743Y41580D01*
X114394Y41727D01*
X114240Y41773D01*
X114101Y41800D01*
X114000Y41808D01*
X113899Y41800D01*
X113760Y41773D01*
X113606Y41727D01*
X113439Y41663D01*
X113257Y41580D01*
X112851Y41360D01*
X112627Y41223D01*
X112136Y40893D01*
X111000Y42406D01*
X112227Y44039D01*
X112478Y43844D01*
X113144Y43380D01*
X113337Y43267D01*
X113679Y43102D01*
X113828Y43051D01*
X113963Y43020D01*
X114000Y43016D01*
X114037Y43020D01*
X114172Y43051D01*
X114321Y43102D01*
X114485Y43174D01*
X114663Y43267D01*
X115063Y43514D01*
X115285Y43669D01*
X115581Y43893D01*
X115611Y43934D01*
X116049Y44605D01*
X116156Y44799D01*
X116308Y45136D01*
X116304Y45151D01*
X116250Y45284D01*
X116184Y45393D01*
X116106Y45478D01*
X116016Y45538D01*
X115914Y45575D01*
X115800Y45587D01*
X118200D01*
X118086Y45575D01*
D02*
G37*
G36*
X104937Y43397D02*
X104973Y43316D01*
X105033Y43244D01*
X105117Y43182D01*
X105225Y43129D01*
X105357Y43086D01*
X105513Y43053D01*
X105693Y43029D01*
X105897Y43014D01*
X106125Y43009D01*
Y41809D01*
X105895Y41803D01*
X105690Y41785D01*
X105508Y41756D01*
X105351Y41714D01*
X105218Y41659D01*
X105108Y41594D01*
X105023Y41515D01*
X104963Y41425D01*
X104926Y41324D01*
X104913Y41209D01*
X104925Y43488D01*
X104937Y43397D01*
D02*
G37*
G36*
X111000Y42406D02*
X109864Y40893D01*
X109373Y41223D01*
X109149Y41360D01*
X108743Y41580D01*
X108561Y41663D01*
X108394Y41727D01*
X108240Y41773D01*
X108101Y41800D01*
X107975Y41809D01*
X107917Y43009D01*
X108037Y43020D01*
X108172Y43051D01*
X108321Y43102D01*
X108663Y43267D01*
X108856Y43380D01*
X109522Y43844D01*
X109773Y44039D01*
X111000Y42406D01*
D02*
G37*
G36*
X132448Y41539D02*
X132465Y41335D01*
X132494Y41155D01*
X132534Y40999D01*
X132585Y40867D01*
X132647Y40759D01*
X132721Y40675D01*
X132807Y40615D01*
X132904Y40579D01*
X133012Y40567D01*
X130673D01*
X130781Y40579D01*
X130878Y40615D01*
X130964Y40675D01*
X131038Y40759D01*
X131100Y40867D01*
X131151Y40999D01*
X131191Y41155D01*
X131220Y41335D01*
X131237Y41539D01*
X131243Y41767D01*
X132442D01*
X132448Y41539D01*
D02*
G37*
G36*
X200609Y43553D02*
X200686Y43367D01*
X200813Y43123D01*
X200992Y42821D01*
X201832Y41567D01*
X203132Y39792D01*
X196836D01*
X197320Y40442D01*
X199358Y43553D01*
X199384Y43681D01*
X200584D01*
X200609Y43553D01*
D02*
G37*
G36*
X190767D02*
X190843Y43367D01*
X190971Y43123D01*
X191149Y42821D01*
X191990Y41567D01*
X193289Y39792D01*
X186993D01*
X187477Y40442D01*
X189516Y43553D01*
X189541Y43681D01*
X190741D01*
X190767Y43553D01*
D02*
G37*
G36*
X101000Y43500D02*
Y41138D01*
X98441Y38579D01*
X88894D01*
X88402Y39071D01*
X88401Y45567D01*
X88894Y46059D01*
X98441D01*
X101000Y43500D01*
D02*
G37*
G36*
X142947Y34476D02*
X142889Y34440D01*
X142839Y34380D01*
X142795Y34296D01*
X142757Y34188D01*
X142727Y34056D01*
X142703Y33900D01*
X142686Y33720D01*
X142672Y33288D01*
X141472D01*
X141466Y33516D01*
X141448Y33720D01*
X141418Y33900D01*
X141376Y34056D01*
X141322Y34188D01*
X141256Y34296D01*
X141178Y34380D01*
X141088Y34440D01*
X140986Y34476D01*
X140872Y34488D01*
X143012D01*
X142947Y34476D01*
D02*
G37*
G36*
X137909D02*
X137817Y34440D01*
X137736Y34380D01*
X137666Y34296D01*
X137607Y34188D01*
X137558Y34056D01*
X137521Y33900D01*
X137494Y33720D01*
X137477Y33516D01*
X137472Y33288D01*
X136272D01*
X136266Y33516D01*
X136248Y33720D01*
X136218Y33900D01*
X136176Y34056D01*
X136122Y34188D01*
X136056Y34296D01*
X135979Y34380D01*
X135889Y34440D01*
X135787Y34476D01*
X135673Y34488D01*
X138012D01*
X137909Y34476D01*
D02*
G37*
G36*
X132898D02*
X132796Y34440D01*
X132706Y34380D01*
X132629Y34296D01*
X132563Y34188D01*
X132509Y34056D01*
X132467Y33900D01*
X132437Y33720D01*
X132419Y33516D01*
X132413Y33288D01*
X131213D01*
X131208Y33516D01*
X131191Y33720D01*
X131164Y33900D01*
X131127Y34056D01*
X131078Y34188D01*
X131019Y34296D01*
X130949Y34380D01*
X130868Y34440D01*
X130776Y34476D01*
X130673Y34488D01*
X133012D01*
X132898Y34476D01*
D02*
G37*
G36*
X142678Y32350D02*
X142696Y32146D01*
X142726Y31966D01*
X142768Y31810D01*
X142822Y31678D01*
X142888Y31570D01*
X142966Y31486D01*
X143056Y31426D01*
X143158Y31390D01*
X143272Y31378D01*
X141484D01*
X141482Y31390D01*
X141480Y31426D01*
X141472Y32578D01*
X142672D01*
X142678Y32350D01*
D02*
G37*
G36*
X137478Y31985D02*
X137496Y31779D01*
X137526Y31597D01*
X137568Y31440D01*
X137622Y31307D01*
X137688Y31198D01*
X137766Y31113D01*
X137856Y31052D01*
X137958Y31016D01*
X138072Y31004D01*
X135672D01*
X135786Y31016D01*
X135888Y31052D01*
X135978Y31113D01*
X136056Y31198D01*
X136122Y31307D01*
X136176Y31440D01*
X136218Y31597D01*
X136248Y31779D01*
X136266Y31985D01*
X136272Y32216D01*
X137472D01*
X137478Y31985D01*
D02*
G37*
G36*
X132419D02*
X132437Y31779D01*
X132467Y31597D01*
X132509Y31440D01*
X132563Y31307D01*
X132629Y31198D01*
X132707Y31113D01*
X132797Y31052D01*
X132899Y31016D01*
X133013Y31004D01*
X130613D01*
X130727Y31016D01*
X130829Y31052D01*
X130919Y31113D01*
X130997Y31198D01*
X131063Y31307D01*
X131117Y31440D01*
X131159Y31597D01*
X131189Y31779D01*
X131207Y31985D01*
X131213Y32216D01*
X132413D01*
X132419Y31985D01*
D02*
G37*
G36*
X130134Y28615D02*
X130122Y28729D01*
X130085Y28831D01*
X130024Y28921D01*
X129939Y28999D01*
X129830Y29065D01*
X129697Y29119D01*
X129539Y29161D01*
X129358Y29191D01*
X129152Y29209D01*
X128922Y29215D01*
Y30415D01*
X129150Y30421D01*
X129354Y30439D01*
X129534Y30469D01*
X129690Y30511D01*
X129822Y30565D01*
X129930Y30631D01*
X130014Y30709D01*
X130074Y30799D01*
X130110Y30901D01*
X130122Y31016D01*
X130134Y28615D01*
D02*
G37*
G36*
X127299Y30901D02*
X127336Y30799D01*
X127396Y30709D01*
X127481Y30631D01*
X127590Y30565D01*
X127723Y30511D01*
X127881Y30469D01*
X128063Y30439D01*
X128269Y30421D01*
X128499Y30415D01*
Y29215D01*
X128269Y29209D01*
X128063Y29191D01*
X127881Y29161D01*
X127723Y29119D01*
X127590Y29065D01*
X127481Y28999D01*
X127396Y28921D01*
X127336Y28831D01*
X127299Y28729D01*
X127287Y28615D01*
Y31015D01*
X127299Y30901D01*
D02*
G37*
G36*
X138495Y28903D02*
X138461Y28793D01*
Y28666D01*
X138495Y28521D01*
X138563Y28360D01*
X138665Y28182D01*
X138800Y27987D01*
X138970Y27775D01*
X139411Y27299D01*
X138563Y26451D01*
X138317Y26689D01*
X137875Y27062D01*
X137680Y27198D01*
X137502Y27299D01*
X137341Y27367D01*
X137197Y27401D01*
X137069D01*
X136959Y27367D01*
X136866Y27299D01*
X138563Y28997D01*
X138495Y28903D01*
D02*
G37*
G36*
X141484Y26260D02*
X141496Y24472D01*
X141484Y24586D01*
X141447Y24688D01*
X141386Y24778D01*
X141301Y24856D01*
X141191Y24922D01*
X141058Y24976D01*
X140901Y25018D01*
X140719Y25048D01*
X140514Y25066D01*
X140284Y25072D01*
Y26272D01*
X141484Y26260D01*
D02*
G37*
G36*
X121303Y25508D02*
X121974Y25143D01*
X122171Y25053D01*
X122525Y24923D01*
X122679Y24883D01*
X122804Y24904D01*
X122962Y24946D01*
X123095Y25000D01*
X123204Y25066D01*
X123289Y25144D01*
X123349Y25234D01*
X123386Y25336D01*
X123398Y25450D01*
Y23050D01*
X123386Y23164D01*
X123349Y23266D01*
X123289Y23356D01*
X123204Y23434D01*
X123095Y23500D01*
X122962Y23554D01*
X122831Y23589D01*
X122727Y23549D01*
X122568Y23470D01*
X122394Y23369D01*
X122205Y23245D01*
X121783Y22930D01*
X121304Y22525D01*
X121053Y25663D01*
X121303Y25508D01*
D02*
G37*
%LPC*%
G36*
X53419Y91737D02*
X49572D01*
Y87891D01*
X53419D01*
Y91737D01*
D02*
G37*
G36*
X48572D02*
X44726D01*
Y87891D01*
X48572D01*
Y91737D01*
D02*
G37*
G36*
X53419Y86891D02*
X49572D01*
Y83044D01*
X53419D01*
Y86891D01*
D02*
G37*
G36*
X48572D02*
X44726D01*
Y83044D01*
X48572D01*
Y86891D01*
D02*
G37*
G36*
X69837Y73843D02*
X69363D01*
X69250Y73813D01*
X69116Y73759D01*
X69007Y73692D01*
X68923Y73614D01*
X68862Y73524D01*
X68826Y73422D01*
X68814Y73308D01*
Y73843D01*
X67369D01*
Y72583D01*
X67869D01*
X67774Y72573D01*
X67689Y72543D01*
X67614Y72493D01*
X67549Y72423D01*
X67494Y72333D01*
X67449Y72223D01*
X67414Y72093D01*
X67389Y71943D01*
X67374Y71773D01*
X67369Y71583D01*
Y71571D01*
X69837D01*
Y73843D01*
D02*
G37*
G36*
X66369D02*
X63901D01*
Y71571D01*
X66369D01*
Y71583D01*
X66364Y71773D01*
X66349Y71943D01*
X66324Y72093D01*
X66289Y72223D01*
X66244Y72333D01*
X66189Y72423D01*
X66124Y72493D01*
X66049Y72543D01*
X65964Y72573D01*
X65869Y72583D01*
X66369D01*
Y73843D01*
D02*
G37*
G36*
X85429Y51968D02*
X83157D01*
Y49500D01*
X85429D01*
Y51968D01*
D02*
G37*
G36*
X105937Y50406D02*
X102681D01*
Y48724D01*
X104925D01*
Y49393D01*
X104937Y49285D01*
X104973Y49189D01*
X105033Y49103D01*
X105117Y49029D01*
X105225Y48967D01*
X105357Y48915D01*
X105513Y48876D01*
X105693Y48847D01*
X105897Y48830D01*
X105937Y48829D01*
Y50406D01*
D02*
G37*
G36*
X110299Y52075D02*
X107240D01*
Y48829D01*
X107280Y48830D01*
X107484Y48848D01*
X107664Y48878D01*
X107820Y48920D01*
X107952Y48974D01*
X108060Y49040D01*
X108144Y49118D01*
X108204Y49208D01*
X108240Y49310D01*
X108252Y49424D01*
Y48819D01*
X110299D01*
Y52075D01*
D02*
G37*
G36*
X101681Y50406D02*
X98425D01*
Y48724D01*
X101681D01*
Y50406D01*
D02*
G37*
G36*
X104925Y47724D02*
X102681D01*
Y46043D01*
X105937D01*
Y47620D01*
X105897Y47619D01*
X105693Y47602D01*
X105513Y47573D01*
X105357Y47533D01*
X105225Y47482D01*
X105117Y47420D01*
X105033Y47346D01*
X104973Y47260D01*
X104937Y47163D01*
X104925Y47055D01*
Y47724D01*
D02*
G37*
G36*
X85429Y48500D02*
X83157D01*
Y46031D01*
X85429D01*
Y48500D01*
D02*
G37*
G36*
X134185Y91772D02*
X131913D01*
Y89303D01*
X134185D01*
Y91772D01*
D02*
G37*
G36*
Y88303D02*
X131913D01*
Y85835D01*
X133539D01*
X133538Y85877D01*
X133520Y86083D01*
X133490Y86265D01*
X133448Y86422D01*
X133394Y86556D01*
X133328Y86665D01*
X133250Y86750D01*
X133160Y86810D01*
X133058Y86847D01*
X132944Y86859D01*
X134185D01*
Y88303D01*
D02*
G37*
G36*
X133260Y83784D02*
X131776D01*
Y81315D01*
X133260D01*
Y82771D01*
X132944D01*
X133058Y82784D01*
X133160Y82819D01*
X133250Y82880D01*
X133260Y82890D01*
Y83784D01*
D02*
G37*
G36*
X129370Y81732D02*
X127000D01*
Y79559D01*
X129370D01*
Y81732D01*
D02*
G37*
G36*
X126000D02*
X123630D01*
Y79559D01*
X126000D01*
Y81732D01*
D02*
G37*
G36*
X196732Y81870D02*
X194559D01*
Y79500D01*
X196732D01*
Y81870D01*
D02*
G37*
G36*
X133260Y80315D02*
X131776D01*
Y77846D01*
X133260D01*
Y80315D01*
D02*
G37*
G36*
X196732Y78500D02*
X194559D01*
Y76130D01*
X196732D01*
Y78500D01*
D02*
G37*
G36*
X148843Y45000D02*
X147398D01*
Y44300D01*
X147386Y44414D01*
X147350Y44516D01*
X147289Y44606D01*
X147204Y44684D01*
X147095Y44750D01*
X146962Y44804D01*
X146804Y44846D01*
X146622Y44876D01*
X146416Y44894D01*
X146374Y44895D01*
Y42728D01*
X148843D01*
Y45000D01*
D02*
G37*
G36*
X152311D02*
X149843D01*
Y42728D01*
X152311D01*
Y45000D01*
D02*
G37*
G36*
X170456Y42206D02*
X169220Y42043D01*
X168067Y41566D01*
X167078Y40806D01*
X166319Y39817D01*
X166184Y39493D01*
X164885D01*
X164752Y39817D01*
X163992Y40806D01*
X163003Y41566D01*
X161850Y42043D01*
X160614Y42206D01*
X159377Y42043D01*
X158225Y41566D01*
X157235Y40806D01*
X156476Y39817D01*
X155999Y38665D01*
X155836Y37428D01*
X155999Y36191D01*
X156476Y35039D01*
X157235Y34050D01*
X158225Y33290D01*
X159377Y32813D01*
X160614Y32650D01*
X161850Y32813D01*
X163003Y33290D01*
X163992Y34050D01*
X164752Y35039D01*
X164885Y35363D01*
X166184D01*
X166319Y35039D01*
X167078Y34050D01*
X168067Y33290D01*
X169220Y32813D01*
X170456Y32650D01*
X171693Y32813D01*
X172845Y33290D01*
X173835Y34050D01*
X174594Y35039D01*
X175071Y36191D01*
X175234Y37428D01*
X175071Y38665D01*
X174594Y39817D01*
X173835Y40806D01*
X172845Y41566D01*
X171693Y42043D01*
X170456Y42206D01*
D02*
G37*
G36*
X142342Y41579D02*
Y38028D01*
X144024D01*
Y41579D01*
X142342D01*
D02*
G37*
G36*
X105937Y35913D02*
X102681D01*
Y34232D01*
X105937D01*
Y35913D01*
D02*
G37*
G36*
X101681D02*
X98425D01*
Y34232D01*
X101681D01*
Y35913D01*
D02*
G37*
G36*
X110299Y35819D02*
X107240D01*
Y32563D01*
X110299D01*
Y35819D01*
D02*
G37*
%LPD*%
G36*
X293592Y334117D02*
X293612Y334067D01*
X294166D01*
X294052Y334055D01*
X293950Y334019D01*
X293860Y333959D01*
X293782Y333875D01*
X293737Y333800D01*
X293796Y333687D01*
X293974Y333385D01*
X294815Y332131D01*
X296114Y330356D01*
X289818D01*
X290302Y331006D01*
X292166Y333850D01*
X292150Y333875D01*
X292072Y333959D01*
X291982Y334019D01*
X291880Y334055D01*
X291766Y334067D01*
X292308D01*
X292341Y334117D01*
X292366Y334245D01*
X293566D01*
X293592Y334117D01*
D02*
G37*
G36*
Y184046D02*
X293612Y183996D01*
X294166D01*
X294052Y183984D01*
X293950Y183948D01*
X293860Y183888D01*
X293782Y183804D01*
X293737Y183729D01*
X293796Y183616D01*
X293974Y183314D01*
X294815Y182061D01*
X296114Y180285D01*
X289818D01*
X290302Y180935D01*
X292166Y183779D01*
X292150Y183804D01*
X292072Y183888D01*
X291982Y183948D01*
X291880Y183984D01*
X291766Y183996D01*
X292308D01*
X292341Y184046D01*
X292366Y184175D01*
X293566D01*
X293592Y184046D01*
D02*
G37*
G36*
X428237Y183881D02*
X428258Y183831D01*
X428812D01*
X428698Y183819D01*
X428596Y183783D01*
X428506Y183723D01*
X428428Y183639D01*
X428382Y183564D01*
X428441Y183451D01*
X428620Y183149D01*
X429461Y181895D01*
X430760Y180120D01*
X424464D01*
X424948Y180770D01*
X426811Y183614D01*
X426796Y183639D01*
X426718Y183723D01*
X426628Y183783D01*
X426526Y183819D01*
X426412Y183831D01*
X426954D01*
X426987Y183881D01*
X427012Y184009D01*
X428212D01*
X428237Y183881D01*
D02*
G37*
G36*
X295634Y174910D02*
X293599Y171797D01*
X293573Y171669D01*
X292373Y171667D01*
X292348Y171795D01*
X292271Y171981D01*
X292143Y172225D01*
X291965Y172527D01*
X291123Y173780D01*
X289821Y175554D01*
X296117Y175560D01*
X295634Y174910D01*
D02*
G37*
G36*
X430448Y174906D02*
X428591Y171707D01*
X428568Y171574D01*
X427368Y171464D01*
X427340Y171587D01*
X427257Y171766D01*
X427119Y172002D01*
X426926Y172293D01*
X426013Y173503D01*
X424603Y175217D01*
X430889Y175574D01*
X430448Y174906D01*
D02*
G37*
G36*
X428574Y160855D02*
X428592Y160649D01*
X428622Y160468D01*
X428664Y160310D01*
X428718Y160177D01*
X428784Y160067D01*
X428862Y159983D01*
X428952Y159922D01*
X429054Y159886D01*
X429168Y159874D01*
X426768D01*
X426882Y159886D01*
X426984Y159922D01*
X427074Y159983D01*
X427152Y160067D01*
X427218Y160177D01*
X427272Y160310D01*
X427314Y160468D01*
X427344Y160649D01*
X427362Y160855D01*
X427368Y161086D01*
X428568D01*
X428574Y160855D01*
D02*
G37*
G36*
X429410Y155973D02*
X429308Y155936D01*
X429218Y155876D01*
X429140Y155791D01*
X429074Y155682D01*
X429020Y155548D01*
X428978Y155391D01*
X428948Y155209D01*
X428930Y155003D01*
X428924Y154773D01*
X427724D01*
X427718Y155003D01*
X427700Y155209D01*
X427670Y155391D01*
X427628Y155548D01*
X427574Y155682D01*
X427508Y155791D01*
X427430Y155876D01*
X427340Y155936D01*
X427238Y155973D01*
X427124Y155985D01*
X429524D01*
X429410Y155973D01*
D02*
G37*
G36*
X394072Y111067D02*
X394742Y110628D01*
X394936Y110521D01*
X395282Y110365D01*
X395434Y110317D01*
X395571Y110287D01*
X395693Y110278D01*
Y109078D01*
X395571Y109068D01*
X395434Y109039D01*
X395282Y108990D01*
X395117Y108922D01*
X394936Y108834D01*
X394533Y108600D01*
X394309Y108454D01*
X393819Y108104D01*
Y111252D01*
X394072Y111067D01*
D02*
G37*
G36*
X315214Y106384D02*
X315655Y106010D01*
X315851Y105874D01*
X316029Y105773D01*
X316190Y105705D01*
X316334Y105671D01*
X316462D01*
X316572Y105705D01*
X316665Y105773D01*
X314968Y104076D01*
X315036Y104169D01*
X315070Y104279D01*
Y104406D01*
X315036Y104551D01*
X314968Y104712D01*
X314866Y104890D01*
X314731Y105085D01*
X314561Y105297D01*
X314120Y105773D01*
X314968Y106621D01*
X315214Y106384D01*
D02*
G37*
G36*
X413511Y104586D02*
X413547Y104484D01*
X413608Y104394D01*
X413693Y104316D01*
X413802Y104250D01*
X413935Y104196D01*
X414092Y104154D01*
X414274Y104124D01*
X414480Y104106D01*
X414711Y104100D01*
Y102900D01*
X414480Y102894D01*
X414274Y102876D01*
X414092Y102846D01*
X413935Y102804D01*
X413802Y102750D01*
X413693Y102684D01*
X413608Y102606D01*
X413547Y102516D01*
X413511Y102414D01*
X413499Y102300D01*
Y104700D01*
X413511Y104586D01*
D02*
G37*
G36*
X426860Y103493D02*
X427362Y103062D01*
X427502Y102964D01*
X427628Y102890D01*
X427741Y102839D01*
X427840Y102810D01*
X427925Y102805D01*
X427997Y102822D01*
X426178Y102003D01*
X426230Y102040D01*
X426257Y102093D01*
X426260Y102161D01*
X426237Y102245D01*
X426189Y102345D01*
X426117Y102460D01*
X426019Y102590D01*
X425896Y102736D01*
X425576Y103076D01*
X426665Y103683D01*
X426860Y103493D01*
D02*
G37*
G36*
X371904Y99865D02*
X371652Y100030D01*
X370980Y100419D01*
X370783Y100515D01*
X370431Y100653D01*
X370276Y100697D01*
X370187Y100713D01*
X370122Y100707D01*
X369940Y100677D01*
X369782Y100635D01*
X369649Y100581D01*
X369540Y100515D01*
X369455Y100437D01*
X369395Y100347D01*
X369358Y100245D01*
X369346Y100131D01*
Y102531D01*
X369358Y102417D01*
X369395Y102315D01*
X369455Y102225D01*
X369540Y102147D01*
X369649Y102081D01*
X369782Y102027D01*
X369940Y101985D01*
X370091Y101960D01*
X370148Y101974D01*
X370296Y102028D01*
X370457Y102104D01*
X370634Y102201D01*
X370825Y102319D01*
X371251Y102621D01*
X371735Y103008D01*
X371904Y99865D01*
D02*
G37*
G36*
X408023Y100610D02*
X408011Y100685D01*
X407975Y100752D01*
X407915Y100811D01*
X407831Y100862D01*
X407723Y100905D01*
X407591Y100941D01*
X407435Y100968D01*
X407255Y100988D01*
X406823Y101004D01*
Y102204D01*
X407053Y102209D01*
X407258Y102227D01*
X407440Y102258D01*
X407597Y102299D01*
X407730Y102354D01*
X407839Y102419D01*
X407924Y102497D01*
X407985Y102587D01*
X408022Y102690D01*
X408035Y102804D01*
X408023Y100610D01*
D02*
G37*
G36*
X403349Y102664D02*
X403385Y102568D01*
X403445Y102482D01*
X403529Y102408D01*
X403637Y102346D01*
X403769Y102295D01*
X403925Y102255D01*
X404105Y102226D01*
X404309Y102209D01*
X404537Y102204D01*
Y101004D01*
X404309Y100998D01*
X404105Y100981D01*
X403925Y100952D01*
X403769Y100912D01*
X403637Y100861D01*
X403529Y100799D01*
X403445Y100725D01*
X403385Y100639D01*
X403349Y100542D01*
X403337Y100434D01*
Y102773D01*
X403349Y102664D01*
D02*
G37*
G36*
X381893D02*
X381929Y102568D01*
X381989Y102482D01*
X382073Y102408D01*
X382181Y102346D01*
X382313Y102295D01*
X382469Y102255D01*
X382649Y102226D01*
X382853Y102209D01*
X383081Y102204D01*
Y101004D01*
X382853Y100998D01*
X382649Y100981D01*
X382469Y100952D01*
X382313Y100912D01*
X382181Y100861D01*
X382073Y100799D01*
X381989Y100725D01*
X381929Y100639D01*
X381893Y100542D01*
X381881Y100434D01*
Y102773D01*
X381893Y102664D01*
D02*
G37*
G36*
X374434Y102889D02*
X375104Y102451D01*
X375299Y102343D01*
X375645Y102188D01*
X375688Y102174D01*
X375770Y102196D01*
X375904Y102250D01*
X376013Y102316D01*
X376098Y102394D01*
X376159Y102484D01*
X376195Y102586D01*
X376208Y102700D01*
X376196Y100434D01*
X376184Y100523D01*
X376148Y100602D01*
X376088Y100672D01*
X376004Y100732D01*
X375896Y100784D01*
X375764Y100826D01*
X375717Y100835D01*
X375645Y100812D01*
X375479Y100744D01*
X375299Y100656D01*
X374896Y100423D01*
X374672Y100277D01*
X374182Y99926D01*
Y103074D01*
X374434Y102889D01*
D02*
G37*
G36*
X365654Y99859D02*
X365642Y99973D01*
X365605Y100075D01*
X365545Y100165D01*
X365460Y100243D01*
X365351Y100309D01*
X365218Y100363D01*
X365060Y100405D01*
X364878Y100435D01*
X364672Y100453D01*
X364442Y100459D01*
Y101659D01*
X364672Y101665D01*
X364878Y101683D01*
X365060Y101713D01*
X365218Y101755D01*
X365351Y101809D01*
X365460Y101875D01*
X365545Y101953D01*
X365605Y102043D01*
X365642Y102145D01*
X365654Y102259D01*
Y99859D01*
D02*
G37*
G36*
X362358Y102145D02*
X362395Y102043D01*
X362455Y101953D01*
X362540Y101875D01*
X362649Y101809D01*
X362782Y101755D01*
X362940Y101713D01*
X363122Y101683D01*
X363328Y101665D01*
X363558Y101659D01*
Y100459D01*
X363328Y100453D01*
X363122Y100435D01*
X362940Y100405D01*
X362782Y100363D01*
X362649Y100309D01*
X362540Y100243D01*
X362455Y100165D01*
X362395Y100075D01*
X362358Y99973D01*
X362346Y99859D01*
Y102259D01*
X362358Y102145D01*
D02*
G37*
G36*
X401581Y100434D02*
X401479Y100398D01*
X401389Y100337D01*
X401311Y100252D01*
X401245Y100143D01*
X401191Y100010D01*
X401149Y99853D01*
X401119Y99671D01*
X401101Y99465D01*
X401095Y99234D01*
X399895D01*
X399889Y99465D01*
X399871Y99671D01*
X399841Y99853D01*
X399799Y100010D01*
X399745Y100143D01*
X399679Y100252D01*
X399601Y100337D01*
X399511Y100398D01*
X399409Y100434D01*
X399295Y100446D01*
X401695D01*
X401581Y100434D01*
D02*
G37*
G36*
X307228Y101299D02*
X307195Y101190D01*
X307196Y101063D01*
X307231Y100919D01*
X307300Y100758D01*
X307403Y100580D01*
X307540Y100384D01*
X307711Y100171D01*
X308155Y99694D01*
X307306Y98846D01*
X307059Y99085D01*
X306617Y99460D01*
X306421Y99597D01*
X306243Y99700D01*
X306082Y99769D01*
X305938Y99805D01*
X305811Y99806D01*
X305702Y99773D01*
X305609Y99706D01*
X307294Y101391D01*
X307228Y101299D01*
D02*
G37*
G36*
X298901Y99030D02*
X298919Y98824D01*
X298949Y98642D01*
X298991Y98484D01*
X299045Y98351D01*
X299111Y98242D01*
X299189Y98157D01*
X299279Y98097D01*
X299381Y98060D01*
X299495Y98048D01*
X297095D01*
X297209Y98060D01*
X297311Y98097D01*
X297401Y98157D01*
X297479Y98242D01*
X297545Y98351D01*
X297599Y98484D01*
X297641Y98642D01*
X297671Y98824D01*
X297689Y99030D01*
X297695Y99260D01*
X298895D01*
X298901Y99030D01*
D02*
G37*
G36*
X293579D02*
X293597Y98824D01*
X293627Y98642D01*
X293669Y98484D01*
X293723Y98351D01*
X293789Y98242D01*
X293867Y98157D01*
X293957Y98097D01*
X294059Y98060D01*
X294173Y98048D01*
X291773D01*
X291887Y98060D01*
X291989Y98097D01*
X292079Y98157D01*
X292157Y98242D01*
X292223Y98351D01*
X292277Y98484D01*
X292319Y98642D01*
X292349Y98824D01*
X292367Y99030D01*
X292373Y99260D01*
X293573D01*
X293579Y99030D01*
D02*
G37*
G36*
X401101Y98742D02*
X401119Y98536D01*
X401149Y98355D01*
X401191Y98197D01*
X401245Y98064D01*
X401311Y97954D01*
X401389Y97870D01*
X401479Y97809D01*
X401581Y97773D01*
X401695Y97761D01*
X399295D01*
X399409Y97773D01*
X399511Y97809D01*
X399601Y97870D01*
X399679Y97954D01*
X399745Y98064D01*
X399799Y98197D01*
X399841Y98355D01*
X399871Y98536D01*
X399889Y98742D01*
X399895Y98973D01*
X401095D01*
X401101Y98742D01*
D02*
G37*
G36*
X345721Y95800D02*
X345709Y95914D01*
X345673Y96016D01*
X345613Y96106D01*
X345529Y96184D01*
X345421Y96250D01*
X345289Y96304D01*
X345133Y96346D01*
X344953Y96376D01*
X344749Y96394D01*
X344521Y96400D01*
Y97600D01*
X344749Y97606D01*
X344953Y97624D01*
X345133Y97654D01*
X345289Y97696D01*
X345421Y97750D01*
X345529Y97816D01*
X345613Y97894D01*
X345673Y97984D01*
X345709Y98086D01*
X345721Y98200D01*
Y95800D01*
D02*
G37*
G36*
X341661Y98086D02*
X341698Y97984D01*
X341758Y97894D01*
X341843Y97816D01*
X341952Y97750D01*
X342086Y97696D01*
X342243Y97654D01*
X342425Y97624D01*
X342631Y97606D01*
X342861Y97600D01*
Y96400D01*
X342631Y96394D01*
X342425Y96376D01*
X342243Y96346D01*
X342086Y96304D01*
X341952Y96250D01*
X341843Y96184D01*
X341758Y96106D01*
X341698Y96016D01*
X341661Y95914D01*
X341649Y95800D01*
Y98200D01*
X341661Y98086D01*
D02*
G37*
G36*
X413511Y97944D02*
X413547Y97842D01*
X413608Y97752D01*
X413693Y97674D01*
X413802Y97608D01*
X413935Y97554D01*
X414092Y97512D01*
X414274Y97482D01*
X414480Y97464D01*
X414711Y97458D01*
Y96258D01*
X414480Y96252D01*
X414274Y96234D01*
X414092Y96204D01*
X413935Y96162D01*
X413802Y96108D01*
X413693Y96042D01*
X413608Y95964D01*
X413547Y95874D01*
X413511Y95772D01*
X413499Y95658D01*
Y98058D01*
X413511Y97944D01*
D02*
G37*
G36*
X330664Y96236D02*
X330435Y96231D01*
X330229Y96213D01*
X330048Y96183D01*
X329891Y96140D01*
X329757Y96087D01*
X329648Y96021D01*
X329563Y95942D01*
X329502Y95853D01*
X329465Y95750D01*
X329452Y95636D01*
X329464Y97425D01*
X330664Y97436D01*
Y96236D01*
D02*
G37*
G36*
X376196Y95434D02*
X376184Y95480D01*
X376148Y95520D01*
X376088Y95556D01*
X376004Y95587D01*
X375896Y95613D01*
X375764Y95634D01*
X375608Y95651D01*
X375224Y95670D01*
X374996Y95672D01*
Y96872D01*
X375226Y96878D01*
X375431Y96896D01*
X375613Y96926D01*
X375770Y96968D01*
X375903Y97022D01*
X376012Y97088D01*
X376097Y97166D01*
X376158Y97256D01*
X376195Y97358D01*
X376208Y97472D01*
X376196Y95434D01*
D02*
G37*
G36*
X333221Y95964D02*
X333253Y96020D01*
X333321Y96180D01*
X333353Y96321D01*
X333349Y96442D01*
X333309Y96544D01*
X333233Y96627D01*
X335130Y95154D01*
X335028Y95211D01*
X334911Y95236D01*
X334779Y95230D01*
X334632Y95192D01*
X334470Y95122D01*
X334293Y95020D01*
X334100Y94886D01*
X333893Y94720D01*
X333433Y94293D01*
X332372Y94930D01*
X332620Y95187D01*
X333009Y95642D01*
X333149Y95841D01*
X333164Y95866D01*
X333113Y95942D01*
X333029Y96021D01*
X332921Y96087D01*
X332789Y96140D01*
X332633Y96183D01*
X332453Y96213D01*
X332249Y96231D01*
X332021Y96236D01*
Y97436D01*
X332249Y97443D01*
X332453Y97461D01*
X332633Y97491D01*
X332789Y97532D01*
X332921Y97587D01*
X333029Y97653D01*
X333113Y97730D01*
X333173Y97821D01*
X333209Y97922D01*
X333221Y98036D01*
Y95964D01*
D02*
G37*
G36*
X354162Y97027D02*
X354199Y96925D01*
X354260Y96835D01*
X354345Y96757D01*
X354454Y96691D01*
X354587Y96637D01*
X354745Y96595D01*
X354926Y96565D01*
X355132Y96547D01*
X355361Y96541D01*
Y95341D01*
X355133Y95339D01*
X354461Y95291D01*
X354353Y95269D01*
X354269Y95243D01*
X354209Y95214D01*
X354173Y95180D01*
X354161Y95142D01*
X354149Y97141D01*
X354162Y97027D01*
D02*
G37*
G36*
X369358Y97358D02*
X369395Y97256D01*
X369455Y97166D01*
X369540Y97088D01*
X369649Y97022D01*
X369782Y96968D01*
X369940Y96926D01*
X370122Y96896D01*
X370328Y96878D01*
X370558Y96872D01*
Y95672D01*
X370328Y95666D01*
X370122Y95648D01*
X369940Y95618D01*
X369782Y95576D01*
X369649Y95522D01*
X369540Y95456D01*
X369455Y95378D01*
X369395Y95288D01*
X369358Y95186D01*
X369346Y95072D01*
Y97472D01*
X369358Y97358D01*
D02*
G37*
G36*
X365654Y94741D02*
X365642Y94855D01*
X365605Y94957D01*
X365545Y95047D01*
X365460Y95125D01*
X365351Y95191D01*
X365218Y95245D01*
X365060Y95287D01*
X364878Y95317D01*
X364672Y95335D01*
X364442Y95341D01*
Y96541D01*
X364672Y96547D01*
X364878Y96565D01*
X365060Y96595D01*
X365218Y96637D01*
X365351Y96691D01*
X365460Y96757D01*
X365545Y96835D01*
X365605Y96925D01*
X365642Y97027D01*
X365654Y97141D01*
Y94741D01*
D02*
G37*
G36*
X362358Y97027D02*
X362395Y96925D01*
X362455Y96835D01*
X362540Y96757D01*
X362649Y96691D01*
X362782Y96637D01*
X362940Y96595D01*
X363122Y96565D01*
X363328Y96547D01*
X363558Y96541D01*
Y95341D01*
X363328Y95335D01*
X363122Y95317D01*
X362940Y95287D01*
X362782Y95245D01*
X362649Y95191D01*
X362540Y95125D01*
X362455Y95047D01*
X362395Y94957D01*
X362358Y94855D01*
X362346Y94741D01*
Y97141D01*
X362358Y97027D01*
D02*
G37*
G36*
X358654Y94741D02*
X358642Y94855D01*
X358605Y94957D01*
X358545Y95047D01*
X358460Y95125D01*
X358351Y95191D01*
X358218Y95245D01*
X358060Y95287D01*
X357878Y95317D01*
X357672Y95335D01*
X357442Y95341D01*
Y96541D01*
X357672Y96547D01*
X357878Y96565D01*
X358060Y96595D01*
X358218Y96637D01*
X358351Y96691D01*
X358460Y96757D01*
X358545Y96835D01*
X358605Y96925D01*
X358642Y97027D01*
X358654Y97141D01*
Y94741D01*
D02*
G37*
G36*
X325563Y94465D02*
X325551Y94579D01*
X325515Y94681D01*
X325454Y94771D01*
X325370Y94849D01*
X325260Y94915D01*
X325127Y94969D01*
X324970Y95011D01*
X324788Y95041D01*
X324582Y95059D01*
X324351Y95065D01*
Y96265D01*
X324582Y96271D01*
X324788Y96289D01*
X324970Y96319D01*
X325127Y96361D01*
X325260Y96415D01*
X325370Y96481D01*
X325454Y96559D01*
X325515Y96649D01*
X325551Y96751D01*
X325563Y96865D01*
Y94465D01*
D02*
G37*
G36*
X294066Y94147D02*
X293964Y94111D01*
X293874Y94050D01*
X293796Y93965D01*
X293730Y93856D01*
X293676Y93723D01*
X293634Y93565D01*
X293604Y93383D01*
X293586Y93177D01*
X293580Y92947D01*
X292380D01*
X292374Y93177D01*
X292356Y93383D01*
X292326Y93565D01*
X292284Y93723D01*
X292230Y93856D01*
X292164Y93965D01*
X292086Y94050D01*
X291996Y94111D01*
X291894Y94147D01*
X291780Y94159D01*
X294180D01*
X294066Y94147D01*
D02*
G37*
G36*
X397900Y93382D02*
X398343Y93007D01*
X398538Y92870D01*
X398716Y92767D01*
X398878Y92698D01*
X399021Y92662D01*
X399148Y92661D01*
X399258Y92694D01*
X399350Y92761D01*
X397665Y91075D01*
X397731Y91168D01*
X397764Y91277D01*
X397763Y91404D01*
X397728Y91548D01*
X397659Y91709D01*
X397556Y91887D01*
X397419Y92083D01*
X397248Y92295D01*
X396804Y92773D01*
X397653Y93621D01*
X397900Y93382D01*
D02*
G37*
G36*
X293586Y92030D02*
X293604Y91824D01*
X293634Y91642D01*
X293676Y91484D01*
X293730Y91351D01*
X293796Y91242D01*
X293874Y91157D01*
X293964Y91097D01*
X294066Y91060D01*
X294180Y91048D01*
X291780D01*
X291894Y91060D01*
X291996Y91097D01*
X292086Y91157D01*
X292164Y91242D01*
X292230Y91351D01*
X292284Y91484D01*
X292326Y91642D01*
X292356Y91824D01*
X292374Y92030D01*
X292380Y92260D01*
X293580D01*
X293586Y92030D01*
D02*
G37*
G36*
X370207Y90720D02*
X369969Y90474D01*
X369596Y90033D01*
X369460Y89838D01*
X369358Y89660D01*
X369290Y89498D01*
X369256Y89354D01*
Y89227D01*
X369290Y89117D01*
X369358Y89023D01*
X367661Y90720D01*
X367754Y90652D01*
X367865Y90618D01*
X367992D01*
X368136Y90652D01*
X368297Y90720D01*
X368476Y90822D01*
X368671Y90958D01*
X368883Y91128D01*
X369358Y91569D01*
X370207Y90720D01*
D02*
G37*
G36*
X403349Y92664D02*
X403385Y92568D01*
X403445Y92482D01*
X403529Y92408D01*
X403637Y92346D01*
X403769Y92295D01*
X403925Y92255D01*
X404105Y92226D01*
X404309Y92209D01*
X404537Y92203D01*
Y91004D01*
X404309Y90998D01*
X404105Y90981D01*
X403925Y90952D01*
X403769Y90912D01*
X403637Y90861D01*
X403529Y90799D01*
X403445Y90725D01*
X403385Y90639D01*
X403349Y90543D01*
X403337Y90434D01*
Y92773D01*
X403349Y92664D01*
D02*
G37*
G36*
X376196Y90434D02*
X376184Y90543D01*
X376148Y90639D01*
X376088Y90725D01*
X376004Y90799D01*
X375896Y90861D01*
X375764Y90912D01*
X375608Y90952D01*
X375428Y90981D01*
X375224Y90998D01*
X374996Y91004D01*
Y92203D01*
X375224Y92209D01*
X375428Y92226D01*
X375608Y92255D01*
X375764Y92295D01*
X375896Y92346D01*
X376004Y92408D01*
X376088Y92482D01*
X376148Y92568D01*
X376184Y92664D01*
X376196Y92773D01*
Y90434D01*
D02*
G37*
G36*
X426281Y93754D02*
X426447Y93676D01*
X426674Y93596D01*
X426962Y93513D01*
X427721Y93342D01*
X429971Y92971D01*
X426187Y89186D01*
X426091Y89840D01*
X425481Y92710D01*
X425404Y92876D01*
X425328Y92981D01*
X426177Y93830D01*
X426281Y93754D01*
D02*
G37*
G36*
X304156Y103378D02*
Y98882D01*
X306020D01*
X306118Y98814D01*
X306451Y98531D01*
X310326Y94656D01*
X310327Y94656D01*
X310790Y94346D01*
X311336Y94237D01*
X311336Y94237D01*
X324336D01*
X324539Y93121D01*
X324539Y93121D01*
X324539Y93121D01*
Y90955D01*
X324582Y90956D01*
X324788Y90974D01*
X324970Y91004D01*
X325127Y91046D01*
X325260Y91100D01*
X325370Y91166D01*
X325454Y91244D01*
X325515Y91334D01*
X325551Y91436D01*
X325563Y91550D01*
Y90850D01*
X327508D01*
Y89850D01*
X325563D01*
Y89150D01*
X325551Y89264D01*
X325515Y89366D01*
X325454Y89456D01*
X325370Y89534D01*
X325260Y89600D01*
X325127Y89654D01*
X324970Y89696D01*
X324788Y89726D01*
X324582Y89744D01*
X324539Y89745D01*
Y87578D01*
X323433Y87352D01*
X319518D01*
X318971Y87243D01*
X318508Y86934D01*
X318218Y86500D01*
X317719Y86001D01*
X317432Y85571D01*
X317423Y85525D01*
X316678D01*
X316679Y85485D01*
X316697Y85281D01*
X316727Y85101D01*
X316769Y84945D01*
X316823Y84813D01*
X316889Y84705D01*
X316967Y84621D01*
X317057Y84561D01*
X317159Y84525D01*
X317273Y84513D01*
X316637D01*
Y81474D01*
X315637D01*
Y84513D01*
X314968D01*
X315064Y84525D01*
X315150Y84561D01*
X315226Y84621D01*
X315291Y84705D01*
X315347Y84813D01*
X315392Y84945D01*
X315427Y85101D01*
X315452Y85281D01*
X315468Y85485D01*
X315468Y85525D01*
X314238D01*
X313956Y85525D01*
X313956Y85525D01*
X313118Y85325D01*
X313118Y85325D01*
X309318D01*
X309156Y85325D01*
X308118D01*
X307956Y85325D01*
X305694D01*
X305556Y85352D01*
X305556Y85352D01*
X303868D01*
X301274Y87946D01*
X301080Y88155D01*
X300946Y88323D01*
X300866Y88437D01*
Y88826D01*
X300870Y88844D01*
X300866Y88863D01*
Y91872D01*
X295811Y91872D01*
X295329Y92599D01*
X295813Y93335D01*
X296751Y93335D01*
X300866D01*
Y98872D01*
X299738D01*
X299729Y98926D01*
X299722Y98999D01*
Y100512D01*
X303048Y103837D01*
X304156Y103378D01*
D02*
G37*
G36*
X409155Y90435D02*
X409596Y90061D01*
X409791Y89926D01*
X409969Y89824D01*
X410131Y89756D01*
X410275Y89722D01*
X410402D01*
X410512Y89756D01*
X410606Y89824D01*
X408909Y88127D01*
X408977Y88220D01*
X409011Y88330D01*
Y88458D01*
X408977Y88602D01*
X408909Y88763D01*
X408807Y88941D01*
X408671Y89136D01*
X408501Y89349D01*
X408060Y89824D01*
X408909Y90672D01*
X409155Y90435D01*
D02*
G37*
G36*
X365654Y87859D02*
X365642Y87973D01*
X365605Y88075D01*
X365545Y88165D01*
X365460Y88243D01*
X365351Y88309D01*
X365218Y88363D01*
X365060Y88405D01*
X364878Y88435D01*
X364672Y88453D01*
X364442Y88459D01*
Y89659D01*
X364672Y89665D01*
X364878Y89683D01*
X365060Y89713D01*
X365218Y89755D01*
X365351Y89809D01*
X365460Y89875D01*
X365545Y89953D01*
X365605Y90043D01*
X365642Y90145D01*
X365654Y90259D01*
Y87859D01*
D02*
G37*
G36*
X354161Y90145D02*
X354198Y90043D01*
X354258Y89953D01*
X354343Y89875D01*
X354452Y89809D01*
X354586Y89755D01*
X354743Y89713D01*
X354925Y89683D01*
X355131Y89665D01*
X355361Y89659D01*
Y88459D01*
X355131Y88453D01*
X354925Y88435D01*
X354743Y88405D01*
X354586Y88363D01*
X354452Y88309D01*
X354343Y88243D01*
X354258Y88165D01*
X354198Y88075D01*
X354161Y87973D01*
X354149Y87859D01*
Y90259D01*
X354161Y90145D01*
D02*
G37*
G36*
X345721Y87300D02*
X345709Y87414D01*
X345673Y87516D01*
X345613Y87606D01*
X345529Y87684D01*
X345421Y87750D01*
X345289Y87804D01*
X345133Y87846D01*
X344953Y87876D01*
X344749Y87894D01*
X344521Y87900D01*
Y89100D01*
X344749Y89106D01*
X344953Y89124D01*
X345133Y89154D01*
X345289Y89196D01*
X345421Y89250D01*
X345529Y89316D01*
X345613Y89394D01*
X345673Y89484D01*
X345709Y89586D01*
X345721Y89700D01*
Y87300D01*
D02*
G37*
G36*
X341929Y89586D02*
X341965Y89484D01*
X342025Y89394D01*
X342109Y89316D01*
X342217Y89250D01*
X342349Y89196D01*
X342505Y89154D01*
X342685Y89124D01*
X342889Y89106D01*
X343117Y89100D01*
Y87900D01*
X342889Y87894D01*
X342685Y87876D01*
X342505Y87846D01*
X342349Y87804D01*
X342217Y87750D01*
X342109Y87684D01*
X342025Y87606D01*
X341965Y87516D01*
X341929Y87414D01*
X341917Y87300D01*
Y89700D01*
X341929Y89586D01*
D02*
G37*
G36*
X299987Y88751D02*
X299953Y88640D01*
Y88513D01*
X299987Y88369D01*
X300054Y88208D01*
X300156Y88029D01*
X300292Y87834D01*
X300462Y87622D01*
X300903Y87147D01*
X300054Y86299D01*
X299808Y86536D01*
X299367Y86909D01*
X299172Y87045D01*
X298994Y87147D01*
X298833Y87215D01*
X298688Y87249D01*
X298561D01*
X298451Y87215D01*
X298357Y87147D01*
X300054Y88844D01*
X299987Y88751D01*
D02*
G37*
G36*
X364830Y86586D02*
X364830Y85386D01*
Y83566D01*
X364762Y83469D01*
X364478Y83135D01*
X359460Y78117D01*
X346966D01*
X346420Y78008D01*
X346209Y77867D01*
X345391Y78145D01*
X345009Y78448D01*
Y84556D01*
X342788D01*
X342729Y85732D01*
X342729D01*
Y87056D01*
X342788Y87066D01*
X342860Y87073D01*
X344778D01*
X344850Y87066D01*
X344909Y87056D01*
Y85830D01*
X348827D01*
X349855Y85830D01*
X351055Y85830D01*
X354973D01*
Y87616D01*
X355027Y87625D01*
X355101Y87632D01*
X363636D01*
X364830Y86586D01*
D02*
G37*
G36*
X432909Y89475D02*
X433519Y86605D01*
X433596Y86439D01*
X433672Y86334D01*
X432824Y85486D01*
X432719Y85561D01*
X432553Y85639D01*
X432326Y85719D01*
X432038Y85802D01*
X431279Y85973D01*
X429029Y86344D01*
X432813Y90129D01*
X432909Y89475D01*
D02*
G37*
G36*
X381893Y87665D02*
X381929Y87568D01*
X381989Y87482D01*
X382073Y87408D01*
X382181Y87346D01*
X382313Y87295D01*
X382469Y87255D01*
X382649Y87226D01*
X382853Y87209D01*
X383081Y87204D01*
Y86004D01*
X382853Y85998D01*
X382649Y85981D01*
X382469Y85952D01*
X382313Y85912D01*
X382181Y85861D01*
X382073Y85799D01*
X381989Y85725D01*
X381929Y85639D01*
X381893Y85543D01*
X381881Y85434D01*
Y87773D01*
X381893Y87665D01*
D02*
G37*
G36*
X341244Y86543D02*
X341142Y86507D01*
X341052Y86446D01*
X340973Y86362D01*
X340908Y86252D01*
X340854Y86119D01*
X340811Y85962D01*
X340781Y85780D01*
X340763Y85574D01*
X340757Y85343D01*
X339558D01*
X339551Y85574D01*
X339533Y85780D01*
X339504Y85962D01*
X339461Y86119D01*
X339407Y86252D01*
X339341Y86362D01*
X339264Y86446D01*
X339174Y86507D01*
X339071Y86543D01*
X338958Y86555D01*
X341357D01*
X341244Y86543D01*
D02*
G37*
G36*
X334780Y86555D02*
X336042D01*
X335929Y86543D01*
X335826Y86507D01*
X335736Y86446D01*
X335659Y86362D01*
X335593Y86252D01*
X335539Y86119D01*
X335496Y85962D01*
X335467Y85780D01*
X335449Y85574D01*
X335442Y85343D01*
X334243D01*
X334237Y85574D01*
X334219Y85780D01*
X334189Y85962D01*
X334146Y86119D01*
X334092Y86252D01*
X334027Y86362D01*
X333956Y86438D01*
X333773Y86309D01*
X333560Y86139D01*
X333083Y85695D01*
X332234Y86544D01*
X332473Y86791D01*
X332849Y87233D01*
X332986Y87429D01*
X333089Y87607D01*
X333158Y87768D01*
X333193Y87912D01*
X333194Y88039D01*
X333161Y88148D01*
X333095Y88241D01*
X334780Y86555D01*
D02*
G37*
G36*
X403859Y87272D02*
X403925Y87255D01*
X404105Y87226D01*
X404309Y87209D01*
X404537Y87204D01*
Y86004D01*
X404309Y85998D01*
X404105Y85981D01*
X403925Y85952D01*
X403859Y85935D01*
Y85029D01*
X403607Y85215D01*
X402937Y85653D01*
X402742Y85760D01*
X402396Y85916D01*
X402245Y85965D01*
X402108Y85994D01*
X401985Y86004D01*
Y87204D01*
X402108Y87213D01*
X402245Y87243D01*
X402396Y87291D01*
X402562Y87359D01*
X402742Y87447D01*
X403146Y87681D01*
X403369Y87827D01*
X403859Y88178D01*
Y87272D01*
D02*
G37*
G36*
X385385Y85029D02*
X385133Y85215D01*
X384463Y85653D01*
X384268Y85760D01*
X383922Y85916D01*
X383771Y85965D01*
X383634Y85994D01*
X383512Y86004D01*
Y87204D01*
X383634Y87213D01*
X383771Y87243D01*
X383922Y87291D01*
X384088Y87359D01*
X384268Y87447D01*
X384672Y87681D01*
X384895Y87827D01*
X385385Y88178D01*
Y85029D01*
D02*
G37*
G36*
X340763Y84714D02*
X340781Y84509D01*
X340811Y84327D01*
X340854Y84170D01*
X340908Y84036D01*
X340973Y83927D01*
X341052Y83842D01*
X341142Y83781D01*
X341244Y83745D01*
X341357Y83732D01*
X339103Y83744D01*
X339189Y83756D01*
X339266Y83792D01*
X339335Y83852D01*
X339394Y83936D01*
X339444Y84044D01*
X339485Y84176D01*
X339516Y84332D01*
X339539Y84512D01*
X339553Y84716D01*
X339558Y84944D01*
X340757D01*
X340763Y84714D01*
D02*
G37*
G36*
X335449Y84714D02*
X335467Y84508D01*
X335496Y84326D01*
X335539Y84168D01*
X335593Y84035D01*
X335659Y83926D01*
X335736Y83841D01*
X335826Y83780D01*
X335929Y83744D01*
X336042Y83732D01*
X333643D01*
X333756Y83744D01*
X333858Y83780D01*
X333948Y83841D01*
X334027Y83926D01*
X334092Y84035D01*
X334146Y84168D01*
X334189Y84326D01*
X334219Y84508D01*
X334237Y84714D01*
X334243Y84944D01*
X335442D01*
X335449Y84714D01*
D02*
G37*
G36*
X396438Y91969D02*
X396630Y91762D01*
X396766Y91593D01*
X396841Y91486D01*
Y89902D01*
X396641Y88785D01*
X396641Y88505D01*
Y87103D01*
X400495D01*
Y86103D01*
X396641D01*
Y84702D01*
X396641Y84422D01*
X396675Y84231D01*
X396675Y84231D01*
X395712Y83046D01*
X395647Y83031D01*
X395644Y83032D01*
X395576Y83054D01*
X395301Y83177D01*
X395162Y83254D01*
X394536Y83663D01*
X394302Y83835D01*
X394237Y83865D01*
X394034Y84022D01*
X393360Y84301D01*
X392637Y84396D01*
X391915Y84301D01*
X391241Y84022D01*
X391041Y83868D01*
X390981Y83841D01*
X390505Y83500D01*
X390314Y83376D01*
X389955Y83168D01*
X389824Y83104D01*
X389712Y83058D01*
X389630Y83032D01*
X389627Y83031D01*
X388506D01*
X388015Y84107D01*
X388023Y84231D01*
X388542Y84629D01*
X388986Y85207D01*
X389265Y85881D01*
X389360Y86603D01*
X389265Y87326D01*
X388986Y88000D01*
X388542Y88578D01*
X387964Y89022D01*
X387290Y89301D01*
X386567Y89396D01*
X385845Y89301D01*
X385171Y89022D01*
X384971Y88868D01*
X384911Y88841D01*
X384435Y88500D01*
X384244Y88376D01*
X383885Y88168D01*
X382755Y88556D01*
X382693Y88585D01*
Y89622D01*
X382693Y89785D01*
Y93422D01*
X382693Y93585D01*
Y94622D01*
X382693Y94785D01*
Y98422D01*
X382693Y98585D01*
Y99026D01*
X383887Y100176D01*
X388231D01*
X396438Y91969D01*
D02*
G37*
G36*
X369358Y85027D02*
X369395Y84925D01*
X369455Y84835D01*
X369540Y84757D01*
X369649Y84691D01*
X369782Y84637D01*
X369940Y84595D01*
X370122Y84565D01*
X370328Y84547D01*
X370558Y84541D01*
Y83341D01*
X370328Y83335D01*
X370122Y83317D01*
X369940Y83287D01*
X369782Y83245D01*
X369649Y83191D01*
X369540Y83125D01*
X369455Y83047D01*
X369395Y82957D01*
X369358Y82855D01*
X369346Y82741D01*
Y85141D01*
X369358Y85027D01*
D02*
G37*
G36*
X323506Y83325D02*
X323277Y83319D01*
X323071Y83301D01*
X322890Y83271D01*
X322733Y83229D01*
X322599Y83175D01*
X322490Y83109D01*
X322405Y83031D01*
X322344Y82941D01*
X322307Y82839D01*
X322294Y82725D01*
X322306Y84513D01*
X323506Y84525D01*
Y83325D01*
D02*
G37*
G36*
X304968Y84513D02*
X304980Y82725D01*
X304967Y82839D01*
X304930Y82941D01*
X304870Y83031D01*
X304784Y83109D01*
X304675Y83175D01*
X304542Y83229D01*
X304385Y83271D01*
X304203Y83301D01*
X303998Y83319D01*
X303768Y83325D01*
Y84525D01*
X304968Y84513D01*
D02*
G37*
G36*
X331591Y82140D02*
X331991Y81818D01*
Y77444D01*
X344005D01*
X344502Y76244D01*
X340577Y72319D01*
X340367Y72124D01*
X340212Y72000D01*
X335000D01*
Y71361D01*
X334954Y71357D01*
X333446D01*
X333374Y71363D01*
X333315Y71373D01*
Y73580D01*
X329279D01*
X329007Y73988D01*
X329007Y73988D01*
X325985Y77009D01*
X325522Y77319D01*
X324976Y77427D01*
X324976Y77427D01*
X324238D01*
X323118Y77622D01*
Y82482D01*
X323174Y82491D01*
X323247Y82497D01*
X330464D01*
X330464Y82497D01*
X330791Y82562D01*
X331591Y82140D01*
D02*
G37*
G36*
X367339Y82292D02*
X367247Y82358D01*
X367137Y82391D01*
X367011Y82390D01*
X366867Y82355D01*
X366706Y82286D01*
X366527Y82183D01*
X366332Y82046D01*
X366119Y81875D01*
X365642Y81431D01*
X364793Y82280D01*
X365032Y82527D01*
X365408Y82969D01*
X365545Y83165D01*
X365648Y83343D01*
X365717Y83504D01*
X365752Y83648D01*
X365753Y83775D01*
X365721Y83885D01*
X365654Y83977D01*
X367339Y82292D01*
D02*
G37*
G36*
X376443Y83382D02*
X376886Y83007D01*
X377081Y82870D01*
X377260Y82767D01*
X377421Y82697D01*
X377565Y82662D01*
X377691Y82661D01*
X377801Y82694D01*
X377893Y82761D01*
X376208Y81076D01*
X376275Y81168D01*
X376308Y81277D01*
X376306Y81404D01*
X376271Y81548D01*
X376202Y81709D01*
X376099Y81887D01*
X375962Y82083D01*
X375791Y82296D01*
X375348Y82773D01*
X376196Y83621D01*
X376443Y83382D01*
D02*
G37*
G36*
X397653Y80434D02*
X397641Y80542D01*
X397605Y80639D01*
X397545Y80725D01*
X397461Y80799D01*
X397353Y80861D01*
X397221Y80912D01*
X397065Y80952D01*
X396885Y80981D01*
X396681Y80998D01*
X396453Y81003D01*
Y82204D01*
X396681Y82209D01*
X396885Y82226D01*
X397065Y82255D01*
X397221Y82295D01*
X397353Y82346D01*
X397461Y82408D01*
X397545Y82482D01*
X397605Y82568D01*
X397641Y82665D01*
X397653Y82773D01*
Y80434D01*
D02*
G37*
G36*
X381893Y82665D02*
X381929Y82568D01*
X381989Y82482D01*
X382073Y82408D01*
X382181Y82346D01*
X382313Y82295D01*
X382469Y82255D01*
X382649Y82226D01*
X382853Y82209D01*
X383081Y82204D01*
Y81003D01*
X382853Y80998D01*
X382649Y80981D01*
X382469Y80952D01*
X382313Y80912D01*
X382181Y80861D01*
X382073Y80799D01*
X381989Y80725D01*
X381929Y80639D01*
X381893Y80542D01*
X381881Y80434D01*
Y82773D01*
X381893Y82665D01*
D02*
G37*
G36*
X411853Y81383D02*
X411751Y81347D01*
X411661Y81286D01*
X411583Y81201D01*
X411517Y81092D01*
X411463Y80959D01*
X411421Y80801D01*
X411391Y80620D01*
X411373Y80414D01*
X411367Y80183D01*
X410167D01*
X410161Y80414D01*
X410143Y80620D01*
X410113Y80801D01*
X410071Y80959D01*
X410017Y81092D01*
X409951Y81201D01*
X409873Y81286D01*
X409783Y81347D01*
X409681Y81383D01*
X409567Y81395D01*
X411967D01*
X411853Y81383D01*
D02*
G37*
G36*
X394072Y82993D02*
X394742Y82554D01*
X394936Y82447D01*
X395282Y82291D01*
X395434Y82243D01*
X395571Y82213D01*
X395693Y82204D01*
Y81003D01*
X395571Y80994D01*
X395434Y80964D01*
X395282Y80916D01*
X395117Y80848D01*
X394936Y80760D01*
X394533Y80526D01*
X394309Y80380D01*
X393819Y80029D01*
Y83178D01*
X394072Y82993D01*
D02*
G37*
G36*
X391455Y80029D02*
X391203Y80215D01*
X390533Y80653D01*
X390338Y80760D01*
X389992Y80916D01*
X389841Y80964D01*
X389704Y80994D01*
X389581Y81003D01*
Y82204D01*
X389704Y82213D01*
X389841Y82243D01*
X389992Y82291D01*
X390158Y82359D01*
X390338Y82447D01*
X390742Y82681D01*
X390965Y82827D01*
X391455Y83178D01*
Y80029D01*
D02*
G37*
G36*
X411373Y79796D02*
X411391Y79592D01*
X411421Y79412D01*
X411463Y79256D01*
X411517Y79124D01*
X411583Y79016D01*
X411661Y78932D01*
X411751Y78872D01*
X411853Y78836D01*
X411967Y78824D01*
X409567D01*
X409681Y78836D01*
X409783Y78872D01*
X409873Y78932D01*
X409951Y79016D01*
X410017Y79124D01*
X410071Y79256D01*
X410113Y79412D01*
X410143Y79592D01*
X410161Y79796D01*
X410167Y80024D01*
X411367D01*
X411373Y79796D01*
D02*
G37*
G36*
X317200Y78422D02*
X317105Y78386D01*
X317021Y78326D01*
X316949Y78242D01*
X316887Y78134D01*
X316837Y78002D01*
X316798Y77846D01*
X316770Y77666D01*
X316753Y77462D01*
X316747Y77234D01*
X315547D01*
X315542Y77462D01*
X315524Y77666D01*
X315495Y77846D01*
X315455Y78002D01*
X315403Y78134D01*
X315339Y78242D01*
X315264Y78326D01*
X315177Y78386D01*
X315078Y78422D01*
X314968Y78434D01*
X317306D01*
X317200Y78422D01*
D02*
G37*
G36*
X312076Y78434D02*
X311974Y78397D01*
X311884Y78336D01*
X311806Y78251D01*
X311740Y78142D01*
X311686Y78009D01*
X311644Y77851D01*
X311614Y77670D01*
X311596Y77464D01*
X311590Y77234D01*
X310390D01*
X310386Y77462D01*
X310352Y77846D01*
X310322Y78002D01*
X310284Y78134D01*
X310238Y78242D01*
X310183Y78326D01*
X310120Y78386D01*
X310048Y78422D01*
X309968Y78434D01*
X312190Y78446D01*
X312076Y78434D01*
D02*
G37*
G36*
X428094Y78593D02*
X428130Y78491D01*
X428191Y78401D01*
X428276Y78323D01*
X428385Y78257D01*
X428518Y78203D01*
X428676Y78161D01*
X428858Y78131D01*
X429064Y78113D01*
X429294Y78107D01*
Y76907D01*
X429064Y76901D01*
X428858Y76883D01*
X428676Y76853D01*
X428518Y76811D01*
X428385Y76757D01*
X428276Y76691D01*
X428191Y76613D01*
X428130Y76523D01*
X428094Y76421D01*
X428082Y76307D01*
Y78707D01*
X428094Y78593D01*
D02*
G37*
G36*
X424193Y76307D02*
X424181Y76421D01*
X424144Y76523D01*
X424084Y76613D01*
X423999Y76691D01*
X423890Y76757D01*
X423757Y76811D01*
X423599Y76853D01*
X423417Y76883D01*
X423211Y76901D01*
X422981Y76907D01*
Y78107D01*
X423211Y78113D01*
X423417Y78131D01*
X423599Y78161D01*
X423757Y78203D01*
X423890Y78257D01*
X423999Y78323D01*
X424084Y78401D01*
X424144Y78491D01*
X424181Y78593D01*
X424193Y78707D01*
Y76307D01*
D02*
G37*
G36*
X421381Y78593D02*
X421418Y78491D01*
X421478Y78401D01*
X421563Y78323D01*
X421672Y78257D01*
X421805Y78203D01*
X421963Y78161D01*
X422145Y78131D01*
X422351Y78113D01*
X422581Y78107D01*
Y76907D01*
X422351Y76901D01*
X422145Y76883D01*
X421963Y76853D01*
X421805Y76811D01*
X421672Y76757D01*
X421563Y76691D01*
X421478Y76613D01*
X421418Y76523D01*
X421381Y76421D01*
X421369Y76307D01*
Y78707D01*
X421381Y78593D01*
D02*
G37*
G36*
X408921Y75683D02*
X408909Y75797D01*
X408872Y75899D01*
X408812Y75989D01*
X408727Y76067D01*
X408618Y76133D01*
X408484Y76187D01*
X408327Y76229D01*
X408145Y76259D01*
X407939Y76277D01*
X407709Y76283D01*
Y77483D01*
X407939Y77489D01*
X408145Y77507D01*
X408327Y77537D01*
X408484Y77579D01*
X408618Y77633D01*
X408727Y77699D01*
X408812Y77777D01*
X408872Y77867D01*
X408909Y77969D01*
X408921Y78083D01*
Y75683D01*
D02*
G37*
G36*
X403349Y77718D02*
X403385Y77668D01*
X403445Y77625D01*
X403529Y77587D01*
X403637Y77555D01*
X403769Y77529D01*
X403925Y77509D01*
X404309Y77486D01*
X404537Y77483D01*
Y76283D01*
X404309Y76277D01*
X404105Y76259D01*
X403925Y76229D01*
X403769Y76187D01*
X403637Y76133D01*
X403529Y76067D01*
X403445Y75989D01*
X403385Y75899D01*
X403349Y75797D01*
X403337Y75683D01*
Y77773D01*
X403349Y77718D01*
D02*
G37*
G36*
X376196Y75434D02*
X376184Y75542D01*
X376148Y75639D01*
X376088Y75725D01*
X376004Y75799D01*
X375896Y75861D01*
X375764Y75912D01*
X375608Y75952D01*
X375428Y75981D01*
X375224Y75998D01*
X374996Y76003D01*
Y77204D01*
X375224Y77209D01*
X375428Y77226D01*
X375608Y77255D01*
X375764Y77295D01*
X375896Y77346D01*
X376004Y77408D01*
X376088Y77482D01*
X376148Y77568D01*
X376184Y77665D01*
X376196Y77773D01*
Y75434D01*
D02*
G37*
G36*
X316753Y75926D02*
X316771Y75720D01*
X316801Y75538D01*
X316843Y75381D01*
X316897Y75248D01*
X316963Y75138D01*
X317041Y75054D01*
X317131Y74993D01*
X317233Y74957D01*
X317347Y74945D01*
X314947D01*
X315061Y74957D01*
X315163Y74993D01*
X315253Y75054D01*
X315331Y75138D01*
X315397Y75248D01*
X315451Y75381D01*
X315493Y75538D01*
X315523Y75720D01*
X315541Y75926D01*
X315547Y76157D01*
X316747D01*
X316753Y75926D01*
D02*
G37*
G36*
X311596D02*
X311614Y75720D01*
X311644Y75538D01*
X311686Y75381D01*
X311740Y75248D01*
X311806Y75138D01*
X311884Y75054D01*
X311974Y74993D01*
X312076Y74957D01*
X312190Y74945D01*
X309790D01*
X309904Y74957D01*
X310006Y74993D01*
X310096Y75054D01*
X310174Y75138D01*
X310240Y75248D01*
X310294Y75381D01*
X310336Y75538D01*
X310366Y75720D01*
X310384Y75926D01*
X310390Y76157D01*
X311590D01*
X311596Y75926D01*
D02*
G37*
G36*
X367473Y73824D02*
X367235Y73577D01*
X366859Y73134D01*
X366722Y72938D01*
X366619Y72760D01*
X366550Y72599D01*
X366515Y72455D01*
X366513Y72329D01*
X366546Y72219D01*
X366613Y72127D01*
X364928Y73812D01*
X365020Y73745D01*
X365129Y73712D01*
X365256Y73714D01*
X365400Y73749D01*
X365561Y73818D01*
X365739Y73921D01*
X365935Y74058D01*
X366148Y74229D01*
X366625Y74672D01*
X367473Y73824D01*
D02*
G37*
G36*
X362921Y70963D02*
X362909Y71077D01*
X362872Y71179D01*
X362812Y71269D01*
X362727Y71347D01*
X362618Y71413D01*
X362484Y71467D01*
X362327Y71509D01*
X362145Y71539D01*
X361939Y71557D01*
X361767Y71561D01*
X361595Y71557D01*
X361388Y71539D01*
X361207Y71509D01*
X361049Y71467D01*
X360916Y71413D01*
X360807Y71347D01*
X360722Y71269D01*
X360661Y71179D01*
X360625Y71077D01*
X360613Y70963D01*
Y73363D01*
X360625Y73249D01*
X360661Y73147D01*
X360722Y73057D01*
X360807Y72979D01*
X360916Y72913D01*
X361049Y72859D01*
X361207Y72817D01*
X361388Y72787D01*
X361595Y72769D01*
X361767Y72764D01*
X361939Y72769D01*
X362145Y72787D01*
X362327Y72817D01*
X362484Y72859D01*
X362618Y72913D01*
X362727Y72979D01*
X362812Y73057D01*
X362872Y73147D01*
X362909Y73249D01*
X362921Y73363D01*
Y70963D01*
D02*
G37*
G36*
X342224Y71099D02*
X341986Y70853D01*
X341613Y70411D01*
X341477Y70216D01*
X341375Y70038D01*
X341307Y69877D01*
X341273Y69732D01*
Y69605D01*
X341307Y69495D01*
X341375Y69402D01*
X339678Y71099D01*
X339772Y71031D01*
X339882Y70997D01*
X340009D01*
X340153Y71031D01*
X340315Y71099D01*
X340493Y71200D01*
X340688Y71336D01*
X340900Y71506D01*
X341375Y71947D01*
X342224Y71099D01*
D02*
G37*
G36*
X424193Y70992D02*
X424181Y71106D01*
X424144Y71208D01*
X424084Y71298D01*
X423999Y71376D01*
X423890Y71442D01*
X423757Y71496D01*
X423599Y71538D01*
X423417Y71568D01*
X423211Y71586D01*
X422981Y71592D01*
Y72792D01*
X423211Y72798D01*
X423417Y72816D01*
X423599Y72846D01*
X423757Y72888D01*
X423890Y72942D01*
X423999Y73008D01*
X424084Y73086D01*
X424144Y73176D01*
X424181Y73278D01*
X424193Y73392D01*
Y70992D01*
D02*
G37*
G36*
X421381Y73278D02*
X421418Y73176D01*
X421478Y73086D01*
X421563Y73008D01*
X421672Y72942D01*
X421805Y72888D01*
X421963Y72846D01*
X422145Y72816D01*
X422351Y72798D01*
X422581Y72792D01*
Y71592D01*
X422351Y71586D01*
X422145Y71568D01*
X421963Y71538D01*
X421805Y71496D01*
X421672Y71442D01*
X421563Y71376D01*
X421478Y71298D01*
X421418Y71208D01*
X421381Y71106D01*
X421369Y70992D01*
Y73392D01*
X421381Y73278D01*
D02*
G37*
G36*
X415905Y70844D02*
X415893Y70958D01*
X415857Y71060D01*
X415796Y71150D01*
X415711Y71228D01*
X415602Y71294D01*
X415469Y71348D01*
X415311Y71390D01*
X415130Y71420D01*
X414924Y71438D01*
X414693Y71444D01*
Y72644D01*
X414924Y72650D01*
X415130Y72668D01*
X415311Y72698D01*
X415469Y72740D01*
X415602Y72794D01*
X415711Y72860D01*
X415796Y72938D01*
X415857Y73028D01*
X415893Y73130D01*
X415905Y73244D01*
Y70844D01*
D02*
G37*
G36*
X412625Y73130D02*
X412661Y73028D01*
X412722Y72938D01*
X412807Y72860D01*
X412916Y72794D01*
X413049Y72740D01*
X413207Y72698D01*
X413388Y72668D01*
X413595Y72650D01*
X413825Y72644D01*
Y71444D01*
X413595Y71438D01*
X413388Y71420D01*
X413207Y71390D01*
X413049Y71348D01*
X412916Y71294D01*
X412807Y71228D01*
X412722Y71150D01*
X412661Y71060D01*
X412625Y70958D01*
X412613Y70844D01*
Y73244D01*
X412625Y73130D01*
D02*
G37*
G36*
X408921Y70624D02*
X408909Y70738D01*
X408872Y70840D01*
X408812Y70930D01*
X408727Y71008D01*
X408618Y71074D01*
X408484Y71128D01*
X408327Y71170D01*
X408145Y71200D01*
X407939Y71218D01*
X407709Y71224D01*
Y72424D01*
X407939Y72430D01*
X408145Y72448D01*
X408327Y72478D01*
X408484Y72520D01*
X408618Y72574D01*
X408727Y72640D01*
X408812Y72718D01*
X408872Y72808D01*
X408909Y72910D01*
X408921Y73024D01*
Y70624D01*
D02*
G37*
G36*
X403349Y72706D02*
X403385Y72647D01*
X403445Y72595D01*
X403529Y72549D01*
X403637Y72511D01*
X403769Y72480D01*
X403925Y72455D01*
X404105Y72438D01*
X404537Y72424D01*
Y71224D01*
X404309Y71218D01*
X404105Y71200D01*
X403925Y71170D01*
X403769Y71128D01*
X403637Y71074D01*
X403529Y71008D01*
X403445Y70930D01*
X403385Y70840D01*
X403349Y70738D01*
X403337Y70624D01*
Y72773D01*
X403349Y72706D01*
D02*
G37*
G36*
X358398Y70513D02*
X358314Y70589D01*
X358212Y70629D01*
X358091Y70633D01*
X357950Y70601D01*
X357790Y70533D01*
X357611Y70429D01*
X357412Y70289D01*
X357194Y70113D01*
X356700Y69653D01*
X355636Y70285D01*
X355946Y70604D01*
X356634Y71417D01*
X356783Y71641D01*
X356891Y71842D01*
X356959Y72018D01*
X356987Y72171D01*
X356974Y72301D01*
X356921Y72407D01*
X358398Y70513D01*
D02*
G37*
G36*
X377893Y70446D02*
X377801Y70513D01*
X377691Y70546D01*
X377565Y70545D01*
X377421Y70509D01*
X377260Y70440D01*
X377081Y70337D01*
X376886Y70200D01*
X376673Y70029D01*
X376196Y69586D01*
X375348Y70434D01*
X375586Y70682D01*
X375962Y71124D01*
X376099Y71320D01*
X376202Y71498D01*
X376271Y71659D01*
X376306Y71803D01*
X376308Y71930D01*
X376275Y72039D01*
X376208Y72132D01*
X377893Y70446D01*
D02*
G37*
G36*
X372777Y70051D02*
X372468Y70004D01*
X371684Y69840D01*
X371471Y69778D01*
X371116Y69643D01*
X370974Y69571D01*
X370857Y69495D01*
X370763Y69415D01*
X369915Y70263D01*
X369995Y70357D01*
X370071Y70474D01*
X370143Y70616D01*
X370212Y70781D01*
X370278Y70971D01*
X370398Y71421D01*
X370453Y71683D01*
X370551Y72277D01*
X372777Y70051D01*
D02*
G37*
G36*
X335888Y68760D02*
X335876Y68868D01*
X335840Y68965D01*
X335780Y69051D01*
X335696Y69125D01*
X335588Y69187D01*
X335455Y69239D01*
X335299Y69278D01*
X335120Y69307D01*
X334915Y69324D01*
X334687Y69330D01*
Y70530D01*
X334915Y70535D01*
X335120Y70552D01*
X335299Y70581D01*
X335455Y70621D01*
X335588Y70672D01*
X335696Y70734D01*
X335780Y70808D01*
X335840Y70894D01*
X335876Y70991D01*
X335888Y71099D01*
Y68760D01*
D02*
G37*
G36*
X332515Y71016D02*
X332551Y70913D01*
X332611Y70824D01*
X332695Y70745D01*
X332803Y70679D01*
X332935Y70626D01*
X333091Y70583D01*
X333271Y70553D01*
X333475Y70535D01*
X333703Y70530D01*
Y69330D01*
X333475Y69323D01*
X333271Y69305D01*
X333091Y69275D01*
X332935Y69234D01*
X332803Y69179D01*
X332695Y69113D01*
X332611Y69036D01*
X332551Y68945D01*
X332515Y68844D01*
X332503Y68730D01*
Y71130D01*
X332515Y71016D01*
D02*
G37*
G36*
X366622Y67903D02*
X366650Y67849D01*
X366697Y67801D01*
X366762Y67760D01*
X366846Y67724D01*
X366948Y67696D01*
X367069Y67673D01*
X367209Y67657D01*
X367367Y67648D01*
X367545Y67644D01*
Y66444D01*
X367367Y66441D01*
X367069Y66416D01*
X366948Y66393D01*
X366846Y66365D01*
X366762Y66329D01*
X366697Y66288D01*
X366650Y66240D01*
X366622Y66186D01*
X366613Y66125D01*
Y67964D01*
X366622Y67903D01*
D02*
G37*
G36*
X434836Y66562D02*
X434854Y66358D01*
X434884Y66178D01*
X434926Y66022D01*
X434980Y65890D01*
X435046Y65782D01*
X435124Y65698D01*
X435214Y65638D01*
X435316Y65602D01*
X435430Y65590D01*
X433642D01*
X433640Y65602D01*
X433638Y65638D01*
X433630Y66790D01*
X434830D01*
X434836Y66562D01*
D02*
G37*
G36*
X426207Y65590D02*
X425969Y65344D01*
X425596Y64903D01*
X425460Y64708D01*
X425358Y64530D01*
X425290Y64368D01*
X425256Y64224D01*
Y64097D01*
X425290Y63987D01*
X425358Y63893D01*
X423661Y65590D01*
X423754Y65522D01*
X423865Y65488D01*
X423992D01*
X424136Y65522D01*
X424297Y65590D01*
X424476Y65692D01*
X424671Y65828D01*
X424883Y65998D01*
X425358Y66439D01*
X426207Y65590D01*
D02*
G37*
G36*
X360537Y66800D02*
X360498Y66697D01*
X360494Y66575D01*
X360526Y66435D01*
X360594Y66274D01*
X360698Y66095D01*
X360838Y65897D01*
X361014Y65679D01*
X361473Y65186D01*
X360428Y64535D01*
X360190Y64765D01*
X359759Y65129D01*
X359566Y65263D01*
X359389Y65365D01*
X359227Y65435D01*
X359080Y65473D01*
X358948Y65479D01*
X358832Y65453D01*
X358731Y65395D01*
X360613Y66883D01*
X360537Y66800D01*
D02*
G37*
G36*
X433654Y62729D02*
X433642Y62843D01*
X433605Y62945D01*
X433545Y63035D01*
X433460Y63113D01*
X433351Y63179D01*
X433218Y63233D01*
X433060Y63275D01*
X432878Y63305D01*
X432672Y63323D01*
X432500Y63328D01*
X432328Y63323D01*
X432122Y63305D01*
X431940Y63275D01*
X431782Y63233D01*
X431649Y63179D01*
X431540Y63113D01*
X431455Y63035D01*
X431395Y62945D01*
X431358Y62843D01*
X431346Y62729D01*
Y65129D01*
X431358Y65015D01*
X431395Y64913D01*
X431455Y64823D01*
X431540Y64745D01*
X431649Y64679D01*
X431782Y64625D01*
X431940Y64583D01*
X432122Y64553D01*
X432328Y64535D01*
X432500Y64531D01*
X432672Y64535D01*
X432878Y64553D01*
X433060Y64583D01*
X433218Y64625D01*
X433351Y64679D01*
X433460Y64745D01*
X433545Y64823D01*
X433605Y64913D01*
X433642Y65015D01*
X433654Y65129D01*
Y62729D01*
D02*
G37*
G36*
X421654D02*
X421642Y62843D01*
X421605Y62945D01*
X421545Y63035D01*
X421460Y63113D01*
X421351Y63179D01*
X421218Y63233D01*
X421060Y63275D01*
X420878Y63305D01*
X420672Y63323D01*
X420500Y63328D01*
X420328Y63323D01*
X420122Y63305D01*
X419940Y63275D01*
X419782Y63233D01*
X419649Y63179D01*
X419540Y63113D01*
X419455Y63035D01*
X419395Y62945D01*
X419358Y62843D01*
X419346Y62729D01*
Y65129D01*
X419358Y65015D01*
X419395Y64913D01*
X419455Y64823D01*
X419540Y64745D01*
X419649Y64679D01*
X419782Y64625D01*
X419940Y64583D01*
X420122Y64553D01*
X420328Y64535D01*
X420500Y64531D01*
X420672Y64535D01*
X420878Y64553D01*
X421060Y64583D01*
X421218Y64625D01*
X421351Y64679D01*
X421460Y64745D01*
X421545Y64823D01*
X421605Y64913D01*
X421642Y65015D01*
X421654Y65129D01*
Y62729D01*
D02*
G37*
G36*
X409654D02*
X409642Y62843D01*
X409605Y62945D01*
X409545Y63035D01*
X409460Y63113D01*
X409351Y63179D01*
X409218Y63233D01*
X409060Y63275D01*
X408878Y63305D01*
X408672Y63323D01*
X408500Y63328D01*
X408328Y63323D01*
X408122Y63305D01*
X407940Y63275D01*
X407782Y63233D01*
X407649Y63179D01*
X407540Y63113D01*
X407455Y63035D01*
X407395Y62945D01*
X407358Y62843D01*
X407346Y62729D01*
Y65129D01*
X407358Y65015D01*
X407395Y64913D01*
X407455Y64823D01*
X407540Y64745D01*
X407649Y64679D01*
X407782Y64625D01*
X407940Y64583D01*
X408122Y64553D01*
X408328Y64535D01*
X408500Y64531D01*
X408672Y64535D01*
X408878Y64553D01*
X409060Y64583D01*
X409218Y64625D01*
X409351Y64679D01*
X409460Y64745D01*
X409545Y64823D01*
X409605Y64913D01*
X409642Y65015D01*
X409654Y65129D01*
Y62729D01*
D02*
G37*
G36*
X394055Y66586D02*
X394091Y66484D01*
X394151Y66394D01*
X394236Y66316D01*
X394345Y66250D01*
X394479Y66196D01*
X394636Y66154D01*
X394818Y66124D01*
X395024Y66106D01*
X395254Y66100D01*
Y64900D01*
X395024Y64894D01*
X394818Y64876D01*
X394636Y64846D01*
X394479Y64804D01*
X394345Y64750D01*
X394236Y64684D01*
X394151Y64606D01*
X394091Y64516D01*
X394055Y64414D01*
X394042Y64300D01*
Y66700D01*
X394055Y66586D01*
D02*
G37*
G36*
X403888Y66201D02*
X404329Y65828D01*
X404524Y65692D01*
X404703Y65590D01*
X404864Y65522D01*
X405008Y65488D01*
X405135D01*
X405246Y65522D01*
X405339Y65590D01*
X403642Y63893D01*
X403710Y63987D01*
X403744Y64097D01*
Y64224D01*
X403710Y64368D01*
X403642Y64530D01*
X403540Y64708D01*
X403404Y64903D01*
X403235Y65115D01*
X402793Y65590D01*
X403642Y66439D01*
X403888Y66201D01*
D02*
G37*
G36*
X371727Y61462D02*
X369939Y61450D01*
X370053Y61462D01*
X370155Y61499D01*
X370245Y61560D01*
X370323Y61645D01*
X370389Y61755D01*
X370443Y61888D01*
X370485Y62045D01*
X370515Y62226D01*
X370533Y62432D01*
X370539Y62662D01*
X371739D01*
X371727Y61462D01*
D02*
G37*
G36*
X357620Y62431D02*
X357638Y62225D01*
X357668Y62043D01*
X357710Y61886D01*
X357764Y61753D01*
X357830Y61643D01*
X357908Y61559D01*
X357998Y61498D01*
X358100Y61462D01*
X358214Y61450D01*
X355814D01*
X355928Y61462D01*
X356030Y61498D01*
X356120Y61559D01*
X356198Y61643D01*
X356264Y61753D01*
X356318Y61886D01*
X356360Y62043D01*
X356390Y62225D01*
X356408Y62431D01*
X356414Y62662D01*
X357614D01*
X357620Y62431D01*
D02*
G37*
G36*
X352411Y67272D02*
X352411Y60776D01*
X351919Y60284D01*
X342372D01*
X339812Y62843D01*
Y65205D01*
X342372Y67764D01*
X351919D01*
X352411Y67272D01*
D02*
G37*
G36*
X391074Y56463D02*
X390823Y56657D01*
X390156Y57117D01*
X389963Y57230D01*
X389620Y57393D01*
X389471Y57444D01*
X389394Y57462D01*
X389388Y57461D01*
X389207Y57431D01*
X389049Y57389D01*
X388916Y57335D01*
X388807Y57269D01*
X388722Y57191D01*
X388661Y57101D01*
X388625Y56999D01*
X388613Y56885D01*
Y59285D01*
X388625Y59171D01*
X388661Y59069D01*
X388722Y58979D01*
X388807Y58901D01*
X388916Y58835D01*
X389049Y58781D01*
X389207Y58739D01*
X389388Y58709D01*
X389441Y58704D01*
X389529Y58722D01*
X389683Y58768D01*
X389850Y58833D01*
X390032Y58916D01*
X390437Y59138D01*
X390661Y59277D01*
X391152Y59610D01*
X391074Y56463D01*
D02*
G37*
G36*
X384921Y56963D02*
X384909Y57077D01*
X384872Y57179D01*
X384812Y57269D01*
X384727Y57347D01*
X384618Y57413D01*
X384484Y57467D01*
X384327Y57509D01*
X384145Y57539D01*
X383939Y57557D01*
X383709Y57563D01*
Y58763D01*
X383939Y58769D01*
X384145Y58787D01*
X384327Y58817D01*
X384484Y58859D01*
X384618Y58913D01*
X384727Y58979D01*
X384812Y59057D01*
X384872Y59147D01*
X384909Y59249D01*
X384921Y59363D01*
Y56963D01*
D02*
G37*
G36*
X381511Y59249D02*
X381547Y59147D01*
X381608Y59057D01*
X381693Y58979D01*
X381802Y58913D01*
X381935Y58859D01*
X382092Y58817D01*
X382274Y58787D01*
X382480Y58769D01*
X382711Y58763D01*
Y57563D01*
X382480Y57557D01*
X382274Y57539D01*
X382092Y57509D01*
X381935Y57467D01*
X381802Y57413D01*
X381693Y57347D01*
X381608Y57269D01*
X381547Y57179D01*
X381511Y57077D01*
X381499Y56963D01*
Y59363D01*
X381511Y59249D01*
D02*
G37*
G36*
X371235Y57745D02*
X371133Y57709D01*
X371043Y57648D01*
X370965Y57564D01*
X370899Y57454D01*
X370845Y57321D01*
X370803Y57164D01*
X370773Y56982D01*
X370755Y56776D01*
X370749Y56545D01*
X369549D01*
X369543Y56776D01*
X369525Y56982D01*
X369495Y57164D01*
X369453Y57321D01*
X369399Y57454D01*
X369333Y57564D01*
X369255Y57648D01*
X369165Y57709D01*
X369063Y57745D01*
X368949Y57757D01*
X371349D01*
X371235Y57745D01*
D02*
G37*
G36*
X430586Y57150D02*
X430484Y57113D01*
X430394Y57053D01*
X430316Y56968D01*
X430250Y56859D01*
X430196Y56726D01*
X430154Y56568D01*
X430124Y56386D01*
X430106Y56180D01*
X430100Y55950D01*
X428900D01*
X428894Y56180D01*
X428876Y56386D01*
X428846Y56568D01*
X428804Y56726D01*
X428750Y56859D01*
X428684Y56968D01*
X428606Y57053D01*
X428516Y57113D01*
X428414Y57150D01*
X428300Y57162D01*
X430700D01*
X430586Y57150D01*
D02*
G37*
G36*
X418586D02*
X418484Y57113D01*
X418394Y57053D01*
X418316Y56968D01*
X418250Y56859D01*
X418196Y56726D01*
X418154Y56568D01*
X418124Y56386D01*
X418106Y56180D01*
X418100Y55950D01*
X416900D01*
X416894Y56180D01*
X416876Y56386D01*
X416846Y56568D01*
X416804Y56726D01*
X416750Y56859D01*
X416684Y56968D01*
X416606Y57053D01*
X416516Y57113D01*
X416414Y57150D01*
X416300Y57162D01*
X418700D01*
X418586Y57150D01*
D02*
G37*
G36*
X407358Y57150D02*
X407360Y57138D01*
X407362Y57102D01*
X407370Y55950D01*
X406170D01*
X406164Y56179D01*
X406146Y56385D01*
X406116Y56566D01*
X406074Y56723D01*
X406020Y56857D01*
X405954Y56966D01*
X405876Y57051D01*
X405786Y57112D01*
X405684Y57149D01*
X405570Y57162D01*
X407358Y57150D01*
D02*
G37*
G36*
X436110Y57304D02*
X436139Y57166D01*
X436140Y57162D01*
X436700D01*
X436586Y57150D01*
X436484Y57113D01*
X436394Y57053D01*
X436316Y56968D01*
X436251Y56861D01*
X436256Y56849D01*
X436343Y56669D01*
X436577Y56266D01*
X436723Y56042D01*
X437074Y55552D01*
X433926D01*
X434111Y55804D01*
X434549Y56475D01*
X434656Y56669D01*
X434745Y56867D01*
X434684Y56968D01*
X434606Y57053D01*
X434516Y57113D01*
X434414Y57150D01*
X434300Y57162D01*
X434860D01*
X434861Y57166D01*
X434890Y57304D01*
X434900Y57426D01*
X436100D01*
X436110Y57304D01*
D02*
G37*
G36*
X424110D02*
X424139Y57166D01*
X424141Y57162D01*
X424700D01*
X424586Y57150D01*
X424484Y57113D01*
X424394Y57053D01*
X424316Y56968D01*
X424251Y56861D01*
X424256Y56849D01*
X424343Y56669D01*
X424577Y56266D01*
X424723Y56042D01*
X425074Y55552D01*
X421926D01*
X422111Y55804D01*
X422549Y56475D01*
X422656Y56669D01*
X422745Y56867D01*
X422684Y56968D01*
X422606Y57053D01*
X422516Y57113D01*
X422414Y57150D01*
X422300Y57162D01*
X422859D01*
X422861Y57166D01*
X422890Y57304D01*
X422900Y57426D01*
X424100D01*
X424110Y57304D01*
D02*
G37*
G36*
X412110D02*
X412139Y57166D01*
X412141Y57162D01*
X412700D01*
X412586Y57150D01*
X412484Y57113D01*
X412394Y57053D01*
X412316Y56968D01*
X412251Y56861D01*
X412256Y56849D01*
X412344Y56669D01*
X412577Y56266D01*
X412723Y56042D01*
X413074Y55552D01*
X409926D01*
X410111Y55804D01*
X410549Y56475D01*
X410656Y56669D01*
X410745Y56867D01*
X410684Y56968D01*
X410606Y57053D01*
X410516Y57113D01*
X410414Y57150D01*
X410300Y57162D01*
X410859D01*
X410861Y57166D01*
X410890Y57304D01*
X410900Y57426D01*
X412100D01*
X412110Y57304D01*
D02*
G37*
G36*
X382934Y66889D02*
X383605Y66451D01*
X383799Y66343D01*
X384145Y66188D01*
X384296Y66139D01*
X384392Y66119D01*
X384452Y66124D01*
X384632Y66154D01*
X384788Y66196D01*
X384920Y66250D01*
X385028Y66316D01*
X385112Y66394D01*
X385172Y66484D01*
X385208Y66586D01*
X385220Y66700D01*
Y65892D01*
X386980D01*
Y65392D01*
X387480D01*
Y62423D01*
X389752D01*
Y62623D01*
X394866D01*
Y64057D01*
X394920Y64066D01*
X394994Y64073D01*
X396764D01*
Y40489D01*
X396635Y40396D01*
X395228Y39437D01*
X394606Y39063D01*
X394419Y38967D01*
X394379Y38951D01*
X392280D01*
X392206Y38958D01*
X392152Y38966D01*
Y39964D01*
X388584D01*
Y35349D01*
X331073D01*
X330651Y35771D01*
Y43307D01*
X330589Y43619D01*
X330412Y43884D01*
X330147Y44061D01*
X329835Y44123D01*
X329695D01*
Y44207D01*
X318962D01*
X318465Y45407D01*
X318886Y45828D01*
X319094Y46021D01*
X319263Y46157D01*
X319369Y46231D01*
X322386D01*
Y46031D01*
X324658D01*
Y49000D01*
Y51968D01*
X322386D01*
Y51768D01*
X317271D01*
Y48330D01*
X317203Y48232D01*
X316919Y47899D01*
X316511Y47490D01*
X303324D01*
X303222Y47498D01*
X303075Y47519D01*
X303012Y47534D01*
X303002Y47557D01*
X302999Y47572D01*
X302991Y47584D01*
X302776Y48105D01*
X302127Y48950D01*
X301281Y49599D01*
X300296Y50007D01*
X299240Y50146D01*
X292154D01*
X292154Y60161D01*
X295571D01*
X295570Y60201D01*
X295552Y60405D01*
X295522Y60585D01*
X295480Y60741D01*
X295427Y60873D01*
X295360Y60981D01*
X295283Y61065D01*
X295193Y61125D01*
X295091Y61161D01*
X294976Y61173D01*
X295676D01*
Y64507D01*
X296676D01*
Y61173D01*
X297376D01*
X297263Y61161D01*
X297161Y61125D01*
X297071Y61065D01*
X296992Y60981D01*
X296926Y60873D01*
X296872Y60741D01*
X296831Y60585D01*
X296800Y60405D01*
X296782Y60201D01*
X296781Y60161D01*
X300523D01*
Y62177D01*
X319345D01*
X320298Y61580D01*
Y54468D01*
X326397D01*
Y54268D01*
X329456D01*
Y58024D01*
X329956D01*
Y58524D01*
X333515D01*
Y60788D01*
X333790Y60905D01*
X334275Y60660D01*
X334875Y60064D01*
Y58618D01*
X338631D01*
X342387D01*
Y59000D01*
X354000D01*
X354994Y58503D01*
Y56933D01*
X359678D01*
X360202Y55760D01*
X358885Y54444D01*
X358678Y54251D01*
X358509Y54115D01*
X358402Y54040D01*
X355358D01*
Y48700D01*
X358402D01*
X358500Y48632D01*
X358834Y48348D01*
X360091Y47091D01*
X360091Y47091D01*
X360555Y46781D01*
X361101Y46673D01*
X374216D01*
X374216Y46673D01*
X374762Y46781D01*
X375225Y47091D01*
X376826Y48692D01*
X377034Y48884D01*
X377203Y49020D01*
X377309Y49095D01*
X382323D01*
Y51602D01*
X382377Y51611D01*
X382450Y51617D01*
X383969D01*
X384043Y51611D01*
X384097Y51602D01*
Y50571D01*
X389437D01*
Y55164D01*
X389890Y55582D01*
X390281Y55784D01*
X390576Y55817D01*
X390648Y55782D01*
X390899Y55589D01*
X391572Y55310D01*
X392295Y55215D01*
X393018Y55310D01*
X393691Y55589D01*
X394269Y56033D01*
X394713Y56611D01*
X394992Y57285D01*
X395087Y58007D01*
X394992Y58730D01*
X394713Y59404D01*
X394269Y59982D01*
X393691Y60426D01*
X393018Y60705D01*
X392295Y60800D01*
X391572Y60705D01*
X390899Y60426D01*
X390742Y60305D01*
X390694Y60285D01*
X390637Y60246D01*
X389437Y60636D01*
Y60636D01*
X384097D01*
Y59605D01*
X384043Y59596D01*
X383969Y59590D01*
X382450D01*
X382376Y59596D01*
X382323Y59605D01*
Y62112D01*
X376038D01*
Y64020D01*
X378048Y66029D01*
X382682D01*
Y67074D01*
X382934Y66889D01*
D02*
G37*
G36*
X442902Y56382D02*
X442838Y56346D01*
X442782Y56286D01*
X442734Y56202D01*
X442693Y56094D01*
X442660Y55962D01*
X442633Y55806D01*
X442615Y55626D01*
X442600Y55194D01*
X441400D01*
X441396Y55422D01*
X441366Y55806D01*
X441340Y55962D01*
X441307Y56094D01*
X441266Y56202D01*
X441218Y56286D01*
X441162Y56346D01*
X441098Y56382D01*
X441028Y56394D01*
X442972D01*
X442902Y56382D01*
D02*
G37*
G36*
X370755Y54198D02*
X370773Y53992D01*
X370803Y53810D01*
X370845Y53653D01*
X370899Y53519D01*
X370965Y53410D01*
X371043Y53325D01*
X371133Y53265D01*
X371235Y53228D01*
X371349Y53216D01*
X368949D01*
X369063Y53228D01*
X369165Y53265D01*
X369255Y53325D01*
X369333Y53410D01*
X369399Y53519D01*
X369453Y53653D01*
X369495Y53810D01*
X369525Y53992D01*
X369543Y54198D01*
X369549Y54428D01*
X370749D01*
X370755Y54198D01*
D02*
G37*
G36*
X360537Y53228D02*
X360298Y52981D01*
X359923Y52538D01*
X359786Y52343D01*
X359683Y52165D01*
X359614Y52003D01*
X359579Y51859D01*
X359577Y51733D01*
X359610Y51623D01*
X359677Y51531D01*
X357992Y53216D01*
X358084Y53149D01*
X358193Y53117D01*
X358320Y53118D01*
X358464Y53153D01*
X358625Y53222D01*
X358803Y53325D01*
X358999Y53462D01*
X359212Y53633D01*
X359689Y54077D01*
X360537Y53228D01*
D02*
G37*
G36*
X384921Y51844D02*
X384909Y51959D01*
X384872Y52061D01*
X384812Y52150D01*
X384727Y52228D01*
X384618Y52294D01*
X384484Y52349D01*
X384327Y52390D01*
X384145Y52421D01*
X383939Y52438D01*
X383709Y52444D01*
Y53644D01*
X383939Y53650D01*
X384145Y53668D01*
X384327Y53698D01*
X384484Y53740D01*
X384618Y53794D01*
X384727Y53860D01*
X384812Y53939D01*
X384872Y54028D01*
X384909Y54130D01*
X384921Y54244D01*
Y51844D01*
D02*
G37*
G36*
X381511Y54130D02*
X381547Y54028D01*
X381608Y53939D01*
X381693Y53860D01*
X381802Y53794D01*
X381935Y53740D01*
X382092Y53698D01*
X382274Y53668D01*
X382480Y53650D01*
X382711Y53644D01*
Y52444D01*
X382480Y52438D01*
X382274Y52421D01*
X382092Y52390D01*
X381935Y52349D01*
X381802Y52294D01*
X381693Y52228D01*
X381608Y52150D01*
X381547Y52061D01*
X381511Y51959D01*
X381499Y51844D01*
Y54244D01*
X381511Y54130D01*
D02*
G37*
G36*
X377720Y49919D02*
X377628Y49986D01*
X377518Y50018D01*
X377392Y50017D01*
X377248Y49982D01*
X377086Y49913D01*
X376908Y49810D01*
X376713Y49673D01*
X376500Y49502D01*
X376023Y49058D01*
X375174Y49907D01*
X375413Y50154D01*
X375789Y50597D01*
X375926Y50792D01*
X376029Y50971D01*
X376098Y51132D01*
X376133Y51275D01*
X376134Y51402D01*
X376101Y51512D01*
X376035Y51604D01*
X377720Y49919D01*
D02*
G37*
G36*
X418112Y51572D02*
X418148Y51368D01*
X418208Y51188D01*
X418292Y51032D01*
X418400Y50900D01*
X418532Y50792D01*
X418688Y50708D01*
X418868Y50648D01*
X419072Y50612D01*
X419300Y50600D01*
X417500Y49400D01*
X415700Y50600D01*
X415928Y50612D01*
X416132Y50648D01*
X416312Y50708D01*
X416468Y50792D01*
X416600Y50900D01*
X416708Y51032D01*
X416792Y51188D01*
X416852Y51368D01*
X416888Y51572D01*
X416900Y51800D01*
X418100D01*
X418112Y51572D01*
D02*
G37*
G36*
X359610Y51117D02*
X359577Y51007D01*
X359579Y50881D01*
X359614Y50737D01*
X359683Y50576D01*
X359786Y50397D01*
X359923Y50202D01*
X360094Y49989D01*
X360537Y49512D01*
X359689Y48663D01*
X359442Y48902D01*
X358999Y49278D01*
X358803Y49415D01*
X358625Y49518D01*
X358464Y49587D01*
X358320Y49622D01*
X358193Y49623D01*
X358084Y49591D01*
X357992Y49524D01*
X359677Y51209D01*
X359610Y51117D01*
D02*
G37*
G36*
X430100Y50000D02*
X428900Y48200D01*
X428888Y48428D01*
X428852Y48632D01*
X428792Y48812D01*
X428708Y48968D01*
X428600Y49100D01*
X428468Y49208D01*
X428312Y49292D01*
X428132Y49352D01*
X427928Y49388D01*
X427700Y49400D01*
Y50600D01*
X427928Y50612D01*
X428132Y50648D01*
X428312Y50708D01*
X428468Y50792D01*
X428600Y50900D01*
X428708Y51032D01*
X428792Y51188D01*
X428852Y51368D01*
X428888Y51572D01*
X428900Y51800D01*
X430100Y50000D01*
D02*
G37*
G36*
X319780Y47056D02*
X319688Y47122D01*
X319578Y47155D01*
X319451Y47154D01*
X319308Y47119D01*
X319146Y47049D01*
X318968Y46946D01*
X318773Y46810D01*
X318560Y46639D01*
X318083Y46195D01*
X317234Y47043D01*
X317473Y47291D01*
X317849Y47733D01*
X317986Y47929D01*
X318089Y48107D01*
X318158Y48268D01*
X318193Y48412D01*
X318194Y48539D01*
X318162Y48648D01*
X318095Y48741D01*
X319780Y47056D01*
D02*
G37*
G36*
X302260Y47146D02*
X302301Y47045D01*
X302371Y46955D01*
X302468Y46878D01*
X302592Y46812D01*
X302745Y46758D01*
X302925Y46717D01*
X303133Y46687D01*
X303369Y46669D01*
X303632Y46663D01*
Y45463D01*
X303369Y45457D01*
X303133Y45439D01*
X302925Y45409D01*
X302745Y45368D01*
X302592Y45314D01*
X302468Y45248D01*
X302371Y45171D01*
X302301Y45081D01*
X302260Y44980D01*
X302246Y44866D01*
Y47260D01*
X302260Y47146D01*
D02*
G37*
G36*
X442600Y42822D02*
X442612Y42683D01*
X442648Y42483D01*
X442790Y41902D01*
X443361Y40010D01*
X443789Y38699D01*
X439421Y40170D01*
X436155Y36904D01*
X436038Y37705D01*
X435280Y41347D01*
X435207Y41456D01*
X436056Y42304D01*
X436164Y42232D01*
X436350Y42154D01*
X436613Y42071D01*
X436952Y41984D01*
X438433Y41692D01*
X439044Y41598D01*
X441364Y43426D01*
X441400Y43520D01*
X442600Y42822D01*
D02*
G37*
G36*
X391340Y38610D02*
X391377Y38508D01*
X391437Y38418D01*
X391522Y38340D01*
X391631Y38274D01*
X391764Y38220D01*
X391922Y38178D01*
X392104Y38148D01*
X392310Y38130D01*
X392540Y38124D01*
Y36924D01*
X392310Y36918D01*
X392104Y36900D01*
X391922Y36870D01*
X391764Y36828D01*
X391631Y36774D01*
X391522Y36708D01*
X391437Y36630D01*
X391377Y36540D01*
X391340Y36438D01*
X391328Y36324D01*
Y38724D01*
X391340Y38610D01*
D02*
G37*
G36*
X398286Y34335D02*
X397640Y34827D01*
X394547Y36898D01*
X394420Y36924D01*
X394440Y38124D01*
X394569Y38149D01*
X394757Y38224D01*
X395002Y38349D01*
X395668Y38750D01*
X397103Y39728D01*
X398352Y40631D01*
X398286Y34335D01*
D02*
G37*
%LPC*%
G36*
X334578Y86655D02*
X334452Y86654D01*
X334308Y86619D01*
X334160Y86555D01*
X334780D01*
X334688Y86622D01*
X334578Y86655D01*
D02*
G37*
G36*
X386480Y64892D02*
X385220D01*
Y64300D01*
X385208Y64414D01*
X385172Y64516D01*
X385112Y64606D01*
X385028Y64684D01*
X384920Y64750D01*
X384788Y64804D01*
X384632Y64846D01*
X384452Y64876D01*
X384392Y64881D01*
X384296Y64861D01*
X384208Y64833D01*
Y62423D01*
X386480D01*
Y64892D01*
D02*
G37*
G36*
X342387Y57618D02*
X339131D01*
Y55937D01*
X342387D01*
Y57618D01*
D02*
G37*
G36*
X338131D02*
X334875D01*
Y55937D01*
X338131D01*
Y57618D01*
D02*
G37*
G36*
X333515Y57524D02*
X330456D01*
Y54268D01*
X333515D01*
Y57524D01*
D02*
G37*
G36*
X327929Y51968D02*
X325658D01*
Y49500D01*
X326917D01*
Y50200D01*
X326929Y50086D01*
X326965Y49984D01*
X327025Y49894D01*
X327109Y49816D01*
X327217Y49750D01*
X327349Y49696D01*
X327505Y49654D01*
X327685Y49624D01*
X327889Y49606D01*
X327929Y49605D01*
Y51968D01*
D02*
G37*
G36*
X326917Y48500D02*
X325658D01*
Y46031D01*
X327929D01*
Y48395D01*
X327889Y48394D01*
X327685Y48376D01*
X327505Y48346D01*
X327349Y48304D01*
X327217Y48250D01*
X327109Y48184D01*
X327025Y48106D01*
X326965Y48016D01*
X326929Y47914D01*
X326917Y47800D01*
Y48500D01*
D02*
G37*
%LPD*%
D14*
X139324Y53500D02*
Y63176D01*
X86869Y74820D02*
X94205Y82156D01*
X108982D01*
X111441Y79697D01*
X86869Y74529D02*
Y74820D01*
X111441Y79500D02*
Y79697D01*
X79533Y67193D02*
X86869Y74529D01*
X72748Y67193D02*
X79533D01*
X70543Y69398D02*
X72748Y67193D01*
X68102Y69398D02*
X70543D01*
X66869Y70631D02*
X68102Y69398D01*
X66869Y70631D02*
Y74343D01*
X107299Y96000D02*
Y96098D01*
X101012Y102386D02*
X107299Y96098D01*
X93588Y102386D02*
X101012D01*
X93000Y102974D02*
X93588Y102386D01*
X93000Y102974D02*
Y103657D01*
X87000Y102974D02*
Y103559D01*
Y102974D02*
X93000D01*
X81674D02*
X87000D01*
X81115Y103533D02*
X81674Y102974D01*
D23*
X141842Y58787D02*
D03*
X136843D02*
D03*
X131843D02*
D03*
X126842D02*
D03*
X141842Y37528D02*
D03*
X136843D02*
D03*
X131843D02*
D03*
X126842D02*
D03*
X306137Y81474D02*
D03*
X311137D02*
D03*
X316137D02*
D03*
X321137D02*
D03*
X306137Y102733D02*
D03*
X311137D02*
D03*
X316137D02*
D03*
X321137D02*
D03*
D24*
X176755Y59000D02*
D03*
X183842D02*
D03*
D25*
X107799Y87400D02*
D03*
X120201D02*
D03*
X369968Y59604D02*
D03*
X357566D02*
D03*
X357929Y51370D02*
D03*
X370331D02*
D03*
X119701Y96000D02*
D03*
X107299D02*
D03*
D26*
X334882Y97000D02*
D03*
X340000D02*
D03*
X347382Y88500D02*
D03*
X352500D02*
D03*
X347382Y97000D02*
D03*
X352500D02*
D03*
X136902Y29158D02*
D03*
X131783D02*
D03*
X194059Y79000D02*
D03*
X188941D02*
D03*
X171559Y78500D02*
D03*
X166441D02*
D03*
X163000Y59000D02*
D03*
X168118D02*
D03*
X111441Y79500D02*
D03*
X116559D02*
D03*
X197559Y59000D02*
D03*
X192441D02*
D03*
D27*
X82657Y49000D02*
D03*
X77342D02*
D03*
X386980Y65392D02*
D03*
X392295D02*
D03*
X298295Y89104D02*
D03*
X292980D02*
D03*
X340158Y88500D02*
D03*
X334842D02*
D03*
X298295Y96104D02*
D03*
X292980D02*
D03*
X316158Y73000D02*
D03*
X310842D02*
D03*
X134685Y88803D02*
D03*
X140000D02*
D03*
X325157Y49000D02*
D03*
X319843D02*
D03*
X428324Y157929D02*
D03*
X433639D02*
D03*
D28*
X102181Y36413D02*
D03*
Y48224D02*
D03*
X58000Y68811D02*
D03*
Y57000D02*
D03*
X338631Y69929D02*
D03*
Y58118D02*
D03*
D29*
X102969Y42319D02*
D03*
X337844Y64024D02*
D03*
D30*
X180299Y73150D02*
D03*
Y66850D02*
D03*
X418637Y77657D02*
D03*
Y71358D02*
D03*
X410767Y103157D02*
D03*
Y96858D02*
D03*
X378767Y58753D02*
D03*
Y52454D02*
D03*
D31*
X149343Y45500D02*
D03*
Y50815D02*
D03*
X327508Y95665D02*
D03*
Y90350D02*
D03*
X426137Y77507D02*
D03*
Y72192D02*
D03*
X66869Y74343D02*
D03*
Y79658D02*
D03*
X125343Y24500D02*
D03*
Y29815D02*
D03*
X165500Y72158D02*
D03*
Y66843D02*
D03*
X172500Y72158D02*
D03*
Y66843D02*
D03*
X93000Y98343D02*
D03*
Y103657D02*
D03*
X188000Y72158D02*
D03*
Y66843D02*
D03*
X195000Y72158D02*
D03*
Y66843D02*
D03*
D32*
X133760Y70185D02*
D03*
X137500D02*
D03*
X141240D02*
D03*
Y80815D02*
D03*
X133760D02*
D03*
D33*
X97597Y59674D02*
D03*
Y64674D02*
D03*
Y69674D02*
D03*
Y74674D02*
D03*
Y79674D02*
D03*
Y84674D02*
D03*
Y89674D02*
D03*
X76141Y59674D02*
D03*
Y64674D02*
D03*
Y69674D02*
D03*
Y74674D02*
D03*
Y79674D02*
D03*
Y84674D02*
D03*
Y89674D02*
D03*
X400495Y71604D02*
D03*
Y76604D02*
D03*
Y81603D02*
D03*
Y86603D02*
D03*
Y91603D02*
D03*
Y96604D02*
D03*
Y101603D02*
D03*
X379038Y71604D02*
D03*
Y76604D02*
D03*
Y81603D02*
D03*
Y86603D02*
D03*
Y91603D02*
D03*
Y96604D02*
D03*
Y101603D02*
D03*
D34*
X57213Y62906D02*
D03*
D35*
X329956Y58024D02*
D03*
X323657D02*
D03*
X329956Y70024D02*
D03*
X323657D02*
D03*
X341650Y81000D02*
D03*
X335350D02*
D03*
X110799Y48319D02*
D03*
X117098D02*
D03*
X110799Y36319D02*
D03*
X117098D02*
D03*
D36*
X442000Y65043D02*
D03*
Y57957D02*
D03*
X390368Y30503D02*
D03*
Y37589D02*
D03*
D37*
X149000Y72799D02*
D03*
Y85201D02*
D03*
D38*
X410767Y77162D02*
D03*
Y72044D02*
D03*
Y88162D02*
D03*
Y83044D02*
D03*
X423500Y63929D02*
D03*
Y58811D02*
D03*
X417500Y63929D02*
D03*
Y58811D02*
D03*
X367500Y95941D02*
D03*
Y101059D02*
D03*
X360500Y95941D02*
D03*
Y101059D02*
D03*
X435500Y63929D02*
D03*
Y58811D02*
D03*
X429500Y63929D02*
D03*
Y58811D02*
D03*
X358767Y72162D02*
D03*
Y67044D02*
D03*
X367500Y89059D02*
D03*
Y83941D02*
D03*
X411500Y63929D02*
D03*
Y58811D02*
D03*
X364767Y67044D02*
D03*
Y72163D02*
D03*
X405500Y63929D02*
D03*
Y58811D02*
D03*
X386767Y53044D02*
D03*
Y58163D02*
D03*
X143342Y29717D02*
D03*
Y24598D02*
D03*
X126500Y73941D02*
D03*
Y79059D02*
D03*
X81115Y103533D02*
D03*
Y98415D02*
D03*
X87000Y98441D02*
D03*
Y103559D02*
D03*
D65*
X429500Y99500D02*
G03*
X429146Y100354I-1207J0D01*
G01*
X48500Y53500D02*
Y63000D01*
Y72500D01*
X37500Y63000D02*
X48000D01*
X51208Y326417D02*
Y328740D01*
X57000Y68898D02*
X65500D01*
X58000Y57087D02*
X64961D01*
X133760Y68740D02*
X139324Y63176D01*
X133760Y68740D02*
Y70185D01*
X135260Y53500D02*
X139324D01*
X131843Y56917D02*
X135260Y53500D01*
X131843Y56917D02*
Y58787D01*
X166441Y78500D02*
Y83941D01*
X172500Y72658D02*
X180299D01*
X172000Y72158D02*
X172500Y72658D01*
Y77559D01*
Y72158D02*
Y72658D01*
Y72000D02*
Y72158D01*
X171559Y78500D02*
X172500Y77559D01*
X188000Y72158D02*
X195000D01*
X180799D02*
X188000D01*
Y71500D02*
Y72158D01*
Y78059D01*
X188941Y79000D01*
X97597Y59674D02*
Y64674D01*
Y69674D02*
X103826D01*
X97772Y74500D02*
X98272Y75000D01*
X104500D01*
X97597Y74674D02*
X97772Y74500D01*
X76141Y84674D02*
Y89674D01*
X69723Y64674D02*
X76141D01*
X92893Y92730D02*
X110803D01*
X89631Y95991D02*
X92893Y92730D01*
X148902Y85201D02*
Y92098D01*
X66869Y74343D02*
X67035Y74509D01*
X74378D01*
X77814Y89674D02*
X78395Y90255D01*
X76141Y89674D02*
X77814D01*
X101193Y87752D02*
X107447D01*
X107799Y87400D01*
X67548Y59674D02*
X76141D01*
X64961Y57087D02*
X67548Y59674D01*
X71886Y80114D02*
Y93458D01*
X154000Y83461D02*
X165303Y72158D01*
X154000Y83461D02*
Y92000D01*
X99000Y108270D02*
X106000Y101270D01*
X144730D02*
X154000Y92000D01*
X76000Y97571D02*
Y107000D01*
X77270Y108270D01*
X106000Y101270D02*
X144730D01*
X77270Y108270D02*
X99000D01*
X71886Y93458D02*
X76000Y97571D01*
X165303Y72158D02*
X165500D01*
X172000D01*
X77814Y69674D02*
X85730Y77590D01*
X76141Y69674D02*
X77814D01*
X85730Y77590D02*
Y97368D01*
X86803Y98441D02*
X87000D01*
X120201Y87400D02*
X120205Y87396D01*
X97597Y84674D02*
X98142Y84130D01*
X117029D01*
X65500Y68898D02*
X69723Y64674D01*
X97597Y89674D02*
X99271D01*
X101193Y87752D01*
X72326Y79674D02*
X76141D01*
X71886Y80114D02*
X72326Y79674D01*
X85730Y97368D02*
X86803Y98441D01*
X80918Y98415D02*
X81115D01*
X78395Y95892D02*
X80918Y98415D01*
X78395Y90255D02*
Y95892D01*
X340158Y88500D02*
X347382D01*
X340158Y82492D02*
Y88500D01*
Y82492D02*
X341650Y81000D01*
X334842Y81508D02*
Y88500D01*
Y81508D02*
X335350Y81000D01*
X340000Y97000D02*
X347382D01*
X352500Y88500D02*
X353059Y89059D01*
X367697D01*
X334842Y88303D02*
Y88500D01*
X330464Y83925D02*
X334842Y88303D01*
X321718Y83925D02*
X330464D01*
X321137Y83344D02*
X321718Y83925D01*
X321137Y81474D02*
Y83344D01*
X334718Y96837D02*
X334882Y97000D01*
X328679Y96837D02*
X334718D01*
X327508Y95665D02*
X328679Y96837D01*
X328803Y85925D02*
X331412Y88534D01*
Y93121D01*
X334882Y96591D01*
Y97000D01*
X319518Y85925D02*
X328803D01*
X353559Y95941D02*
X367370D01*
X352500Y97000D02*
X353559Y95941D01*
X367370D02*
X367500D01*
X440053Y37458D02*
X442000Y39405D01*
Y57957D01*
X140000Y88500D02*
X141000Y89500D01*
X137500Y78000D02*
X141240Y74260D01*
Y71260D02*
Y74260D01*
Y71260D02*
X141500Y71000D01*
X137500Y78000D02*
Y85541D01*
X138828Y86870D01*
Y87631D01*
X140000Y88803D01*
X141000Y89500D02*
X145000D01*
X137116Y70569D02*
Y71762D01*
X134937Y73941D02*
X137116Y71762D01*
Y70569D02*
X137500Y70185D01*
X320540Y76000D02*
X324976D01*
X327997Y72979D01*
X433639Y157929D02*
X438929D01*
X325157Y49000D02*
X331500D01*
X296177Y56677D02*
Y64507D01*
X429500Y48011D02*
Y50000D01*
Y58811D01*
X417500Y50000D02*
X429500D01*
Y48011D02*
X440053Y37458D01*
X410500Y50000D02*
X417500D01*
X406770Y53730D02*
X410500Y50000D01*
X417500D02*
Y58811D01*
X406770Y53730D02*
Y57738D01*
X428324Y136324D02*
Y157929D01*
X401678Y109678D02*
X428324Y136324D01*
X392637Y109678D02*
X401678D01*
X367545Y67044D02*
X372500Y72000D01*
X371139Y65377D02*
X377365Y71604D01*
X371139Y60775D02*
Y65377D01*
X117000Y37000D02*
Y42500D01*
X116500Y48000D02*
X117000Y47500D01*
Y42500D02*
Y47500D01*
X103059Y42409D02*
X116409D01*
X116500Y42500D01*
X102969Y42319D02*
X103059Y42409D01*
X292966Y329384D02*
Y337992D01*
X292323Y328740D02*
X292966Y329384D01*
X323657Y64000D02*
Y69657D01*
Y58024D02*
Y64000D01*
X338000D01*
X323657Y69657D02*
X324000Y70000D01*
X386612Y58163D02*
X386767Y58007D01*
X386844Y58085D01*
X66500Y80288D02*
X67000Y79789D01*
X392637Y81603D02*
X400495D01*
X379038D02*
X392637D01*
X377365D02*
X379038D01*
X329956Y70024D02*
X330051Y69929D01*
X327997Y71983D02*
X329956Y70024D01*
X338631Y69929D02*
X340206D01*
X330051D02*
X338631D01*
X116559Y79500D02*
Y79697D01*
Y83559D01*
X117029Y84029D01*
Y84130D01*
X121000Y24000D02*
X121250Y24250D01*
X125092D01*
X125343Y24500D01*
X392403Y65500D02*
X399000D01*
X392295Y65392D02*
X392403Y65500D01*
X400364Y68868D02*
X405303Y63929D01*
X378869Y68868D02*
X400364D01*
X374611Y64611D02*
X378869Y68868D01*
X386787Y65500D02*
X386941Y65346D01*
X381500Y65500D02*
X386787D01*
X372831Y101331D02*
X373000Y101500D01*
X367772Y101331D02*
X372831D01*
X373000Y101500D02*
X378935D01*
X379038Y101603D01*
X125343Y24500D02*
X126342Y23500D01*
X98329Y98171D02*
X98500Y98000D01*
X93171Y98171D02*
X98329D01*
X93000Y98343D02*
X93171Y98171D01*
X37428Y134974D02*
Y312638D01*
Y134974D02*
X70000Y102402D01*
Y97500D02*
Y102402D01*
X66500Y80288D02*
Y85000D01*
X137000Y45500D02*
X149343D01*
X160000Y54000D02*
X186000D01*
X148000Y66000D02*
X160000Y54000D01*
X140492Y66000D02*
X148000D01*
X186000Y54000D02*
X190141Y49859D01*
Y37428D02*
Y49859D01*
X137884Y68608D02*
X140492Y66000D01*
X137500Y70185D02*
X137884Y69801D01*
X319843Y48803D02*
Y49000D01*
X317102Y46063D02*
X319843Y48803D01*
X294909Y46063D02*
X317102D01*
X77342Y48803D02*
Y49000D01*
X74629Y46090D02*
X77342Y48803D01*
X54698Y46090D02*
X74629D01*
X66869Y79658D02*
X67000Y79789D01*
X141730Y99270D02*
X148902Y92098D01*
X117343Y99270D02*
X141730D01*
X149000Y72799D02*
Y78500D01*
X146685Y80815D02*
X149000Y78500D01*
X141240Y80815D02*
X146685D01*
X194053Y67093D02*
X194303Y67343D01*
X188250Y67093D02*
X194053D01*
X188000Y66843D02*
X188250Y67093D01*
X194803Y66843D02*
X195000D01*
X192441Y64480D02*
X194803Y66843D01*
X192441Y59000D02*
Y64480D01*
X180299Y72658D02*
X180799Y72158D01*
Y66843D02*
X188000D01*
X316073Y82701D02*
Y88573D01*
X319500Y92000D02*
X319921D01*
X321571Y90350D01*
X327508D01*
X316073Y88573D02*
X319500Y92000D01*
X311336Y95665D02*
X327508D01*
X316147Y73010D02*
X316158Y73000D01*
X316147Y73010D02*
Y81463D01*
X316137Y81474D02*
X316147Y81463D01*
X310842Y73000D02*
X310990Y73147D01*
Y81326D01*
X311137Y81474D01*
X367303Y83941D02*
X367500D01*
X360051Y76689D02*
X367303Y83941D01*
X346966Y76689D02*
X360051D01*
X340206Y69929D02*
X346966Y76689D01*
X148171Y51987D02*
X149343Y50815D01*
X141842Y56917D02*
X146773Y51987D01*
X149343Y50815D02*
Y55062D01*
X146773Y51987D02*
X148171D01*
X141842Y56917D02*
Y58787D01*
X378767Y58753D02*
X379357Y58163D01*
X386612D01*
X168118Y59000D02*
X172500D01*
X176755D01*
X392217Y58085D02*
X392295Y58007D01*
X386844Y58085D02*
X392217D01*
X316073Y82701D02*
X316137Y82637D01*
X400495Y86603D02*
X405041D01*
X375028Y83941D02*
X377365Y81603D01*
X362500Y56039D02*
Y63311D01*
X358767Y67044D02*
X362500Y63311D01*
X355497Y64791D02*
X357014Y63274D01*
Y60155D02*
Y63274D01*
Y60155D02*
X357566Y59604D01*
X355497Y64791D02*
Y69298D01*
X357929Y51468D02*
X362500Y56039D01*
X374611Y55614D02*
X375812Y54413D01*
X374611Y55614D02*
Y64611D01*
X364767Y67044D02*
X367545D01*
X369968Y59604D02*
X370149Y59422D01*
X369968Y59604D02*
X371139Y60775D01*
X377365Y71604D02*
X379038D01*
X405500Y63929D02*
X411500D01*
X405303D02*
X405500D01*
X426000Y103500D02*
X429146Y100354D01*
X411110Y103500D02*
X426000D01*
X410767Y103157D02*
X411110Y103500D01*
X419472Y72192D02*
X426137D01*
X418637Y71358D02*
X419472Y72192D01*
X417951Y72044D02*
X418637Y71358D01*
X410767Y72044D02*
X417951D01*
X410546Y71824D02*
X410767Y72044D01*
X400716Y71824D02*
X410546D01*
X400495Y71604D02*
X400716Y71824D01*
X423697Y63929D02*
X431000Y71232D01*
X423500Y63929D02*
X423697D01*
X417500D02*
X423500D01*
X431000Y71232D02*
Y76413D01*
X418787Y77507D02*
X426137D01*
X429906D01*
X431000Y76413D01*
X429500Y89657D02*
X434230Y84928D01*
X422300Y96858D02*
X429500Y89657D01*
X410767Y96858D02*
X422300D01*
X434230Y65002D02*
Y84928D01*
Y65002D02*
X434407D01*
X367697Y89059D02*
X370241Y91603D01*
X379038D01*
X367697Y83941D02*
X375028D01*
X367370Y95941D02*
X367435Y95876D01*
X360500Y101059D02*
X367370D01*
X367435Y100994D01*
Y95876D02*
X367831Y96272D01*
X367435Y100994D02*
X367772Y101331D01*
X398822Y91603D02*
X400495D01*
X407129D01*
X378707Y96272D02*
X379038Y96604D01*
X367831Y96272D02*
X378707D01*
X110803Y92730D02*
X117343Y99270D01*
X89631Y95991D02*
Y96006D01*
X87197Y98441D02*
X89631Y96006D01*
X119701Y95902D02*
Y96000D01*
X112469Y88670D02*
X119701Y95902D01*
X108971Y88670D02*
X112469D01*
X107799Y87498D02*
X108971Y88670D01*
X107799Y87400D02*
Y87498D01*
X124261Y54699D02*
Y62419D01*
Y54699D02*
X131843Y47117D01*
Y39658D02*
Y47117D01*
X102181Y48224D02*
X110704D01*
X126500Y73941D02*
X134937D01*
X137884Y68608D02*
Y69801D01*
X134144Y88262D02*
X134685Y88803D01*
X134144Y81199D02*
Y88262D01*
X133760Y80815D02*
X134144Y81199D01*
X126500Y79059D02*
X126887Y79447D01*
X133760Y79831D02*
Y80815D01*
X133376Y79447D02*
X133760Y79831D01*
X134261Y63239D02*
X136843Y60658D01*
X125082Y63239D02*
X134261D01*
X124261Y62419D02*
X125082Y63239D01*
X137343Y28520D02*
X140191Y25672D01*
X136602Y30158D02*
X136872Y30428D01*
Y37498D01*
X136843Y37528D02*
X136872Y37498D01*
X136843Y58787D02*
Y60658D01*
X141991Y35157D02*
X142072Y35076D01*
Y30790D02*
Y35076D01*
Y30790D02*
X143146Y29717D01*
X143342D01*
X125343Y29815D02*
X130710D01*
X131342Y29183D01*
Y29158D02*
Y29183D01*
X132083Y30158D02*
X132343D01*
X131813Y30428D02*
X132083Y30158D01*
X131813Y30428D02*
Y37498D01*
X131843Y37528D01*
X140191Y25672D02*
X142269D01*
X143342Y24598D01*
X126342Y56157D02*
X137000Y45500D01*
X117029Y84130D02*
X120201Y87301D01*
Y87400D01*
X292980Y89104D02*
Y96104D01*
X292966Y177921D02*
X292973Y177915D01*
Y96110D02*
Y177915D01*
Y96110D02*
X292980Y96104D01*
X327997Y71983D02*
Y72979D01*
X378570Y52454D02*
X378767D01*
X370149Y51552D02*
Y59422D01*
Y51552D02*
X370331Y51370D01*
X357929Y51272D02*
Y51370D01*
Y51468D01*
X379357Y53044D02*
X386767D01*
X378767Y52454D02*
X379357Y53044D01*
X357929Y51272D02*
X361101Y48100D01*
X374216D01*
X378570Y52454D01*
X434407Y63929D02*
Y65002D01*
X429500Y63929D02*
X434407D01*
X375812Y54413D02*
X376808D01*
X378767Y52454D01*
X435303Y63929D02*
X435500D01*
X434230Y65002D02*
X435303Y63929D01*
X435500Y54370D02*
Y58811D01*
X411500Y54370D02*
Y58811D01*
X423500Y54370D02*
Y58811D01*
X405500D02*
X405697D01*
X406770Y57738D01*
X379038Y101603D02*
X388822D01*
X163000Y64539D02*
X165303Y66843D01*
X163000Y59000D02*
Y64539D01*
X165500Y66843D02*
X172500D01*
X165303D02*
X165500D01*
X197559Y58803D02*
Y59000D01*
Y58803D02*
X199984Y56378D01*
Y37428D02*
Y56378D01*
X183842Y59000D02*
X192441D01*
X172500Y66843D02*
X180291D01*
X180299Y66850D01*
X306137Y82409D02*
Y83344D01*
X305556Y83925D02*
X306137Y83344D01*
X410487Y76883D02*
X410767Y77162D01*
X357694Y71089D02*
X358767Y72163D01*
X292966Y178490D02*
X293307Y178150D01*
X292966Y178490D02*
Y187921D01*
X427968Y158285D02*
X428324Y157929D01*
X427968Y158285D02*
Y177400D01*
X427612Y177756D02*
X427968Y177400D01*
X52782Y329134D02*
X53176Y328740D01*
X52782Y329134D02*
Y337992D01*
X37428Y312638D02*
X51208Y326417D01*
X110704Y48224D02*
X110799Y48319D01*
X313556Y107185D02*
X316137Y104604D01*
X298295Y101103D02*
X304376Y107185D01*
X298295Y96104D02*
Y101103D01*
X304376Y107185D02*
X313556D01*
X418637Y77657D02*
X418787Y77507D01*
X358767Y72163D02*
X364964D01*
X379038Y86603D02*
X386567D01*
X369405Y76604D02*
X379038D01*
X407129Y91603D02*
X410570Y88162D01*
X409213Y101603D02*
X410767Y103157D01*
X400495Y101603D02*
X409213D01*
X306137Y100863D02*
X311336Y95665D01*
X410767Y77162D02*
Y83044D01*
X316137Y102733D02*
Y104604D01*
X298295Y88907D02*
Y89104D01*
Y88907D02*
X303277Y83925D01*
X305556D01*
X364964Y72163D02*
X369405Y76604D01*
X355497Y69298D02*
X357288Y71089D01*
X357694D01*
X400495Y76604D02*
X400775Y76883D01*
X410487D01*
X400495Y96604D02*
Y101603D01*
X306137Y100863D02*
Y102733D01*
X388822Y101603D02*
X398822Y91603D01*
X410570Y88162D02*
X410767D01*
X397660Y37524D02*
X398184Y37000D01*
X158115Y36970D02*
Y36975D01*
X427612Y177756D02*
Y187756D01*
X157531Y37559D02*
X158115Y36975D01*
X390368Y37589D02*
X390433Y37524D01*
X397660D01*
D66*
X19712Y19685D02*
D03*
X259869D02*
D03*
Y358268D02*
D03*
X460656Y19685D02*
D03*
X19712Y358268D02*
D03*
X220499Y19685D02*
D03*
X88000Y64500D02*
D03*
X166441Y83941D02*
D03*
X172500Y59000D02*
D03*
X104500Y75000D02*
D03*
X69723Y64674D02*
D03*
X372500Y72000D02*
D03*
X111000Y42500D02*
D03*
X330000Y64000D02*
D03*
X324000D02*
D03*
X120000Y24000D02*
D03*
X401575Y51181D02*
D03*
X358268Y31496D02*
D03*
X381500Y65500D02*
D03*
X373000Y101500D02*
D03*
X145000Y89500D02*
D03*
X117000Y42500D02*
D03*
X98500Y98000D02*
D03*
X70000Y97500D02*
D03*
X66500Y85000D02*
D03*
X319500Y92000D02*
D03*
X326500Y80000D02*
D03*
X310500Y88000D02*
D03*
X352630Y81370D02*
D03*
X149343Y55062D02*
D03*
X19658Y49239D02*
D03*
Y88609D02*
D03*
Y127979D02*
D03*
Y167349D02*
D03*
Y206719D02*
D03*
Y246090D02*
D03*
Y285460D02*
D03*
Y324830D02*
D03*
X59029Y131917D02*
D03*
Y118137D02*
D03*
X88556D02*
D03*
Y131917D02*
D03*
X118084D02*
D03*
Y118137D02*
D03*
X147611D02*
D03*
Y131917D02*
D03*
X177139D02*
D03*
Y118137D02*
D03*
X216509Y324830D02*
D03*
Y285460D02*
D03*
Y246090D02*
D03*
Y206719D02*
D03*
Y167349D02*
D03*
X224385Y88609D02*
D03*
Y49239D02*
D03*
X59029Y374043D02*
D03*
X88556D02*
D03*
X118084D02*
D03*
X147611D02*
D03*
X177139D02*
D03*
X417349D02*
D03*
X387822D02*
D03*
X358294D02*
D03*
X328767D02*
D03*
X299239D02*
D03*
X304197Y94881D02*
D03*
X456849Y50583D02*
D03*
Y89953D02*
D03*
X456719Y167323D02*
D03*
Y206693D02*
D03*
Y246063D02*
D03*
Y285433D02*
D03*
Y324803D02*
D03*
X417479Y119480D02*
D03*
X417349Y131917D02*
D03*
X387822D02*
D03*
X387952Y119480D02*
D03*
X358424D02*
D03*
X358294Y131917D02*
D03*
X328767D02*
D03*
X328897Y119480D02*
D03*
X299369D02*
D03*
X299239Y131917D02*
D03*
X259869Y324803D02*
D03*
Y285433D02*
D03*
Y246063D02*
D03*
Y206693D02*
D03*
Y167323D02*
D03*
Y127953D02*
D03*
Y88583D02*
D03*
Y49213D02*
D03*
X405041Y86603D02*
D03*
X392295Y58007D02*
D03*
X423500Y54370D02*
D03*
X435500D02*
D03*
X411500D02*
D03*
X392637Y109678D02*
D03*
Y81603D02*
D03*
X386567Y86603D02*
D03*
D67*
X318656Y77884D02*
X320540Y76000D01*
X318656Y85063D02*
X319518Y85925D01*
X318656Y77884D02*
Y85063D01*
D68*
X54698Y21680D02*
D03*
X294909Y21654D02*
D03*
D69*
X54698Y46090D02*
D03*
X294909Y46063D02*
D03*
D70*
X73006Y34475D02*
D03*
X313216Y34449D02*
D03*
D71*
X440053Y37458D02*
D03*
X430210D02*
D03*
X400683D02*
D03*
X410525D02*
D03*
X420368Y17773D02*
D03*
X180299Y17743D02*
D03*
X170456Y37428D02*
D03*
X160614D02*
D03*
X190141D02*
D03*
X199984D02*
D03*
X52782Y197756D02*
D03*
X427612Y177756D02*
D03*
X292966Y177921D02*
D03*
Y327992D02*
D03*
X427612Y317992D02*
D03*
X52782Y337992D02*
D03*
X187428Y337992D02*
D03*
Y187756D02*
D03*
D72*
X49072Y87391D02*
D03*
X429500Y99500D02*
D03*
D73*
X49072Y97233D02*
D03*
X286334Y64507D02*
D03*
X429500Y89657D02*
D03*
D74*
X52782Y187756D02*
D03*
X427612Y187756D02*
D03*
X292966Y187921D02*
D03*
Y337992D02*
D03*
X427612Y327992D02*
D03*
X52782D02*
D03*
X187428Y327992D02*
D03*
Y177756D02*
D03*
D75*
X296177Y64507D02*
D03*
M02*
