G04*
G04 #@! TF.GenerationSoftware,Altium Limited,Altium Designer,23.10.1 (27)*
G04*
G04 Layer_Color=16711935*
%FSLAX25Y25*%
%MOIN*%
G70*
G04*
G04 #@! TF.SameCoordinates,52E8BDB3-E784-467F-A169-E1E59ABD1491*
G04*
G04*
G04 #@! TF.FilePolarity,Negative*
G04*
G01*
G75*
%ADD56O,0.16935X0.06896*%
%ADD57O,0.15558X0.06896*%
%ADD58O,0.06896X0.15558*%
%ADD59C,0.00400*%
%ADD60C,0.08274*%
%ADD61R,0.07093X0.07093*%
%ADD62C,0.07093*%
%ADD63R,0.08274X0.08274*%
%ADD64R,0.07093X0.07093*%
D56*
X54698Y21680D02*
D03*
X294909Y21654D02*
D03*
D57*
X54698Y46090D02*
D03*
X294909Y46063D02*
D03*
D58*
X73006Y34475D02*
D03*
X313216Y34449D02*
D03*
D59*
X400683Y17773D02*
D03*
X440053D02*
D03*
X199984Y17743D02*
D03*
X160614D02*
D03*
D60*
X440053Y37458D02*
D03*
X430210D02*
D03*
X400683D02*
D03*
X410525D02*
D03*
X420368Y17773D02*
D03*
X180299Y17743D02*
D03*
X170456Y37428D02*
D03*
X160614D02*
D03*
X190141D02*
D03*
X199984D02*
D03*
X52782Y197756D02*
D03*
X427612Y177756D02*
D03*
X292966Y177921D02*
D03*
Y327992D02*
D03*
X427612Y317992D02*
D03*
X52782Y337992D02*
D03*
X187428Y337992D02*
D03*
Y187756D02*
D03*
D61*
X49072Y87391D02*
D03*
X429500Y99500D02*
D03*
D62*
X49072Y97233D02*
D03*
X286334Y64507D02*
D03*
X429500Y89657D02*
D03*
D63*
X52782Y187756D02*
D03*
X427612Y187756D02*
D03*
X292966Y187921D02*
D03*
Y337992D02*
D03*
X427612Y327992D02*
D03*
X52782D02*
D03*
X187428Y327992D02*
D03*
Y177756D02*
D03*
D64*
X296177Y64507D02*
D03*
M02*
